<svg width="143" height="192" viewBox="0 0 143 192" fill="none" xmlns="http://www.w3.org/2000/svg">
<rect x="9" y="66.0002" width="60" height="60" rx="6.00316" fill="#8094D7"/>
<rect x="9" y="132" width="60" height="60" rx="6.00316" fill="#8094D7"/>
<rect x="75" y="66.0002" width="60" height="60" rx="6.00316" fill="#8094D7"/>
<rect x="75" width="60" height="60" rx="6.00316" fill="#8094D7"/>
<rect x="24.5996" y="147.6" width="28.8" height="28.8" rx="2.40126" fill="white"/>
<path d="M32.9992 166.8H28.1992L32.3632 161.208C32.6189 160.927 32.8042 160.589 32.9039 160.222C33.0035 159.856 33.0147 159.471 32.9364 159.099C32.8581 158.727 32.6926 158.379 32.4536 158.083C32.2146 157.788 31.9088 157.554 31.5614 157.399C31.2141 157.245 30.8351 157.176 30.4557 157.197C30.0762 157.218 29.7072 157.328 29.3789 157.52C29.0506 157.711 28.7725 157.978 28.5674 158.298C28.3623 158.618 28.2361 158.982 28.1992 159.36M36.5992 166.8V157.2H41.3992M36.5992 162H40.1992M44.9992 166.8V159.6C44.9992 158.964 45.2521 158.353 45.7022 157.903C46.1523 157.453 46.7627 157.2 47.3992 157.2C48.0357 157.2 48.6462 157.453 49.0963 157.903C49.5464 158.353 49.7992 158.964 49.7992 159.6V166.8M44.9992 163.2H49.7992" stroke="#8094D7" stroke-width="2.40126" stroke-linecap="round" stroke-linejoin="round"/>
</svg>
