<svg width="258" height="60" viewBox="0 0 258 60" fill="none" xmlns="http://www.w3.org/2000/svg">
<rect width="60" height="60" rx="6.00316" fill="#5379F6"/>
<rect x="66" width="60" height="60" rx="6.00316" fill="#5379F6"/>
<rect x="132" width="60" height="60" rx="6.00316" fill="#5379F6"/>
<rect x="198" width="60" height="60" rx="6.00316" fill="#5379F6"/>
<path d="M94.8492 18.3399C95.2294 18.1198 95.6296 18.0098 96.0498 18.0098C96.4701 18.0098 96.8703 18.1198 97.2505 18.3399L105.655 23.1725C106.035 23.3926 106.33 23.6828 106.541 24.0429C106.751 24.4031 106.856 24.8033 106.856 25.2436V30.3162C106.175 29.836 105.43 29.4658 104.619 29.2057C103.808 28.9455 102.953 28.8155 102.053 28.8155C101.713 28.8155 101.387 28.8307 101.077 28.8611C100.766 28.8915 100.451 28.9463 100.132 29.0256L104.454 26.5343V25.2736L103.164 24.5232L96.0498 28.6354L88.9361 24.5232L87.6454 25.2736V26.5343L94.8492 30.7064V32.8976C94.469 33.5379 94.1736 34.2183 93.9631 34.9387C93.7526 35.6591 93.6478 36.4195 93.6486 37.2199C93.6486 38.0603 93.7638 38.8607 93.9944 39.6211C94.2249 40.3815 94.5498 41.0919 94.9693 41.7523C94.9493 41.7323 94.9292 41.7222 94.9092 41.7222C94.8892 41.7222 94.8692 41.7122 94.8492 41.6922L86.4448 36.8597C86.0646 36.6396 85.7692 36.3494 85.5587 35.9892C85.3482 35.629 85.2433 35.2288 85.2441 34.7886V25.2436C85.2441 24.8033 85.3494 24.4031 85.5599 24.0429C85.7704 23.6828 86.0654 23.3926 86.4448 23.1725L94.8492 18.3399ZM102.053 40.8218L105.655 37.2199L104.814 36.3794L102.653 38.5406V33.618H101.453V38.5406L99.2915 36.3794L98.4511 37.2199L102.053 40.8218ZM102.053 43.223C100.392 43.223 98.9762 42.6375 97.8052 41.4665C96.6341 40.2955 96.049 38.8799 96.0498 37.2199C96.0498 35.559 96.6353 34.1431 97.8064 32.972C98.9774 31.801 100.393 31.2159 102.053 31.2167C103.714 31.2167 105.13 31.8022 106.301 32.9732C107.472 34.1443 108.057 35.5598 108.056 37.2199C108.056 38.8807 107.471 40.2967 106.3 41.4677C105.129 42.6387 103.713 43.2238 102.053 43.223Z" fill="white"/>
</svg>
