<svg width="146" height="192" viewBox="0 0 146 192" fill="none" xmlns="http://www.w3.org/2000/svg">
<rect x="10" y="66.0002" width="60" height="60" rx="6.00316" fill="#98B9FF"/>
<path d="M25.5996 86.4026C25.5996 83.7503 27.7498 81.6001 30.4021 81.6001H49.5971C52.2494 81.6001 54.3996 83.7503 54.3996 86.4026V105.598C54.3996 108.25 52.2494 110.4 49.5971 110.4H30.4021C27.7498 110.4 25.5996 108.25 25.5996 105.598V86.4026Z" fill="white"/>
<rect x="10" y="132" width="60" height="60" rx="6.00316" fill="#98B9FF"/>
<rect x="76" y="66.0002" width="60" height="60" rx="6.00316" fill="#98B9FF"/>
<rect x="10" width="60" height="60" rx="6.00316" fill="#98B9FF"/>
<path d="M39.8421 104.4C40.7669 104.4 41.6827 104.218 42.5371 103.864C43.3915 103.51 44.1679 102.991 44.8218 102.337C45.4758 101.684 45.9945 100.907 46.3484 100.053C46.7023 99.1984 46.8845 98.2826 46.8845 97.3578V93.4423C46.8846 91.7122 46.2478 90.0427 45.0957 88.7521M32.7998 95.0057V97.3578C32.7993 98.7442 33.2081 100.1 33.9747 101.255C34.7414 102.41 35.832 103.313 37.1097 103.851M43.3633 87.3436C41.7458 86.4098 39.8236 86.1567 38.0196 86.6401C36.2155 87.1235 34.6774 88.3037 33.7435 89.9211C33.3589 90.5853 33.0876 91.3088 32.9407 92.062" stroke="#98B9FF" stroke-width="1.80095" stroke-linecap="round" stroke-linejoin="round"/>
<path d="M39.1095 90.4845C39.6276 90.3769 40.1631 90.387 40.6767 90.514C41.1903 90.641 41.6689 90.8817 42.0771 91.2182C42.4853 91.5548 42.8128 91.9787 43.0354 92.4587C43.2579 92.9387 43.3699 93.4625 43.3631 93.9915V96.2592M42.4617 99.2169C41.9824 99.7508 41.3516 100.125 40.6536 100.291C39.9556 100.456 39.2237 100.405 38.5558 100.143C37.888 99.8808 37.3161 99.4211 36.9166 98.8253C36.5172 98.2294 36.3093 97.5257 36.3208 96.8085V93.9915C36.3181 93.5078 36.4139 93.0286 36.6025 92.5831M39.8419 94.1465V96.4986" stroke="#98B9FF" stroke-width="1.80095" stroke-linecap="round" stroke-linejoin="round"/>
</svg>
