<svg width="126" height="192" viewBox="0 0 126 192" fill="none" xmlns="http://www.w3.org/2000/svg">
<rect y="66.0002" width="60" height="60" rx="6.00316" fill="#2D54D1"/>
<rect width="60" height="60" rx="6.00316" fill="#2D54D1"/>
<rect x="66" y="66.0002" width="60" height="60" rx="6.00316" fill="#2D54D1"/>
<rect x="66" y="132" width="60" height="60" rx="6.00316" fill="#2D54D1"/>
<g clip-path="url(#clip0_463_1213)">
<path d="M88.3194 93.1201C88.0648 93.1201 87.8206 93.2213 87.6406 93.4013C87.4605 93.5813 87.3594 93.8255 87.3594 94.0801V97.9201C87.3594 98.1747 87.4605 98.4189 87.6406 98.5989C87.8206 98.779 88.0648 98.8801 88.3194 98.8801C88.574 98.8801 88.8182 98.779 88.9982 98.5989C89.1782 98.4189 89.2794 98.1747 89.2794 97.9201V94.0801C89.2794 93.8255 89.1782 93.5813 88.9982 93.4013C88.8182 93.2213 88.574 93.1201 88.3194 93.1201ZM102.719 95.0401H103.679C103.934 95.0401 104.178 94.939 104.358 94.7589C104.538 94.5789 104.639 94.3347 104.639 94.0801C104.639 93.8255 104.538 93.5813 104.358 93.4013C104.178 93.2213 103.934 93.1201 103.679 93.1201H102.719V95.0401Z" fill="white"/>
<path fill-rule="evenodd" clip-rule="evenodd" d="M81.5996 84.4801C81.5996 83.7163 81.903 82.9837 82.4431 82.4436C82.9832 81.9035 83.7158 81.6001 84.4796 81.6001H107.52C108.283 81.6001 109.016 81.9035 109.556 82.4436C110.096 82.9837 110.4 83.7163 110.4 84.4801V107.52C110.4 108.284 110.096 109.016 109.556 109.557C109.016 110.097 108.283 110.4 107.52 110.4H84.4796C83.7158 110.4 82.9832 110.097 82.4431 109.557C81.903 109.016 81.5996 108.284 81.5996 107.52V84.4801ZM85.4396 94.0801C85.4396 93.7019 85.5141 93.3274 85.6588 92.978C85.8036 92.6286 86.0157 92.3111 86.2831 92.0436C86.5506 91.7762 86.8681 91.5641 87.2175 91.4193C87.5669 91.2746 87.9414 91.2001 88.3196 91.2001C88.6978 91.2001 89.0723 91.2746 89.4217 91.4193C89.7712 91.5641 90.0886 91.7762 90.3561 92.0436C90.6235 92.3111 90.8356 92.6286 90.9804 92.978C91.1251 93.3274 91.1996 93.7019 91.1996 94.0801V97.9201C91.1996 98.2983 91.1251 98.6728 90.9804 99.0222C90.8356 99.3716 90.6235 99.6891 90.3561 99.9566C90.0886 100.224 89.7712 100.436 89.4217 100.581C89.0723 100.726 88.6978 100.8 88.3196 100.8C87.9414 100.8 87.5669 100.726 87.2175 100.581C86.8681 100.436 86.5506 100.224 86.2831 99.9566C86.0157 99.6891 85.8036 99.3716 85.6588 99.0222C85.5141 98.6728 85.4396 98.2983 85.4396 97.9201V94.0801ZM95.0396 93.1201H93.1196V91.2001H98.8796V93.1201H96.9596V100.8H95.0396V93.1201ZM100.8 91.2001H103.68C104.443 91.2001 105.176 91.5035 105.716 92.0436C106.256 92.5837 106.56 93.3163 106.56 94.0801C106.56 94.8439 106.256 95.5765 105.716 96.1166C105.176 96.6567 104.443 96.9601 103.68 96.9601H102.72V100.8H100.8V91.2001Z" fill="white"/>
</g>
<defs>
<clipPath id="clip0_463_1213">
<rect width="28.8" height="28.8" fill="white" transform="translate(81.5996 81.6001)"/>
</clipPath>
</defs>
</svg>
