<svg width="126" height="192" viewBox="0 0 126 192" fill="none" xmlns="http://www.w3.org/2000/svg">
<rect y="132" width="60" height="60" rx="6.00316" fill="#2D4183"/>
<rect x="66" y="132" width="60" height="60" rx="6.00316" fill="#2D4183"/>
<rect x="66" y="66.0002" width="60" height="60" rx="6.00316" fill="#2D4183"/>
<rect x="66" width="60" height="60" rx="6.00316" fill="#2D4183"/>
<path d="M109.2 150H82.8004C82.1639 150 81.5534 150.253 81.1033 150.703C80.6532 151.153 80.4004 151.763 80.4004 152.4V171.6C80.4004 172.237 80.6532 172.847 81.1033 173.297C81.5534 173.747 82.1639 174 82.8004 174H109.2C109.837 174 110.447 173.747 110.897 173.297C111.348 172.847 111.6 172.237 111.6 171.6V152.4C111.6 151.763 111.348 151.153 110.897 150.703C110.447 150.253 109.837 150 109.2 150ZM86.4004 168C86.4004 168.318 86.274 168.623 86.0489 168.849C85.8239 169.074 85.5187 169.2 85.2004 169.2C84.8821 169.2 84.5769 169.074 84.3519 168.849C84.1268 168.623 84.0004 168.318 84.0004 168V156C84.0004 155.682 84.1268 155.377 84.3519 155.151C84.5769 154.926 84.8821 154.8 85.2004 154.8C85.5187 154.8 85.8239 154.926 86.0489 155.151C86.274 155.377 86.4004 155.682 86.4004 156V168ZM97.3954 162.029L95.5414 162.629L96.6874 164.204C96.7801 164.332 96.8466 164.477 96.8833 164.63C96.9199 164.784 96.9259 164.944 96.9009 165.1C96.8759 165.256 96.8204 165.405 96.7375 165.54C96.6547 165.675 96.5462 165.792 96.4181 165.884C96.2901 165.977 96.1451 166.043 95.9913 166.08C95.8375 166.117 95.6781 166.123 95.522 166.098C95.3659 166.073 95.2163 166.017 95.0817 165.934C94.9471 165.852 94.8301 165.743 94.7374 165.615L93.6004 164.042L92.4559 165.618C92.2687 165.877 91.9865 166.05 91.6713 166.101C91.3561 166.151 91.0337 166.074 90.7751 165.887C90.5166 165.7 90.3429 165.418 90.2924 165.103C90.2419 164.787 90.3187 164.465 90.5059 164.207L91.6519 162.632L89.7979 162.032C89.6481 161.982 89.5094 161.904 89.3899 161.801C89.2703 161.698 89.1722 161.573 89.1011 161.432C88.9575 161.148 88.9327 160.818 89.0321 160.516C89.0814 160.366 89.1597 160.227 89.2625 160.108C89.3653 159.988 89.4907 159.89 89.6314 159.819C89.9157 159.675 90.2453 159.651 90.5479 159.75L92.4004 160.35V158.4C92.4004 158.082 92.5268 157.777 92.7519 157.551C92.9769 157.326 93.2821 157.2 93.6004 157.2C93.9187 157.2 94.2239 157.326 94.4489 157.551C94.674 157.777 94.8004 158.082 94.8004 158.4V160.35L96.6529 159.75C96.8027 159.701 96.9607 159.681 97.118 159.693C97.2752 159.705 97.4286 159.748 97.5694 159.819C97.7101 159.89 97.8355 159.988 97.9383 160.108C98.0411 160.227 98.1194 160.366 98.1686 160.516C98.2179 160.666 98.2371 160.824 98.2253 160.981C98.2135 161.138 98.1708 161.291 98.0997 161.432C98.0286 161.573 97.9304 161.698 97.8109 161.801C97.6913 161.904 97.5527 161.982 97.4029 162.032L97.3954 162.029ZM108.195 162.029L106.341 162.629L107.487 164.204C107.58 164.332 107.647 164.477 107.683 164.63C107.72 164.784 107.726 164.944 107.701 165.1C107.676 165.256 107.62 165.405 107.538 165.54C107.455 165.675 107.346 165.792 107.218 165.884C107.09 165.977 106.945 166.043 106.791 166.08C106.638 166.117 106.478 166.123 106.322 166.098C106.166 166.073 106.016 166.017 105.882 165.934C105.747 165.852 105.63 165.743 105.537 165.615L104.4 164.042L103.256 165.618C103.069 165.877 102.786 166.05 102.471 166.101C102.156 166.151 101.834 166.074 101.575 165.887C101.317 165.7 101.143 165.418 101.092 165.103C101.042 164.787 101.119 164.465 101.306 164.207L102.452 162.632L100.598 162.032C100.448 161.982 100.309 161.904 100.19 161.801C100.07 161.698 99.9722 161.573 99.9011 161.432C99.7575 161.148 99.7327 160.818 99.8321 160.516C99.8814 160.366 99.9597 160.227 100.062 160.108C100.165 159.988 100.291 159.89 100.431 159.819C100.716 159.675 101.045 159.651 101.348 159.75L103.2 160.35V158.4C103.2 158.082 103.327 157.777 103.552 157.551C103.777 157.326 104.082 157.2 104.4 157.2C104.719 157.2 105.024 157.326 105.249 157.551C105.474 157.777 105.6 158.082 105.6 158.4V160.35L107.453 159.75C107.603 159.701 107.761 159.681 107.918 159.693C108.075 159.705 108.229 159.748 108.369 159.819C108.51 159.89 108.635 159.988 108.738 160.108C108.841 160.227 108.919 160.366 108.969 160.516C109.018 160.666 109.037 160.824 109.025 160.981C109.013 161.138 108.971 161.291 108.9 161.432C108.829 161.573 108.73 161.698 108.611 161.801C108.491 161.904 108.353 161.982 108.203 162.032L108.195 162.029Z" fill="white"/>
</svg>
