<svg width="126" height="126" viewBox="0 0 126 126" fill="none" xmlns="http://www.w3.org/2000/svg">
<rect y="66.0002" width="60" height="60" rx="6.00316" fill="#55628A"/>
<rect x="66" y="66.0002" width="60" height="60" rx="6.00316" fill="#55628A"/>
<rect width="60" height="60" rx="6.00316" fill="#55628A"/>
<rect x="66" width="60" height="60" rx="6.00316" fill="#55628A"/>
<path d="M30.0161 18.0098C36.6196 18.0098 42.0224 23.4126 42.0224 30.0161C42.0224 36.6196 36.6196 42.0224 30.0161 42.0224C23.4126 42.0224 18.0098 36.6196 18.0098 30.0161C18.0098 23.4126 23.4126 18.0098 30.0161 18.0098ZM33.5219 30.9886C32.2252 30.9886 31.1567 31.8891 30.8685 33.0897C30.2202 32.8136 29.6079 32.8856 29.1636 33.0777C28.8755 31.8771 27.7949 30.9886 26.5102 30.9886C25.0094 30.9886 23.7968 32.2012 23.7968 33.702C23.7968 35.2028 25.0094 36.4155 26.5102 36.4155C27.951 36.4155 29.1036 35.3229 29.2117 33.9181C29.4518 33.7621 30.0641 33.4499 30.8205 33.9301C30.8711 34.6334 31.1937 35.2892 31.7198 35.7585C32.246 36.2279 32.9342 36.4738 33.6386 36.4441C34.3431 36.4144 35.0082 36.1115 35.493 35.5996C35.9778 35.0877 36.2441 34.407 36.2354 33.702C36.2354 32.2012 35.0227 30.9886 33.5219 30.9886ZM26.5102 31.757C27.6148 31.757 28.4553 32.6335 28.4553 33.702C28.4553 34.7706 27.6148 35.6471 26.5102 35.6471C25.4417 35.6471 24.5652 34.7706 24.5652 33.702C24.5652 32.6335 25.4417 31.757 26.5102 31.757ZM33.5219 31.757C34.5905 31.757 35.467 32.6335 35.467 33.702C35.467 34.7706 34.5905 35.6471 33.5219 35.6471C32.4173 35.6471 31.5769 34.7706 31.5769 33.702C31.5769 32.6335 32.4173 31.757 33.5219 31.757ZM37.0158 29.4158H23.0164V30.2202H37.0158V29.4158ZM32.5974 23.8809C32.5157 23.7057 32.3737 23.5657 32.1975 23.4864C32.0212 23.4071 31.8223 23.3937 31.6369 23.4486L30.0161 24.0129L28.3952 23.4486L28.3472 23.4126C28.1583 23.372 27.961 23.4006 27.7914 23.4931C27.6217 23.5857 27.4909 23.736 27.4227 23.9169L25.6458 28.6113H34.3864L32.6095 23.9169L32.5974 23.8809Z" fill="white"/>
</svg>
