<svg width="192" height="126" viewBox="0 0 192 126" fill="none" xmlns="http://www.w3.org/2000/svg">
<rect y="66.0002" width="60" height="60" rx="6.00316" fill="#444A55"/>
<rect x="66" y="66.0002" width="60" height="60" rx="6.00316" fill="#444A55"/>
<rect x="132" y="66.0002" width="60" height="60" rx="6.00316" fill="#444A55"/>
<rect x="132" width="60" height="60" rx="6.00316" fill="#444A55"/>
<path d="M96.0002 109.2C92.8727 108.43 90.2906 106.675 88.2539 103.936C86.2172 101.196 85.1993 98.1552 85.2002 94.812V86.76L96.0002 82.8L106.8 86.76V94.812C106.8 98.156 105.782 101.198 103.745 103.937C101.708 106.677 99.1268 108.431 96.0002 109.2ZM91.9502 101.28H100.05V94.68H98.7002V93.36C98.7002 92.634 98.4356 92.0123 97.9064 91.4949C97.3772 90.9774 96.7418 90.7192 96.0002 90.72C95.2577 90.72 94.6218 90.9788 94.0926 91.4962C93.5634 92.0136 93.2993 92.6349 93.3002 93.36V94.68H91.9502V101.28ZM94.6502 94.68V93.36C94.6502 92.986 94.7798 92.6723 95.039 92.4189C95.2982 92.1654 95.6186 92.0392 96.0002 92.04C96.3827 92.04 96.7035 92.1668 96.9627 92.4202C97.2219 92.6736 97.3511 92.9869 97.3502 93.36V94.68H94.6502Z" fill="white"/>
</svg>
