<svg width="408" height="289" viewBox="0 0 408 289" fill="none" xmlns="http://www.w3.org/2000/svg">
<g filter="url(#filter0_d_498_2274)">
<path d="M406.858 73.959C409.201 73.959 411.089 72.0707 411.089 69.7278V34.7765C411.089 32.4336 409.201 30.5452 406.858 30.5452H406.666V16.8724C406.666 7.55326 399.112 0 389.793 0H20.8724C11.5532 0 4 7.55326 4 16.8724V271.742C4 281.062 11.5532 288.615 20.8724 288.615H389.793C399.112 288.615 406.666 281.062 406.666 271.742V180.299H406.858C409.201 180.299 411.089 178.411 411.089 176.068V141.117C411.089 138.774 409.201 136.885 406.858 136.885H406.666V132.462H406.858C409.201 132.462 411.089 130.573 411.089 128.231V93.2793C411.089 90.9363 409.201 89.048 406.858 89.048H406.666V73.959H406.858Z" fill="black"/>
<path d="M391.63 11.2426H19.0547V277.355H391.63V11.2426Z" fill="#5379F6" stroke="black" stroke-width="1.74844" stroke-miterlimit="10"/>
<path d="M309.362 60H101V227.343H309.362V60Z" fill="#E7EFFF" stroke="black" stroke-width="1.74844" stroke-miterlimit="10"/>
<path d="M182.99 156.805V157.854H180.437V161.578H183.584V162.644H179.283V152.171H183.584V153.238H180.437V156.805H182.99Z" fill="#5379F6"/>
<path d="M185.683 162.644H184.634V152.171H186.12L188.55 159.742V152.171H189.582V162.644H188.375L185.7 154.182V162.644H185.683Z" fill="#5379F6"/>
<path d="M192.274 162.644V153.238H190.351V152.171H195.369V153.238H193.445V162.644H192.291H192.274Z" fill="#5379F6"/>
<path d="M199.88 156.805V157.854H197.327V161.578H200.474V162.644H196.173V152.171H200.474V153.238H197.327V156.805H199.88Z" fill="#5379F6"/>
<path d="M203.866 152.171C205.51 152.171 206.192 153.011 206.192 154.567V155.423C206.192 156.577 205.79 157.294 204.898 157.574C205.86 157.854 206.209 158.641 206.209 159.76V161.386C206.209 161.858 206.209 162.277 206.419 162.644H205.23C205.09 162.347 205.038 162.067 205.038 161.368V159.725C205.038 158.536 204.478 158.168 203.517 158.168H202.695V162.644H201.523V152.171H203.849H203.866ZM203.569 157.102C204.496 157.102 205.055 156.805 205.055 155.668V154.672C205.055 153.727 204.706 153.238 203.849 153.238H202.712V157.119H203.587L203.569 157.102Z" fill="#5379F6"/>
<path d="M214.357 154.706V155.651H213.255V154.654C213.255 153.71 212.888 153.15 212.031 153.15C211.174 153.15 210.807 153.71 210.807 154.654V160.179C210.807 161.123 211.192 161.683 212.031 161.683C212.87 161.683 213.255 161.106 213.255 160.179V158.815H214.357V160.109C214.357 161.7 213.605 162.749 211.996 162.749C210.388 162.749 209.653 161.7 209.653 160.109V154.689C209.653 153.098 210.405 152.049 211.996 152.049C213.587 152.049 214.357 153.098 214.357 154.689V154.706Z" fill="#5379F6"/>
<path d="M215.336 154.706C215.336 153.098 216.123 152.066 217.731 152.066C219.34 152.066 220.144 153.098 220.144 154.706V160.127C220.144 161.718 219.357 162.767 217.731 162.767C216.105 162.767 215.336 161.718 215.336 160.127V154.706ZM216.49 160.179C216.49 161.141 216.892 161.683 217.731 161.683C218.571 161.683 218.973 161.123 218.973 160.179V154.654C218.973 153.71 218.588 153.15 217.731 153.15C216.875 153.15 216.49 153.71 216.49 154.654V160.179Z" fill="#5379F6"/>
<path d="M223.694 152.171C225.32 152.171 226.072 153.15 226.072 154.776V160.057C226.072 161.665 225.32 162.644 223.694 162.644H221.246V152.171H223.694ZM223.694 161.578C224.533 161.578 224.935 161.053 224.935 160.092V154.707C224.935 153.745 224.533 153.22 223.676 153.22H222.418V161.56H223.694V161.578Z" fill="#5379F6"/>
<path d="M230.88 156.805V157.854H228.327V161.578H231.474V162.644H227.173V152.171H231.474V153.238H228.327V156.805H230.88Z" fill="#5379F6"/>
<path d="M234.432 171.541H217.839V191.385H234.432V171.541Z" fill="white" stroke="black" stroke-width="1.74844" stroke-miterlimit="10"/>
<path d="M213.31 171.541H196.718V191.385H213.31V171.541Z" fill="white" stroke="black" stroke-width="1.74844" stroke-miterlimit="10"/>
<path d="M192.172 171.541H175.579V191.385H192.172V171.541Z" fill="white" stroke="black" stroke-width="1.74844" stroke-miterlimit="10"/>
<path d="M171.051 171.541H155.21V191.385H171.051V171.541Z" fill="white" stroke="black" stroke-width="1.74844" stroke-miterlimit="10"/>
<path d="M256.182 171.541H238.978V191.385H256.182V171.541Z" fill="white" stroke="black" stroke-width="1.74844" stroke-miterlimit="10"/>
<path d="M217.154 110.56V106.748C217.154 100.559 212.119 95.5405 205.947 95.5405C199.775 95.5405 194.739 100.576 194.739 106.748V110.56H194.529V131.646H217.381V110.56H217.172H217.154ZM206.611 122.152V125.981H204.443V122.152C203.394 121.715 202.642 120.683 202.642 119.477C202.642 117.886 203.936 116.592 205.527 116.592C207.118 116.592 208.412 117.886 208.412 119.477C208.412 120.683 207.66 121.715 206.611 122.152ZM212.888 110.56H198.988V106.748C198.988 102.919 202.1 99.8067 205.929 99.8067C209.758 99.8067 212.87 102.919 212.87 106.748V110.56H212.888Z" fill="black"/>
</g>
<defs>
<filter id="filter0_d_498_2274" x="0" y="0" width="415.089" height="296.615" filterUnits="userSpaceOnUse" color-interpolation-filters="sRGB">
<feFlood flood-opacity="0" result="BackgroundImageFix"/>
<feColorMatrix in="SourceAlpha" type="matrix" values="0 0 0 0 0 0 0 0 0 0 0 0 0 0 0 0 0 0 127 0" result="hardAlpha"/>
<feOffset dy="4"/>
<feGaussianBlur stdDeviation="2"/>
<feComposite in2="hardAlpha" operator="out"/>
<feColorMatrix type="matrix" values="0 0 0 0 0 0 0 0 0 0 0 0 0 0 0 0 0 0 0.25 0"/>
<feBlend mode="normal" in2="BackgroundImageFix" result="effect1_dropShadow_498_2274"/>
<feBlend mode="normal" in="SourceGraphic" in2="effect1_dropShadow_498_2274" result="shape"/>
</filter>
</defs>
</svg>
