<svg width="524" height="511" viewBox="0 0 524 511" fill="none" xmlns="http://www.w3.org/2000/svg">
<path d="M153.429 41.8268C143.443 41.8268 143.524 35.033 143.524 33.396V22.3457C143.524 19.8492 147.249 20.0539 149.459 20.0539H156.621C158.831 20.0539 162.555 22.1003 162.555 24.5968V33.396C162.555 34.9921 161.491 41.8268 153.429 41.8268Z" fill="#5379F6"/>
<path d="M128.669 35.2383L153.225 67.7748L177.453 35.2383C177.453 35.2383 175.489 25.0066 160.223 20.9958C144.958 16.985 131.697 27.012 131.697 27.012L128.628 35.2383H128.669Z" fill="black"/>
<path d="M160.182 42.7276C152.775 50.1353 146.963 43.8736 140.497 35.3609C134.071 26.8073 134.849 13.8745 142.215 6.46677C149.623 -0.940934 160.796 -0.0815167 167.221 8.47213C173.647 17.0258 167.508 35.32 160.141 42.7686L160.182 42.7276Z" fill="white"/>
<path d="M153.263 67.7746C153.263 67.7746 150.439 55.7422 142.376 43.9144C138.284 37.9392 132.554 30.0403 132.554 30.0403L128.707 35.2789L153.263 67.8155V67.7746Z" fill="black"/>
<path d="M153.061 67.7746C153.061 67.7746 155.884 55.7422 163.947 43.9144C168.04 37.9392 173.769 30.0403 173.769 30.0403L177.616 35.2789L153.061 67.8155V67.7746Z" fill="black"/>
<path d="M168.284 7.08034C163.25 2.45564 158.871 0 153.264 0C147.002 0 142.91 2.45564 137.876 7.08034C127.808 16.3297 128.708 35.1969 128.708 35.1969C128.708 35.1969 134.97 30.9405 138.121 29.9583C147.289 27.1343 158.912 27.1343 168.08 29.9583C171.231 30.9405 177.656 35.1969 177.656 35.1969C177.656 35.1969 178.352 16.3297 168.284 7.08034Z" fill="black"/>
<path d="M408.728 44.4877L433.284 77.0244L457.513 44.4877C457.513 44.4877 455.549 34.2561 440.283 30.2453C425.017 26.2345 411.757 36.2615 411.757 36.2615L408.688 44.4877H408.728Z" fill="black"/>
<path d="M440.242 52.0172C432.834 59.4658 427.023 53.1632 420.556 44.6505C414.131 36.0968 414.908 23.164 422.275 15.7563C429.683 8.34862 440.856 9.20803 447.281 17.7617C453.707 26.3153 447.568 44.6095 440.201 52.0582L440.242 52.0172Z" fill="white"/>
<path d="M433.324 77.0243C433.324 77.0243 430.5 64.992 422.437 53.1642C418.345 47.1889 412.615 39.29 412.615 39.29L408.768 44.5286L433.324 77.0653V77.0243Z" fill="black"/>
<path d="M433.12 77.0243C433.12 77.0243 435.944 64.992 444.006 53.1642C448.099 47.1889 453.829 39.29 453.829 39.29L457.676 44.5286L433.12 77.0653V77.0243Z" fill="black"/>
<path d="M448.344 16.3705C443.31 11.7458 438.931 9.29028 433.324 9.29028C427.062 9.29028 422.969 11.7458 417.935 16.3705C407.867 25.6199 408.768 44.487 408.768 44.487C408.768 44.487 415.03 40.2307 418.181 39.2484C427.348 36.4245 438.972 36.4245 448.139 39.2484C451.29 40.2307 457.716 44.487 457.716 44.487C457.716 44.487 458.412 25.6199 448.344 16.3705Z" fill="black"/>
<path d="M459.681 140.46H403.611L405.126 260.252H415.848C415.848 260.252 423.952 187.771 427.021 154.457H434.429L436.68 260.252H447.403C447.403 260.252 460.049 166.285 459.722 148.195C460.008 146.844 459.763 140.46 459.763 140.46H459.681Z" fill="white"/>
<path d="M459.681 140.46H403.612L411.347 111.812L396.614 65.9739C396 59.9167 401.852 54.6782 409.342 54.6782H453.992C461.482 54.6782 467.334 59.8758 466.721 65.9739L450.8 111.812L459.722 140.46H459.681Z" fill="white"/>
<path d="M404.963 260.088H415.849V268.437H393.749C392.275 268.437 391.784 265.163 393.053 264.467L404.922 260.088H404.963Z" fill="white"/>
<path d="M436.927 260.088H447.814V268.437H425.714C424.24 268.437 423.749 265.163 425.018 264.467L436.886 260.088H436.927Z" fill="white"/>
<path d="M458.699 55.7014C463.242 56.1925 469.995 64.4597 479.94 82.0172C489.885 99.5337 492.177 106.368 491.973 108.906C491.809 111.443 454.238 126.095 454.238 126.095L455.18 115.577L475.684 104.936L457.635 73.0542L458.658 55.7014H458.699Z" fill="black"/>
<path d="M378.444 143.366H389.248C389.248 143.366 388.634 152.533 382.905 153.475C375.742 154.621 378.444 143.366 378.444 143.366Z" fill="#98B9FF"/>
<path d="M403.08 55.7014C398.537 56.1925 391.784 64.4597 381.839 82.0172C371.894 99.5337 371.035 102.931 371.198 105.468C371.362 108.006 378.442 143.407 378.442 143.407H389.247L386.055 104.977L404.103 73.0952L403.08 55.7423V55.7014Z" fill="white"/>
<path d="M459.681 140.46H403.612L411.347 111.811L396.614 65.9736C396 59.9165 401.852 54.678 409.342 54.678H453.992C461.482 54.678 467.334 59.8756 466.721 65.9736L450.8 111.811L459.722 140.46H459.681Z" fill="black"/>
<mask id="mask0_528_3157" style="mask-type:luminance" maskUnits="userSpaceOnUse" x="396" y="54" width="71" height="87">
<path d="M459.681 140.46H403.612L411.347 111.811L396.614 65.9736C396 59.9165 401.852 54.678 409.342 54.678H453.992C461.482 54.678 467.334 59.8756 466.721 65.9736L450.8 111.811L459.722 140.46H459.681Z" fill="white"/>
</mask>
<g mask="url(#mask0_528_3157)">
<path d="M452.764 45.4696C452.764 57.9112 442.696 67.9792 430.255 67.9792C417.813 67.9792 407.745 57.9112 407.745 45.4696C407.745 33.0279 417.813 22.96 430.255 22.96C442.696 22.96 452.764 33.0279 452.764 45.4696Z" fill="#98B9FF"/>
</g>
<path d="M459.681 140.46H403.611L382.125 237.906H422.601L430.664 176.721V237.906H470.649L459.681 140.46Z" fill="black"/>
<path d="M490.786 371.121L433.202 371.04L450.596 291.151C451.947 284.807 462.465 274.944 468.686 276.827C468.686 276.827 496.557 280.469 505.069 284.071C517.798 289.473 519.803 297.658 517.429 303.715L490.745 371.162L490.786 371.121Z" fill="black"/>
<path d="M124.986 120.079H181.342L179.827 240.444H169.064C169.064 240.444 160.919 179.873 157.85 146.395H150.401L148.15 240.444H137.386C137.386 240.444 124.699 146.026 125.027 127.814C124.74 126.464 124.986 120.038 124.986 120.038V120.079Z" fill="#5379F6"/>
<path d="M179.992 240.321H169.064V248.711H191.247C192.72 248.711 193.211 245.437 191.943 244.7L179.992 240.321Z" fill="black"/>
<path d="M147.82 240.321H136.893V248.711H159.075C160.548 248.711 161.039 245.437 159.77 244.7L147.82 240.321Z" fill="black"/>
<path d="M490.786 371.121L433.202 371.04V501.227H444.621C444.621 501.227 453.256 437.013 456.53 401.53H464.429L463.897 452.033L510.267 492.632L516.447 482.196L485.629 442.293C485.629 442.293 491.441 390.684 491.277 381.803C491.563 380.371 490.745 371.121 490.745 371.121H490.786Z" fill="black"/>
<path d="M433.037 501.022H444.62V509.903H421.087C419.532 509.903 419 506.425 420.35 505.647L432.996 500.981L433.037 501.022Z" fill="black"/>
<path d="M510.059 491.856L516.485 482.197L523.892 487.108L510.878 506.712C510.018 508.022 506.826 506.507 506.949 504.952L510.059 491.815V491.856Z" fill="black"/>
<path d="M26.8415 368.667L78.2862 378.898L76.731 502.169H65.7217C65.7217 502.169 57.3727 440.165 54.2214 405.91H46.5681L44.2762 502.169H33.267C33.267 502.169 22.2168 406.851 22.5443 388.23C22.2578 386.838 26.8005 368.667 26.8005 368.667H26.8415Z" fill="black"/>
<path d="M21.7676 380.821H83.7305L73.826 340.918L71.9846 293.852C71.4934 287.591 64.6177 283.375 57.0463 284.767L18.8617 289.064C11.2903 290.415 -0.70107 300.687 1.05877 306.703L25.5737 350.208L21.8086 380.821H21.7676Z" fill="black"/>
<path d="M76.8925 502.005H65.6787V510.599H88.3929C89.9072 510.599 90.3985 507.244 89.0888 506.507L76.8518 502.005H76.8925Z" fill="black"/>
<path d="M43.9922 502.005H32.7783V510.599H55.4925C57.0068 510.599 57.4978 507.244 56.1882 506.507L43.9512 502.005H43.9922Z" fill="black"/>
<path d="M238.553 43.791H80.2902C75.4079 43.791 71.4502 47.7489 71.4502 52.6312V210.894C71.4502 215.776 75.4079 219.734 80.2902 219.734H238.553C243.435 219.734 247.393 215.776 247.393 210.894V52.6312C247.393 47.7489 243.435 43.791 238.553 43.791Z" fill="black"/>
<path d="M443.393 43.791H285.13C280.248 43.791 276.29 47.7489 276.29 52.6312V210.894C276.29 215.776 280.248 219.734 285.13 219.734H443.393C448.275 219.734 452.233 215.776 452.233 210.894V52.6312C452.233 47.7489 448.275 43.791 443.393 43.791Z" fill="#5379F6"/>
<path d="M238.553 246.418H80.2902C75.4079 246.418 71.4502 250.376 71.4502 255.259V413.522C71.4502 418.404 75.4079 422.362 80.2902 422.362H238.553C243.435 422.362 247.393 418.404 247.393 413.522V255.259C247.393 250.376 243.435 246.418 238.553 246.418Z" fill="#5379F6"/>
<path d="M443.393 246.418H285.13C280.248 246.418 276.29 250.376 276.29 255.259V413.522C276.29 418.404 280.248 422.362 285.13 422.362H443.393C448.275 422.362 452.233 418.404 452.233 413.522V255.259C452.233 250.376 448.275 246.418 443.393 246.418Z" fill="#5379F6"/>
<path d="M453.913 124.949L456.205 114.39C456.205 114.39 447.119 113.039 444.991 118.442C442.33 125.194 453.913 124.949 453.913 124.949Z" fill="white"/>
<path d="M72.0264 360.973L78.4519 352.46C78.4519 352.46 85.696 357.494 83.2405 362.896C80.171 369.69 72.0264 360.973 72.0264 360.973Z" fill="white"/>
<path d="M2.89975 304.371C1.26268 308.791 4.98699 317.918 17.4696 334.452C29.9522 350.987 32.8169 353.156 35.2725 354.056C37.7281 354.916 74.0708 362.692 74.0708 362.692L78.491 352.501L40.8795 339.855C40.8795 339.855 29.0927 313.007 17.9607 301.916C15.014 298.969 5.6009 297.25 2.89975 304.412V304.371Z" fill="#2D54D1"/>
<path d="M71.2065 83.8995C66.9502 83.1218 64.5353 92.0029 66.9091 96.7913C69.2828 101.58 74.5625 101.58 75.5038 94.4176C76.4451 87.2555 76.4451 84.8817 71.2065 83.8995Z" fill="white"/>
<path d="M247.516 83.8995C251.773 83.1218 254.188 92.0029 251.814 96.7913C249.44 101.58 244.161 101.58 243.219 94.4176C242.278 87.2555 242.278 84.8817 247.516 83.8995Z" fill="white"/>
<path d="M161.776 159.737C166.523 159.573 179.006 150.896 180.97 137.513C181.789 131.988 190.874 128.591 192.266 120.447C195.581 100.966 182.444 74.3228 155.432 75.346C132.104 76.2464 120.399 103.831 125.269 122.985C126.783 128.919 135.665 133.544 137.22 138.7C142.909 157.363 153.304 160.064 158.665 159.859L161.776 159.737Z" fill="white"/>
<path d="M133.987 103.339L149.499 118.277C151.422 120.16 150.972 123.393 148.557 124.58C145.938 125.849 142.377 126.667 138.817 124.826C127.03 118.768 134.028 103.339 134.028 103.339H133.987Z" fill="black"/>
<path d="M181.214 101.498L166.89 117.582C165.089 119.588 165.826 122.821 168.322 123.803C171.064 124.867 174.625 125.399 178.063 123.312C189.359 116.395 181.214 101.539 181.214 101.539V101.498Z" fill="black"/>
<path d="M154.243 131.211L156.29 128.264C156.74 127.609 157.804 127.855 157.886 128.673L158.336 132.234C158.418 132.848 157.845 133.339 157.272 133.175L154.775 132.561C154.162 132.398 153.916 131.702 154.284 131.211H154.243Z" fill="black"/>
<path d="M142.007 134.853L143.93 134.731C145.322 134.649 146.059 136.327 145.076 137.309L143.726 138.66C143.276 139.11 142.539 138.946 142.293 138.414L141.229 136.081C140.984 135.508 141.352 134.894 141.966 134.853H142.007Z" fill="black"/>
<path d="M144.628 139.437L146.305 138.496C147.533 137.841 148.925 139.028 148.475 140.338L147.82 142.138C147.615 142.711 146.879 142.916 146.428 142.507L144.464 140.829C144.014 140.419 144.055 139.683 144.587 139.396L144.628 139.437Z" fill="black"/>
<path d="M148.925 142.752L150.234 141.32C151.176 140.297 152.894 140.952 152.853 142.343V144.267C152.853 144.881 152.199 145.29 151.626 145.085L149.252 144.144C148.679 143.898 148.515 143.203 148.925 142.752Z" fill="black"/>
<path d="M153.918 144.307L154.941 142.67C155.678 141.483 157.479 141.852 157.724 143.243L158.052 145.126C158.134 145.74 157.602 146.272 157.029 146.149L154.532 145.658C153.918 145.535 153.632 144.839 153.959 144.307H153.918Z" fill="black"/>
<path d="M175.362 133.585H173.438C172.047 133.626 171.433 135.386 172.456 136.286L173.929 137.555C174.38 137.964 175.116 137.759 175.321 137.187L176.18 134.772C176.385 134.199 175.976 133.585 175.321 133.585H175.362Z" fill="black"/>
<path d="M173.07 138.373L171.31 137.595C170.041 137.022 168.732 138.291 169.305 139.6L170.082 141.36C170.328 141.933 171.065 142.056 171.515 141.647L173.356 139.846C173.806 139.396 173.684 138.659 173.111 138.414L173.07 138.373Z" fill="black"/>
<path d="M169.06 141.975L167.668 140.666C166.645 139.724 165.008 140.502 165.131 141.893L165.294 143.817C165.335 144.431 165.99 144.799 166.563 144.513L168.855 143.408C169.428 143.121 169.51 142.385 169.06 141.975Z" fill="black"/>
<path d="M164.19 143.939L163.044 142.384C162.225 141.279 160.424 141.77 160.301 143.161L160.138 145.085C160.097 145.699 160.67 146.19 161.243 146.026L163.698 145.33C164.271 145.167 164.517 144.471 164.149 143.98L164.19 143.939Z" fill="black"/>
<path d="M163.742 130.884L161.45 128.101C160.959 127.487 159.936 127.814 159.895 128.633L159.731 132.234C159.731 132.848 160.304 133.298 160.877 133.094L163.333 132.275C163.906 132.07 164.111 131.375 163.742 130.884Z" fill="black"/>
<path d="M194.111 161.15L124.442 179.765L126.069 185.854L195.738 167.239L194.111 161.15Z" fill="white"/>
<path d="M125.838 160.343L124.061 166.39L193.246 186.726L195.024 180.68L125.838 160.343Z" fill="white"/>
<path d="M127.194 165.998C127.235 167.962 125.68 169.599 123.715 169.681C121.751 169.722 120.114 168.167 120.032 166.203C119.991 164.238 121.546 162.601 123.511 162.519C125.475 162.437 127.112 164.033 127.194 165.998Z" fill="white"/>
<path d="M128.709 159.573C128.75 161.537 127.194 163.174 125.23 163.256C123.265 163.297 121.629 161.742 121.547 159.777C121.506 157.813 123.061 156.176 125.025 156.094C126.99 156.053 128.627 157.608 128.709 159.573Z" fill="white"/>
<path d="M128.217 184.948C129.444 186.503 129.158 188.754 127.603 189.941C126.047 191.168 123.796 190.882 122.61 189.327C121.382 187.772 121.668 185.521 123.223 184.334C124.779 183.106 127.03 183.392 128.217 184.948Z" fill="white"/>
<path d="M125.638 178.85C126.866 180.405 126.58 182.656 125.024 183.843C123.469 185.071 121.218 184.784 120.031 183.229C118.804 181.674 119.09 179.423 120.645 178.236C122.2 177.008 124.452 177.294 125.638 178.85Z" fill="white"/>
<path d="M190.958 166.202C190.917 168.167 192.472 169.804 194.436 169.845C196.401 169.886 198.038 168.331 198.079 166.366C198.12 164.402 196.565 162.765 194.6 162.724C192.636 162.683 190.999 164.238 190.958 166.202Z" fill="white"/>
<path d="M189.403 159.737C189.362 161.701 190.917 163.338 192.882 163.379C194.846 163.42 196.483 161.865 196.524 159.901C196.565 157.936 195.01 156.299 193.045 156.258C191.081 156.217 189.444 157.772 189.403 159.737Z" fill="white"/>
<path d="M189.973 185.151C188.786 186.707 189.073 188.958 190.628 190.144C192.183 191.331 194.434 191.045 195.621 189.49C196.808 187.934 196.522 185.684 194.966 184.497C193.411 183.31 191.16 183.596 189.973 185.151Z" fill="white"/>
<path d="M192.512 179.013C191.325 180.568 191.612 182.819 193.167 184.005C194.722 185.192 196.973 184.906 198.16 183.351C199.347 181.796 199.061 179.545 197.505 178.358C195.95 177.171 193.699 177.457 192.512 179.013Z" fill="white"/>
<path d="M335.714 92.0845L327.038 93.2304L313.286 117.295L317.133 148.727L312.918 166.08L331.744 172.996L357.446 124.416L335.714 92.0845Z" fill="#55628A"/>
<path d="M332.194 100.148L320.734 85.4959L330.802 77.3105L342.998 93.5584L332.194 100.148Z" fill="black"/>
<path d="M349.302 92.7809L347.092 74.6913L359.82 72.3176L362.767 92.4534L349.302 92.7809Z" fill="black"/>
<path d="M368.211 93.5176L374.268 76.3284L386.751 79.8891L380.448 99.1655L368.211 93.5176Z" fill="black"/>
<path d="M385.77 98.7966L399.644 86.9688L408.647 96.3L393.505 109.847L385.77 98.7966Z" fill="black"/>
<path d="M402.055 114.349L418.057 105.59L424.933 116.6L407.334 126.708L402.055 114.349Z" fill="black"/>
<path d="M411.06 136.654L428.453 131.128L433.119 143.243L413.884 149.832L411.06 136.654Z" fill="black"/>
<path d="M334.486 127.322H329.247C329.247 124.417 331.58 122.084 334.445 122.084H334.486V127.322Z" fill="#5379F6"/>
<mask id="mask1_528_3157" style="mask-type:luminance" maskUnits="userSpaceOnUse" x="312" y="92" width="46" height="81">
<path d="M335.712 92.085L327.036 93.2309L313.284 117.296L317.131 148.727L312.916 166.08L331.742 172.997L357.444 124.417L335.712 92.085Z" fill="white"/>
</mask>
<g mask="url(#mask1_528_3157)">
<path d="M311.436 146.986L309.339 152.929L357.889 170.064L359.987 164.121L311.436 146.986Z" fill="white"/>
</g>
<path d="M317.34 167.799L310.955 165.63C310.955 165.63 311.487 162.642 313.82 162.029C316.889 161.21 319.14 162.479 319.14 162.479L317.299 167.84L317.34 167.799Z" fill="#55628A"/>
<mask id="mask2_528_3157" style="mask-type:luminance" maskUnits="userSpaceOnUse" x="280" y="35" width="168" height="167">
<path d="M447.034 118.523C447.034 164.565 409.709 201.89 363.666 201.89C317.624 201.89 280.299 164.565 280.299 118.523C280.299 72.4805 317.624 35.1555 363.666 35.1555C409.709 35.1555 447.034 72.4805 447.034 118.523Z" fill="white"/>
</mask>
<g mask="url(#mask2_528_3157)">
<path d="M430.048 217.033C430.048 217.033 421.863 134.526 402.259 109.847C375.329 75.9596 327.036 93.2306 327.036 93.2306L353.884 131.129H362.765V236.637L430.089 216.993L430.048 217.033Z" fill="black"/>
</g>
<path d="M343.981 149.832L357.446 140.501V131.128L327.038 93.2305L343.981 149.832Z" fill="#55628A"/>
<path d="M366.205 367.192C372.549 367.192 388.346 354.423 393.749 333.264C399.192 312.105 387.487 291.887 363.422 291.887C342.672 291.887 330.435 312.105 335.878 333.264C341.322 354.423 357.078 367.192 363.422 367.192H366.205Z" fill="#2D4183"/>
<path d="M343.406 316.034L356.707 329.826C358.385 331.545 357.853 334.451 355.643 335.392C353.27 336.416 350.077 337.03 346.967 335.27C336.694 329.499 343.447 315.993 343.447 315.993L343.406 316.034Z" fill="#5379F6"/>
<path d="M385.48 316.034L372.179 329.826C370.501 331.545 371.033 334.451 373.243 335.392C375.617 336.416 378.809 337.03 381.92 335.27C392.192 329.499 385.439 315.993 385.439 315.993L385.48 316.034Z" fill="#5379F6"/>
<path d="M360.475 341.573L362.398 339.035C362.849 338.462 363.749 338.708 363.79 339.445L364.036 342.637C364.077 343.169 363.585 343.619 363.053 343.455L360.843 342.801C360.311 342.637 360.107 342.023 360.434 341.573H360.475Z" fill="#5379F6"/>
<path d="M349.464 344.396H351.183C352.411 344.314 353.024 345.87 352.124 346.688L350.855 347.875C350.446 348.243 349.791 348.12 349.587 347.588L348.727 345.46C348.523 344.969 348.891 344.396 349.423 344.396H349.464Z" fill="#5379F6"/>
<path d="M351.634 348.571L353.148 347.793C354.253 347.22 355.481 348.325 355.031 349.512L354.417 351.108C354.212 351.599 353.557 351.763 353.148 351.395L351.47 349.84C351.061 349.471 351.143 348.816 351.634 348.571Z" fill="#5379F6"/>
<path d="M355.357 351.641L356.543 350.413C357.403 349.512 358.917 350.167 358.835 351.436L358.754 353.155C358.754 353.687 358.181 354.055 357.649 353.851L355.561 352.95C355.07 352.746 354.947 352.091 355.316 351.682L355.357 351.641Z" fill="#5379F6"/>
<path d="M359.738 353.196L360.72 351.804C361.416 350.781 363.012 351.19 363.175 352.418L363.38 354.137C363.462 354.669 362.971 355.119 362.439 354.997L360.229 354.465C359.697 354.342 359.451 353.728 359.779 353.278L359.738 353.196Z" fill="#5379F6"/>
<path d="M379.177 344.396H377.458C376.23 344.314 375.617 345.87 376.517 346.688L377.786 347.875C378.195 348.243 378.85 348.12 379.054 347.588L379.914 345.46C380.119 344.969 379.75 344.396 379.218 344.396H379.177Z" fill="#5379F6"/>
<path d="M377.007 348.571L375.493 347.793C374.388 347.22 373.16 348.325 373.61 349.512L374.224 351.108C374.429 351.599 375.084 351.763 375.493 351.395L377.171 349.84C377.58 349.471 377.498 348.816 377.007 348.571Z" fill="#5379F6"/>
<path d="M373.283 351.641L372.096 350.413C371.236 349.512 369.722 350.167 369.804 351.436L369.886 353.155C369.886 353.687 370.459 354.055 370.991 353.851L373.078 352.95C373.569 352.746 373.692 352.091 373.324 351.682L373.283 351.641Z" fill="#5379F6"/>
<path d="M368.903 353.196L367.921 351.804C367.226 350.781 365.629 351.19 365.466 352.418L365.261 354.137C365.179 354.669 365.67 355.119 366.202 354.997L368.412 354.465C368.944 354.342 369.19 353.728 368.862 353.278L368.903 353.196Z" fill="#5379F6"/>
<path d="M368.943 341.573L367.019 339.035C366.569 338.462 365.669 338.708 365.628 339.445L365.382 342.637C365.341 343.169 365.832 343.619 366.364 343.455L368.574 342.801C369.106 342.637 369.311 342.023 368.984 341.573H368.943Z" fill="#5379F6"/>
<path d="M350.2 298.723C347.048 292.297 342.997 284.767 341.36 282.679C338.004 282.352 324.702 282.393 312.834 282.679L312.711 276.09C341.523 275.476 343.488 276.295 344.224 276.622C345.247 277.072 347.376 277.973 356.134 295.858L350.241 298.763L350.2 298.723Z" fill="#2D4183"/>
<path d="M299.656 318.94L296.587 313.129L324.417 298.477L344.103 306.253L341.688 312.351L324.785 305.68L299.656 318.94Z" fill="#2D4183"/>
<path d="M296.178 353.441L291.39 348.898L314.8 324.138L338.742 327.248L337.923 333.755L317.296 331.095L296.178 353.441Z" fill="#2D4183"/>
<path d="M321.837 390.153L315.329 389.334L320.158 349.267L346.106 343.005L347.62 349.39L326.134 354.588L321.837 390.153Z" fill="#2D4183"/>
<path d="M347.46 279.61C347.46 282.106 345.413 284.153 342.917 284.153C340.42 284.153 338.374 282.106 338.374 279.61C338.374 277.113 340.42 275.067 342.917 275.067C345.413 275.067 347.46 277.113 347.46 279.61Z" fill="#2D4183"/>
<path d="M329.616 302.078C329.616 304.575 327.57 306.621 325.073 306.621C322.577 306.621 320.53 304.575 320.53 302.078C320.53 299.582 322.577 297.535 325.073 297.535C327.57 297.535 329.616 299.582 329.616 302.078Z" fill="#2D4183"/>
<path d="M320.61 327.617C320.61 330.113 318.564 332.159 316.067 332.159C313.571 332.159 311.524 330.113 311.524 327.617C311.524 325.12 313.571 323.074 316.067 323.074C318.564 323.074 320.61 325.12 320.61 327.617Z" fill="#2D4183"/>
<path d="M327.692 351.927C327.692 354.423 325.646 356.469 323.149 356.469C320.653 356.469 318.606 354.423 318.606 351.927C318.606 349.43 320.653 347.384 323.149 347.384C325.646 347.384 327.692 349.43 327.692 351.927Z" fill="#2D4183"/>
<path d="M317.049 279.487C317.049 281.983 315.002 284.03 312.506 284.03C310.009 284.03 307.963 281.983 307.963 279.487C307.963 276.99 310.009 274.944 312.506 274.944C315.002 274.944 317.049 276.99 317.049 279.487Z" fill="#2D4183"/>
<path d="M302.684 316.034C302.684 318.531 300.638 320.577 298.141 320.577C295.645 320.577 293.599 318.531 293.599 316.034C293.599 313.537 295.645 311.491 298.141 311.491C300.638 311.491 302.684 313.537 302.684 316.034Z" fill="#2D4183"/>
<path d="M299.779 351.927C299.779 354.423 297.733 356.469 295.236 356.469C292.74 356.469 290.693 354.423 290.693 351.927C290.693 349.43 292.74 347.384 295.236 347.384C297.733 347.384 299.779 349.43 299.779 351.927Z" fill="#2D4183"/>
<path d="M323.148 389.743C323.148 392.239 321.102 394.285 318.605 394.285C316.109 394.285 314.062 392.239 314.062 389.743C314.062 387.246 316.109 385.2 318.605 385.2C321.102 385.2 323.148 387.246 323.148 389.743Z" fill="#2D4183"/>
<path d="M381.057 298.723L375.164 295.817C383.922 277.932 386.051 277.032 387.074 276.581C387.811 276.254 389.775 275.435 418.587 276.049L418.464 282.638C406.596 282.393 393.295 282.352 389.939 282.638C388.302 284.726 384.25 292.256 381.098 298.682L381.057 298.723Z" fill="#2D4183"/>
<path d="M431.602 318.94L406.432 305.68L389.53 312.351L387.115 306.253L406.842 298.477L434.672 313.129L431.602 318.94Z" fill="#2D4183"/>
<path d="M435.083 353.441L413.965 331.095L393.338 333.755L392.479 327.248L416.42 324.138L439.871 348.898L435.083 353.441Z" fill="#2D4183"/>
<path d="M409.381 390.153L405.083 354.588L383.597 349.39L385.152 343.005L411.058 349.267L415.929 389.334L409.381 390.153Z" fill="#2D4183"/>
<path d="M383.761 279.61C383.761 282.106 385.807 284.153 388.304 284.153C390.8 284.153 392.846 282.106 392.846 279.61C392.846 277.113 390.8 275.067 388.304 275.067C385.807 275.067 383.761 277.113 383.761 279.61Z" fill="#2D4183"/>
<path d="M401.603 302.078C401.603 304.575 403.649 306.621 406.145 306.621C408.642 306.621 410.688 304.575 410.688 302.078C410.688 299.582 408.642 297.535 406.145 297.535C403.649 297.535 401.603 299.582 401.603 302.078Z" fill="#2D4183"/>
<path d="M410.647 327.617C410.647 330.113 412.694 332.159 415.19 332.159C417.687 332.159 419.733 330.113 419.733 327.617C419.733 325.12 417.687 323.074 415.19 323.074C412.694 323.074 410.647 325.12 410.647 327.617Z" fill="#2D4183"/>
<path d="M403.568 351.927C403.568 354.423 405.615 356.469 408.111 356.469C410.608 356.469 412.654 354.423 412.654 351.927C412.654 349.43 410.608 347.384 408.111 347.384C405.615 347.384 403.568 349.43 403.568 351.927Z" fill="#2D4183"/>
<path d="M414.209 279.487C414.209 281.983 416.255 284.03 418.752 284.03C421.248 284.03 423.295 281.983 423.295 279.487C423.295 276.99 421.248 274.944 418.752 274.944C416.255 274.944 414.209 276.99 414.209 279.487Z" fill="#2D4183"/>
<path d="M428.577 316.034C428.577 318.531 430.623 320.577 433.12 320.577C435.616 320.577 437.663 318.531 437.663 316.034C437.663 313.537 435.616 311.491 433.12 311.491C430.623 311.491 428.577 313.537 428.577 316.034Z" fill="#2D4183"/>
<path d="M431.481 351.927C431.481 354.423 433.528 356.469 436.024 356.469C438.521 356.469 440.567 354.423 440.567 351.927C440.567 349.43 438.521 347.384 436.024 347.384C433.528 347.384 431.481 349.43 431.481 351.927Z" fill="#2D4183"/>
<path d="M408.114 389.743C408.114 392.239 410.161 394.285 412.657 394.285C415.154 394.285 417.2 392.239 417.2 389.743C417.2 387.246 415.154 385.2 412.657 385.2C410.161 385.2 408.114 387.246 408.114 389.743Z" fill="#2D4183"/>
<path d="M441.018 362.036L434.142 352.173C434.142 352.173 425.752 357.534 428.29 363.755C431.482 371.572 441.018 362.077 441.018 362.077V362.036Z" fill="white"/>
<path d="M519.636 301.506C521.314 306.581 518.613 316.403 503.757 334.534C488.9 352.664 485.626 354.997 482.802 355.856C479.978 356.716 438.642 363.878 438.642 363.878L434.141 352.173L477.154 339.568C477.154 339.568 489.76 310.06 502.774 298.027C506.253 294.835 516.935 293.321 519.636 301.506Z" fill="#2D54D1"/>
<path d="M194.396 345.297C194.682 343.783 200.944 308.177 185.515 289.678C179.58 282.557 171.231 278.914 160.754 278.914C150.277 278.914 142.91 281.738 137.344 287.263C129.445 295.203 129.404 305.762 129.404 306.212H134.889C134.889 305.312 135.257 284.398 160.754 284.398C169.512 284.398 176.429 287.345 181.299 293.157C195.091 309.691 189.034 343.946 188.993 344.274L194.396 345.256V345.297Z" fill="#2D4183"/>
<path d="M187.365 375.827C201.462 361.731 201.462 338.875 187.365 324.778C173.268 310.681 150.412 310.681 136.316 324.778C122.219 338.875 122.219 361.731 136.316 375.827C150.412 389.924 173.268 389.924 187.365 375.827Z" fill="#2D4183"/>
<path d="M151.835 335.638C151.835 340.59 155.846 344.56 160.757 344.56C165.668 344.56 169.679 340.549 169.679 335.638C169.679 330.727 165.668 326.716 160.757 326.716C155.846 326.716 151.835 330.727 151.835 335.638Z" fill="#5379F6"/>
<path d="M164.565 338.666H156.707V366.456H164.565V338.666Z" fill="#5379F6"/>
<path d="M17.1826 290.62L46.6907 316.895L63.5525 281.411C63.5525 281.411 59.7462 272.039 44.4806 271.139C29.215 270.197 18.5333 282.271 18.5333 282.271L17.1826 290.661V290.62Z" fill="black"/>
<path d="M48.5765 291.806C42.9696 300.278 36.2168 295.408 28.4817 288.532C20.7466 281.656 19.0277 269.215 24.6756 260.743C30.2825 252.271 41.087 251.002 48.8221 257.919C56.5572 264.795 54.1835 283.375 48.5765 291.847V291.806Z" fill="white"/>
<path d="M46.6957 316.895C46.6957 316.895 41.7026 305.967 31.8393 296.268C26.8463 291.356 19.8886 284.931 19.8886 284.931L17.2285 290.62L46.7364 316.895H46.6957Z" fill="black"/>
<path d="M46.5322 316.935C46.5322 316.935 46.9414 304.943 52.3437 292.174C55.0858 285.708 59.0557 277.113 59.0557 277.113L63.7214 281.329L46.5322 316.894V316.935Z" fill="black"/>
<path d="M49.4764 256.405C43.7876 252.967 39.1629 251.453 33.8425 252.517C27.9081 253.704 24.4703 256.814 20.5823 262.176C12.7653 272.858 17.1853 290.62 17.1853 290.62C17.1853 290.62 22.3012 285.381 25.1251 283.867C33.3104 279.447 44.3604 277.237 53.6098 278.178C56.8021 278.506 63.7188 281.33 63.7188 281.33C63.7188 281.33 60.8131 263.24 49.4764 256.405Z" fill="black"/>
<path d="M461.768 278.587L477.852 312.638L505.886 287.754C505.886 287.754 506.05 278.137 492.995 271.588C479.939 265.081 466.065 271.67 466.065 271.67L461.768 278.546V278.587Z" fill="black"/>
<path d="M488.825 291.356C480.721 296.676 476.628 289.882 472.413 280.961C468.198 272.039 471.349 260.456 479.453 255.136C487.556 249.815 497.501 252.721 501.717 261.684C505.932 270.606 496.928 286.035 488.825 291.356Z" fill="white"/>
<path d="M477.852 312.678C477.852 312.678 477.565 301.26 472.49 289.023C469.953 282.843 466.228 274.616 466.228 274.616L461.768 278.627L477.852 312.678Z" fill="black"/>
<path d="M477.691 312.638C477.691 312.638 482.521 302.284 492.056 293.075C496.886 288.409 503.557 282.352 503.557 282.352L506.053 287.795L477.691 312.597V312.638Z" fill="black"/>
<path d="M502.901 260.62C499.217 255.463 495.698 252.435 490.623 251.371C484.975 250.184 480.8 251.657 475.357 254.89C464.512 261.357 461.729 278.587 461.729 278.587C461.729 278.587 468.195 275.927 471.224 275.64C480.064 274.822 490.582 277.032 498.317 281.288C500.977 282.761 506.011 287.836 506.011 287.836C506.011 287.836 510.226 270.893 502.86 260.62H502.901Z" fill="black"/>
</svg>
