<svg width="279" height="375" viewBox="0 0 279 375" fill="none" xmlns="http://www.w3.org/2000/svg">
<path d="M48.467 181.019L115.641 226.133L210.688 130.535C218.647 120.841 220.795 93.1063 210.467 86.0005L144.89 40.0609C134.562 32.9551 115.118 36.8109 105.01 44.2472C88.0169 56.7512 48.4395 181.019 48.4395 181.019H48.467Z" fill="black"/>
<path d="M134.727 35.6542L138.472 113.57L211.816 88.2588C211.816 88.2588 219.775 69.9711 200 47.1666C180.198 24.362 148.442 25.9319 148.442 25.9319L134.727 35.6542Z" fill="black"/>
<path d="M176.397 81.5386C156.705 85.3118 154.226 69.0898 153.29 48.6538C152.326 28.2454 167.501 8.63563 187.193 4.86241C206.886 1.08919 223.603 14.5847 224.567 34.9931C225.531 55.4015 196.089 77.7654 176.397 81.5111V81.5386Z" fill="white"/>
<path d="M138.472 113.57C138.472 113.57 146.983 91.4537 147.01 64.1048C147.01 50.2513 146.459 31.5504 146.459 31.5504L134.727 35.6541L138.472 113.57Z" fill="#2D4183"/>
<path d="M138.196 113.377C138.196 113.377 155.685 97.4028 181.134 87.3776C194.023 82.3099 211.65 76.0304 211.65 76.0304L212.118 88.4517L138.196 113.377Z" fill="#2D4183"/>
<path d="M227.625 33.919C224.65 21.1672 220.354 12.5466 211.513 6.51497C201.625 -0.232757 192.537 -0.756068 179.565 1.11677C153.703 4.86244 134.727 35.6541 134.727 35.6541C134.727 35.6541 149.186 35.6541 155.218 37.5545C172.734 42.9802 191.132 55.5117 202.562 69.8609C206.5 74.8185 211.816 88.2588 211.816 88.2588C211.816 88.2588 233.574 59.3675 227.625 33.919Z" fill="#2D4183"/>
<path d="M48.4659 181.019L115.64 226.133C115.64 226.133 211.623 290.911 209.172 320.986C206.721 351.062 189.204 374.61 189.204 374.61L154.144 364.144C154.144 364.144 152.684 327.514 144.394 314.431C136.104 301.349 78.8168 256.869 78.8168 256.869L48.4659 344.507L2.69141 314.431L48.4659 180.992V181.019Z" fill="black"/>
<path d="M123.104 37.4167C108.314 37.4167 16.1871 45.8445 2.25099 60.662C-11.6851 75.4794 44.5275 131.224 44.5275 131.224L59.5653 113.404C59.5653 113.404 38.0553 85.0915 37.5595 78.5641C37.1188 72.6977 106.662 85.78 106.662 85.78L123.104 37.4443V37.4167Z" fill="black"/>
<path d="M35.1493 145.355L81.6903 74.6643C83.0534 72.594 85.8383 72.0203 87.9086 73.3834L218.685 159.483C220.755 160.847 221.329 163.631 219.966 165.702L173.425 236.392C172.062 238.463 169.277 239.036 167.206 237.673L36.4303 151.573C34.3599 150.21 33.7863 147.425 35.1493 145.355Z" fill="white"/>
<path d="M89.4858 106.974L83.3975 116.222L110.473 134.047L116.561 124.8L89.4858 106.974Z" fill="#CADDFE"/>
<path d="M127.329 132.743L121.241 141.99L186.48 184.942L192.568 175.694L127.329 132.743Z" fill="#98B9FF"/>
<path d="M75.6138 129.29L69.5254 138.537L96.1407 156.06L102.229 146.813L75.6138 129.29Z" fill="#CADDFE"/>
<path d="M112.701 153.274L106.612 162.522L172.311 205.776L178.399 196.529L112.701 153.274Z" fill="#98B9FF"/>
<path d="M129.797 143.095C131.014 143.095 132 142.108 132 140.891C132 139.674 131.014 138.688 129.797 138.688C128.58 138.688 127.594 139.674 127.594 140.891C127.594 142.108 128.58 143.095 129.797 143.095Z" fill="black"/>
<path d="M136.847 147.501C138.064 147.501 139.05 146.515 139.05 145.298C139.05 144.081 138.064 143.094 136.847 143.094C135.63 143.094 134.644 144.081 134.644 145.298C134.644 146.515 135.63 147.501 136.847 147.501Z" fill="black"/>
<path d="M116.962 161.079C116.962 162.291 115.971 163.282 114.759 163.282C113.547 163.282 112.556 162.291 112.556 161.079C112.556 159.867 113.547 158.876 114.759 158.876C115.971 158.876 116.962 159.867 116.962 161.079Z" fill="black"/>
<path d="M123.104 165.458C123.104 166.67 122.112 167.662 120.901 167.662C119.689 167.662 118.697 166.67 118.697 165.458C118.697 164.246 119.689 163.255 120.901 163.255C122.112 163.255 123.104 164.246 123.104 165.458Z" fill="black"/>
<path d="M127.593 172.068C128.81 172.068 129.796 171.082 129.796 169.865C129.796 168.648 128.81 167.662 127.593 167.662C126.376 167.662 125.39 168.648 125.39 169.865C125.39 171.082 126.376 172.068 127.593 172.068Z" fill="black"/>
<path d="M136.379 174.244C136.379 175.456 135.388 176.447 134.176 176.447C132.964 176.447 131.973 175.456 131.973 174.244C131.973 173.032 132.964 172.041 134.176 172.041C135.388 172.041 136.379 173.032 136.379 174.244Z" fill="black"/>
<path d="M143.733 178.651C143.733 179.863 142.741 180.854 141.529 180.854C140.318 180.854 139.326 179.863 139.326 178.651C139.326 177.439 140.318 176.447 141.529 176.447C142.741 176.447 143.733 177.439 143.733 178.651Z" fill="black"/>
<path d="M143.733 152.238C144.949 152.238 145.936 151.252 145.936 150.035C145.936 148.818 144.949 147.832 143.733 147.832C142.516 147.832 141.529 148.818 141.529 150.035C141.529 151.252 142.516 152.238 143.733 152.238Z" fill="black"/>
<path d="M151.004 157.058C152.221 157.058 153.207 156.072 153.207 154.855C153.207 153.638 152.221 152.651 151.004 152.651C149.787 152.651 148.801 153.638 148.801 154.855C148.801 156.072 149.787 157.058 151.004 157.058Z" fill="black"/>
<path d="M61.5757 107.015C54.0017 103.049 37.5317 122.851 44.5273 131.224C51.5229 139.597 77.0266 115.085 61.5757 107.015Z" fill="#2D4183"/>
<path d="M215.369 92.8032C224.982 104.013 280.588 170.251 278.44 190.494C276.264 210.737 193.722 211.701 193.722 211.701L199.45 189.089C199.45 189.089 236.769 182.534 242.057 178.651C246.795 175.153 198.046 126.514 198.046 126.514L215.369 92.8032Z" fill="black"/>
<path d="M204.765 184.214C212.201 188.401 204.545 212.995 193.721 211.673C182.869 210.351 189.589 175.649 204.765 184.214Z" fill="#2D4183"/>
</svg>
