<svg width="261" height="414" viewBox="0 0 261 414" fill="none" xmlns="http://www.w3.org/2000/svg">
<path d="M27.4316 99.8182C28.2358 102.005 29.0275 104.204 29.8192 106.391C25.2575 112.385 22.0153 134.263 19.4141 143.965C17.7301 150.273 27.3059 178.008 36.379 197.524C43.2153 212.265 49.8379 218.209 60.3185 224.253C71.9301 230.939 83.4662 237.725 92.6902 247.753C105.42 261.576 138.676 396.388 145.5 427H258.5C235.981 378.681 179.249 224.379 175.63 215.997C167.009 196.003 171.923 196.544 169.585 179.415C166.243 155.023 166.067 147.22 159.406 130.732C154.769 119.259 146.89 100.497 135.706 87.4275C133.406 84.7382 127.5 78.7565 124.044 78.4297C120.588 78.1156 112.948 80.0383 112.206 82.4511C108.537 76.7961 104.176 68.1377 96.3345 66.1019C90.5538 64.6064 80.9278 66.9313 78.3265 75.6022C76.4038 71.0657 74.1544 66.7302 69.2031 64.3551C62.5805 61.1758 52.8539 61.515 49.1216 69.8216C41.6822 54.3646 34.3935 38.8197 27.9091 22.9354C24.9183 15.5839 21.1734 0.0390072 10.5043 2.87907C-1.54711 6.09613 1.90872 21.4652 4.69852 29.7591C12.515 53.02 18.9868 76.7458 27.4442 99.7805L27.4316 99.8182Z" fill="white"/>
<path fill-rule="evenodd" clip-rule="evenodd" d="M25.8126 99.8042C20.8415 86.2121 16.5293 72.3136 12.2304 58.4576C9.29552 48.9983 6.36681 39.5588 3.23876 30.25C1.82915 26.0593 0.18759 19.9142 0.498209 14.3297C0.654364 11.5222 1.30885 8.74804 2.83291 6.42508C4.38007 4.0669 6.7507 2.28704 10.107 1.3911L10.108 1.39082C13.1861 0.571459 15.8565 1.07614 18.1136 2.47075C20.311 3.82849 22.0275 5.97186 23.4099 8.2988C24.7991 10.6373 25.918 13.2775 26.8659 15.7493C27.3007 16.883 27.688 17.9477 28.0499 18.9425C28.5037 20.1899 28.9174 21.3274 29.3348 22.3535C35.4361 37.2993 42.255 51.9523 49.2526 66.5388C51.4328 63.5674 54.5054 61.908 57.7839 61.2695C61.879 60.4719 66.3022 61.2543 69.869 62.9665C74.1068 64.9994 76.5248 68.327 78.2972 71.8364C80.0538 68.862 82.6911 66.8395 85.5322 65.6238C89.2881 64.0166 93.4881 63.7748 96.7201 64.6109L96.7213 64.6112C101.1 65.7481 104.409 68.709 107.032 71.9506C108.95 74.3207 110.602 76.9809 112.044 79.3028C112.166 79.4998 112.287 79.6944 112.406 79.8862C112.638 79.718 112.874 79.5675 113.101 79.4333C114.117 78.836 115.373 78.3369 116.658 77.9448C119.196 77.1701 122.183 76.7142 124.183 76.896L124.189 76.8965C125.399 77.0109 126.655 77.5883 127.796 78.2765C128.969 78.9839 130.173 79.9035 131.307 80.8707C133.576 82.8053 135.684 85.033 136.876 86.4265C148.247 99.7138 156.207 118.706 160.834 130.155C166.523 144.236 167.556 152.159 169.735 168.85C170.141 171.965 170.587 175.384 171.111 179.206C171.953 185.377 171.872 189.42 171.804 192.775C171.777 194.124 171.752 195.363 171.791 196.583C171.924 200.828 172.778 205.494 177.044 215.387C177.948 217.48 182.098 228.496 188.17 244.609C194.382 261.093 202.604 282.913 211.416 305.972C228.873 351.653 248.664 402.251 259.896 426.35L260.917 428.54H144.265L143.997 427.335C140.591 412.055 130.577 370.723 119.825 331.488C114.448 311.869 108.893 292.796 103.891 277.773C101.39 270.26 99.0343 263.783 96.9156 258.767C94.7662 253.678 92.943 250.301 91.5572 248.796C82.5161 238.966 71.1828 232.285 59.5499 225.588L59.549 225.587C54.2394 222.525 49.8213 219.439 45.8573 215.201C41.895 210.965 38.4473 205.644 34.9824 198.173C30.4203 188.36 25.7355 176.49 22.3986 166.269C20.7307 161.161 19.3902 156.436 18.5718 152.569C18.1628 150.637 17.8784 148.893 17.7528 147.407C17.6299 145.953 17.646 144.617 17.926 143.568L17.9265 143.566C18.6786 140.761 19.4741 136.977 20.3485 132.817C20.9801 129.812 21.653 126.612 22.3804 123.443C23.2369 119.712 24.1628 116.061 25.1695 112.952C26.0345 110.28 26.9985 107.878 28.1 106.166C28.0238 105.955 27.9477 105.744 27.8715 105.534C27.2457 103.803 26.62 102.073 25.9861 100.35L25.7997 99.8429L25.8126 99.8042ZM29.8191 106.39C26.5886 110.635 24.0199 122.847 21.8719 133.058C20.9868 137.265 20.1731 141.134 19.4139 143.965C17.73 150.273 27.3058 178.008 36.3789 197.524C43.2152 212.264 49.8378 218.208 60.3183 224.253C71.9299 230.938 83.4661 237.725 92.69 247.753C105.42 261.576 138.676 396.388 145.5 427H258.5C258.266 426.498 258.028 425.985 257.787 425.46C240.528 387.931 204.871 293.299 186.67 244.995C180.637 228.983 176.522 218.062 175.63 215.997C170.052 203.06 170.14 198.72 170.264 192.628C170.332 189.305 170.41 185.461 169.585 179.415C169.059 175.572 168.611 172.14 168.203 169.022C166.026 152.348 165.017 144.622 159.406 130.732C154.769 119.259 146.89 100.497 135.706 87.4274C133.406 84.7381 127.5 78.7564 124.044 78.4297C121.216 78.1726 115.588 79.4129 113.228 81.1938C112.704 81.5897 112.341 82.0122 112.206 82.451C111.899 81.9774 111.587 81.4827 111.268 80.9726C111.077 80.6671 110.884 80.356 110.688 80.0407C107.306 74.5958 103.126 67.865 96.3344 66.1018C91.036 64.7311 82.5071 66.5699 79.1178 73.563C78.8093 74.1995 78.5434 74.8788 78.3264 75.6022C78.0361 74.9172 77.7383 74.2368 77.4249 73.5671C75.6628 69.8011 73.4066 66.3715 69.203 64.355C63.0596 61.4057 54.2452 61.4843 50.0224 68.1418C49.693 68.6611 49.3916 69.2204 49.1215 69.8215C48.84 69.2367 48.5587 68.6517 48.2777 68.0666C41.1316 53.1877 34.148 38.2186 27.909 22.9354C27.4882 21.9011 27.0525 20.7047 26.5847 19.4201C23.7274 11.5738 19.6723 0.438492 10.5042 2.879C-1.54724 6.09606 1.9086 21.4651 4.6984 29.7591C7.85326 39.1476 10.7891 48.6118 13.7248 58.0758C18.0626 72.0597 22.4002 86.043 27.444 99.7804L27.4315 99.8181C28.067 101.546 28.6948 103.282 29.3208 105.013C29.487 105.473 29.6531 105.932 29.8191 106.39Z" fill="black"/>
<path fill-rule="evenodd" clip-rule="evenodd" d="M32.8066 113.403C33.2003 113.242 33.6498 113.431 33.8106 113.825L52.9077 160.592C53.0685 160.986 52.8797 161.435 52.486 161.596C52.0923 161.757 51.6428 161.568 51.482 161.174L32.3848 114.407C32.2241 114.013 32.4129 113.564 32.8066 113.403Z" fill="black"/>
<path fill-rule="evenodd" clip-rule="evenodd" d="M58.8504 93.4431C58.4524 93.5928 58.0084 93.3915 57.8587 92.9934L50.6597 73.8507C50.51 73.4526 50.7113 73.0086 51.1094 72.8589C51.5074 72.7092 51.9515 72.9106 52.1012 73.3086L59.3001 92.4513C59.4498 92.8494 59.2485 93.2934 58.8504 93.4431Z" fill="black"/>
<path fill-rule="evenodd" clip-rule="evenodd" d="M87.9794 99.6257C87.5813 99.7754 87.1373 99.5741 86.9876 99.176L79.7886 80.0333C79.6389 79.6353 79.8403 79.1912 80.2383 79.0415C80.6363 78.8919 81.0804 79.0932 81.2301 79.4912L88.429 98.634C88.5787 99.032 88.3774 99.476 87.9794 99.6257Z" fill="black"/>
<path fill-rule="evenodd" clip-rule="evenodd" d="M120.765 105.356C120.367 105.506 119.923 105.305 119.774 104.907L112.575 85.764C112.425 85.366 112.626 84.922 113.024 84.7723C113.422 84.6226 113.866 84.8239 114.016 85.2219L121.215 104.365C121.365 104.763 121.164 105.207 120.765 105.356Z" fill="black"/>
</svg>
