<svg width="303" height="448" viewBox="0 0 303 448" fill="none" xmlns="http://www.w3.org/2000/svg">
<mask id="path-1-inside-1_504_3587" fill="white">
<path fill-rule="evenodd" clip-rule="evenodd" d="M222.271 181.533C222.522 181.616 222.791 181.496 222.889 181.251C233.504 154.741 247.557 110.773 252.956 85.9658C253.045 85.5597 253.133 85.1521 253.222 84.7432L253.225 84.7331C256.551 69.4583 260.257 52.4381 248.944 49.1565C237.325 45.7864 229.077 61.9027 223.464 83.2645C218.108 103.603 194.076 165.086 191.787 170.927C191.683 171.194 191.841 171.449 192.113 171.539L222.271 181.533ZM124.798 549C125.053 549 125.266 548.81 125.295 548.557C126.202 540.597 127.154 532.112 128.144 523.284C136.911 445.152 148.693 340.152 158.536 334.152C158.539 334.151 158.537 334.152 158.54 334.15C158.638 334.093 185.16 318.745 192.32 313.405C199.198 308.272 201.148 298.074 203.102 287.855C204.846 278.73 206.594 269.587 211.859 264.02C213.37 262.42 215.215 260.881 217.224 259.344C217.401 259.208 217.468 258.972 217.387 258.764C212.415 246.038 206.312 233.751 199.204 222.004C186.377 200.816 170.549 179.77 150.989 163.889C150.766 163.708 150.439 163.752 150.273 163.985C146.735 168.969 143.951 174.81 141.453 180.304C141.237 180.778 141.019 181.252 140.799 181.726C140.666 182.014 140.3 182.105 140.046 181.914C129.971 174.359 119.451 167.705 108.308 161.778C108.06 161.646 107.748 161.743 107.578 161.965C107.467 162.109 107.333 162.268 107.177 162.441C106.879 162.77 106.356 162.544 106.376 162.102C106.49 159.556 106.885 157.222 107.262 154.991C107.531 153.397 107.792 151.856 107.935 150.326C108.116 148.397 108.571 145.587 109.115 142.224C110.938 130.961 113.766 113.493 110.676 102.082C106.984 88.4168 90.3436 88.0241 87.8037 88.0446C87.5997 88.0463 87.4375 88.1652 87.3694 88.3575C86.4844 90.859 80.4517 108.042 78.6791 116.638C78.2954 118.499 77.918 120.535 77.5229 122.666C75.9469 131.166 74.0901 141.182 70.4308 147.651C67.0082 153.71 44.4663 196.118 44.6892 215.972V215.959C44.692 216.224 44.6959 216.486 44.7009 216.746C44.7015 216.776 44.6994 216.806 44.6945 216.836C43.5176 224.097 44.1186 233.823 48.0988 246.566C51.1365 256.262 55.2224 274.253 53.4621 296.87C52.0485 304.212 49.9198 315.21 47.267 328.745C46.3357 331.707 45.2891 334.709 44.117 337.744C44.1141 337.751 44.1071 337.756 44.0993 337.756V337.756C44.0913 337.756 44.0864 337.755 44.0837 337.763C43.9894 338.024 41.1205 346.086 40.9957 360.443C40.9954 360.474 40.9923 360.505 40.9861 360.536C29.6118 417.65 13.58 495.651 0.750655 548.389C0.674056 548.704 0.914387 549 1.23845 549H124.798ZM253.271 191.574C253.271 191.571 253.273 191.567 253.277 191.566C256.359 190.435 261.215 186.072 256.575 183.32C252.506 180.887 241.382 178.931 238.753 178.494C238.454 178.444 238.185 178.672 238.18 178.976L237.863 196.403C237.856 196.753 238.202 197.001 238.532 196.883L253.265 191.583C253.268 191.582 253.271 191.578 253.271 191.574V191.574Z"/>
</mask>
<path fill-rule="evenodd" clip-rule="evenodd" d="M222.271 181.533C222.522 181.616 222.791 181.496 222.889 181.251C233.504 154.741 247.557 110.773 252.956 85.9658C253.045 85.5597 253.133 85.1521 253.222 84.7432L253.225 84.7331C256.551 69.4583 260.257 52.4381 248.944 49.1565C237.325 45.7864 229.077 61.9027 223.464 83.2645C218.108 103.603 194.076 165.086 191.787 170.927C191.683 171.194 191.841 171.449 192.113 171.539L222.271 181.533ZM124.798 549C125.053 549 125.266 548.81 125.295 548.557C126.202 540.597 127.154 532.112 128.144 523.284C136.911 445.152 148.693 340.152 158.536 334.152C158.539 334.151 158.537 334.152 158.54 334.15C158.638 334.093 185.16 318.745 192.32 313.405C199.198 308.272 201.148 298.074 203.102 287.855C204.846 278.73 206.594 269.587 211.859 264.02C213.37 262.42 215.215 260.881 217.224 259.344C217.401 259.208 217.468 258.972 217.387 258.764C212.415 246.038 206.312 233.751 199.204 222.004C186.377 200.816 170.549 179.77 150.989 163.889C150.766 163.708 150.439 163.752 150.273 163.985C146.735 168.969 143.951 174.81 141.453 180.304C141.237 180.778 141.019 181.252 140.799 181.726C140.666 182.014 140.3 182.105 140.046 181.914C129.971 174.359 119.451 167.705 108.308 161.778C108.06 161.646 107.748 161.743 107.578 161.965C107.467 162.109 107.333 162.268 107.177 162.441C106.879 162.77 106.356 162.544 106.376 162.102C106.49 159.556 106.885 157.222 107.262 154.991C107.531 153.397 107.792 151.856 107.935 150.326C108.116 148.397 108.571 145.587 109.115 142.224C110.938 130.961 113.766 113.493 110.676 102.082C106.984 88.4168 90.3436 88.0241 87.8037 88.0446C87.5997 88.0463 87.4375 88.1652 87.3694 88.3575C86.4844 90.859 80.4517 108.042 78.6791 116.638C78.2954 118.499 77.918 120.535 77.5229 122.666C75.9469 131.166 74.0901 141.182 70.4308 147.651C67.0082 153.71 44.4663 196.118 44.6892 215.972V215.959C44.692 216.224 44.6959 216.486 44.7009 216.746C44.7015 216.776 44.6994 216.806 44.6945 216.836C43.5176 224.097 44.1186 233.823 48.0988 246.566C51.1365 256.262 55.2224 274.253 53.4621 296.87C52.0485 304.212 49.9198 315.21 47.267 328.745C46.3357 331.707 45.2891 334.709 44.117 337.744C44.1141 337.751 44.1071 337.756 44.0993 337.756V337.756C44.0913 337.756 44.0864 337.755 44.0837 337.763C43.9894 338.024 41.1205 346.086 40.9957 360.443C40.9954 360.474 40.9923 360.505 40.9861 360.536C29.6118 417.65 13.58 495.651 0.750655 548.389C0.674056 548.704 0.914387 549 1.23845 549H124.798ZM253.271 191.574C253.271 191.571 253.273 191.567 253.277 191.566C256.359 190.435 261.215 186.072 256.575 183.32C252.506 180.887 241.382 178.931 238.753 178.494C238.454 178.444 238.185 178.672 238.18 178.976L237.863 196.403C237.856 196.753 238.202 197.001 238.532 196.883L253.265 191.583C253.268 191.582 253.271 191.578 253.271 191.574V191.574Z" fill="white"/>
<path d="M252.956 85.9658L254.461 86.2934L254.461 86.2927L252.956 85.9658ZM253.225 84.733L251.753 84.2801L251.734 84.342L251.72 84.4053L253.225 84.733ZM253.225 84.7329L254.697 85.1858L254.716 85.1238L254.729 85.0605L253.225 84.7329ZM248.944 49.1565L248.515 50.6356V50.6356L248.944 49.1565ZM223.464 83.2645L224.954 83.6566L224.954 83.6558L223.464 83.2645ZM128.144 523.283L129.675 523.455L129.676 523.441L129.678 523.427L128.144 523.283ZM128.144 523.283L126.614 523.111L126.612 523.125L126.611 523.139L128.144 523.283ZM192.32 313.405L193.24 314.639L193.241 314.639L192.32 313.405ZM203.102 287.855L204.614 288.145L203.102 287.855ZM211.859 264.02L212.978 265.078L212.978 265.078L211.859 264.02ZM199.204 222.004L200.522 221.207L200.522 221.207L199.204 222.004ZM141.453 180.304L142.854 180.942L142.855 180.941L141.453 180.304ZM107.262 154.991L108.78 155.248V155.248L107.262 154.991ZM107.935 150.326L106.402 150.183L107.935 150.326ZM109.115 142.224L110.635 142.47L109.115 142.224ZM110.676 102.082L109.189 102.484L109.189 102.485L110.676 102.082ZM78.6791 116.638L77.1708 116.327H77.1708L78.6791 116.638ZM77.5229 122.666L76.0087 122.385V122.385L77.5229 122.666ZM70.4308 147.651L69.0904 146.893L69.09 146.894L70.4308 147.651ZM44.6892 215.972L43.1493 215.989L46.2292 215.972H44.6892ZM44.6892 215.959L46.2291 215.943L43.1492 215.959H44.6892ZM48.0988 246.566L46.6288 247.025L46.6292 247.026L48.0988 246.566ZM53.4621 296.87L54.9744 297.161L54.9908 297.076L54.9975 296.989L53.4621 296.87ZM47.267 328.745L48.7361 329.207L48.7617 329.126L48.7782 329.042L47.267 328.745ZM256.575 183.32L255.785 184.641L255.79 184.644L256.575 183.32ZM253.277 191.566L252.746 190.12L253.277 191.566ZM0.750655 548.389L2.24702 548.753L0.750655 548.389ZM44.0837 337.763L42.6352 337.24L44.0837 337.763ZM44.117 337.744L45.5536 338.299L44.117 337.744ZM125.295 548.557L123.765 548.383L125.295 548.557ZM44.7009 216.746L43.1612 216.775L44.7009 216.746ZM44.6945 216.836L46.2147 217.082L44.6945 216.836ZM253.265 191.583L252.743 190.134L253.265 191.583ZM107.177 162.441L106.035 161.407L107.177 162.441ZM106.376 162.102L104.838 162.033L106.376 162.102ZM238.753 178.494L239.005 176.974L238.753 178.494ZM238.18 178.976L236.64 178.948L238.18 178.976ZM140.799 181.726L142.196 182.374L140.799 181.726ZM140.046 181.914L140.97 180.682L140.046 181.914ZM150.989 163.889L150.018 165.084L150.989 163.889ZM150.273 163.985L149.017 163.094L150.273 163.985ZM87.8038 88.0446L87.8162 89.5846L87.8038 88.0446ZM87.3694 88.3575L85.9176 87.8438L87.3694 88.3575ZM40.9957 360.443L42.5356 360.456L40.9957 360.443ZM40.9861 360.536L42.4965 360.837L40.9861 360.536ZM217.224 259.344L218.16 260.567L217.224 259.344ZM217.387 258.764L218.821 258.204L217.387 258.764ZM158.536 334.152L157.734 332.837L158.536 334.152ZM158.54 334.15L157.769 332.817L158.54 334.15ZM237.863 196.403L236.323 196.375L237.863 196.403ZM238.532 196.883L239.053 198.332L238.532 196.883ZM108.308 161.778L107.584 163.137L108.308 161.778ZM107.578 161.965L106.355 161.029L107.578 161.965ZM191.787 170.927L190.353 170.365L191.787 170.927ZM192.113 171.539L192.598 170.078L192.113 171.539ZM222.889 181.251L221.46 180.679L222.889 181.251ZM222.271 181.533L221.787 182.995L222.271 181.533ZM251.452 85.6383C246.074 110.344 232.05 154.229 221.46 180.679L224.319 181.824C234.958 155.252 249.04 111.202 254.461 86.2934L251.452 85.6383ZM251.72 84.4053C251.63 84.8176 251.541 85.229 251.452 85.639L254.461 86.2927C254.55 85.8837 254.64 85.4731 254.729 85.0607L251.72 84.4053ZM251.753 84.28L251.753 84.2801L254.697 85.1859L254.697 85.1858L251.753 84.28ZM248.515 50.6356C250.926 51.3351 252.483 52.7281 253.486 54.6611C254.521 56.6544 254.999 59.2935 255.034 62.4641C255.104 68.8273 253.395 76.7124 251.72 84.4052L254.729 85.0605C256.38 77.4786 258.188 69.2164 258.114 62.4304C258.077 59.0265 257.568 55.8406 256.22 53.2423C254.84 50.5838 252.618 48.6188 249.373 47.6775L248.515 50.6356ZM224.954 83.6558C227.748 73.0217 231.161 63.8543 235.23 57.7946C237.262 54.7693 239.391 52.6189 241.592 51.4098C243.745 50.227 246.019 49.9116 248.515 50.6356L249.373 47.6775C246.059 46.7164 242.946 47.1518 240.109 48.7104C237.32 50.2429 234.858 52.8248 232.673 56.0775C228.311 62.5739 224.794 72.1455 221.975 82.8731L224.954 83.6558ZM193.221 171.489C195.489 165.702 219.568 104.106 224.954 83.6566L221.975 82.8723C216.648 103.1 192.664 164.47 190.353 170.365L193.221 171.489ZM222.755 180.071L192.598 170.078L191.629 173.001L221.787 182.995L222.755 180.071ZM126.614 523.112C125.623 531.94 124.671 540.424 123.765 548.383L126.825 548.731C127.732 540.769 128.684 532.283 129.675 523.455L126.614 523.112ZM126.611 523.139L126.611 523.14L129.678 523.427L129.678 523.426L126.611 523.139ZM157.734 332.837C156.774 333.423 155.992 334.469 155.327 335.651C154.638 336.875 153.969 338.439 153.313 340.28C152 343.967 150.682 348.938 149.364 354.916C146.726 366.881 144.05 383.056 141.412 401.449C136.137 438.243 130.997 484.052 126.614 523.111L129.675 523.454C134.059 484.381 139.194 438.624 144.461 401.886C147.096 383.513 149.759 367.43 152.372 355.579C153.679 349.649 154.965 344.822 156.214 341.314C156.84 339.557 157.441 338.174 158.011 337.162C158.604 336.109 159.067 335.632 159.337 335.467L157.734 332.837ZM191.399 312.17C184.332 317.441 157.921 332.729 157.769 332.817L159.311 335.483C159.355 335.457 185.988 320.049 193.24 314.639L191.399 312.17ZM201.589 287.566C200.607 292.703 199.651 297.684 198.107 302.02C196.566 306.348 194.495 309.86 191.399 312.17L193.241 314.639C197.023 311.816 199.367 307.663 201.008 303.054C202.647 298.453 203.643 293.226 204.614 288.145L201.589 287.566ZM210.74 262.962C207.882 265.983 206.04 269.908 204.693 274.136C203.347 278.362 202.458 283.023 201.589 287.566L204.614 288.145C205.49 283.562 206.348 279.089 207.628 275.071C208.907 271.054 210.57 267.624 212.978 265.078L210.74 262.962ZM216.288 258.121C214.255 259.677 212.335 261.274 210.74 262.962L212.978 265.078C214.406 263.567 216.176 262.085 218.16 260.567L216.288 258.121ZM197.887 222.802C204.95 234.475 211.014 246.683 215.952 259.324L218.821 258.204C213.816 245.393 207.674 233.026 200.522 221.207L197.887 222.802ZM150.018 165.084C169.388 180.811 185.108 201.694 197.887 222.802L200.522 221.207C187.646 199.939 171.71 178.729 151.959 162.693L150.018 165.084ZM142.855 180.941C145.354 175.446 148.085 169.727 151.529 164.877L149.017 163.094C145.385 168.21 142.549 174.173 140.051 179.666L142.855 180.941ZM142.196 182.374C142.418 181.897 142.637 181.419 142.854 180.942L140.051 179.666C139.837 180.136 139.621 180.607 139.402 181.077L142.196 182.374ZM107.584 163.137C118.66 169.029 129.113 175.64 139.122 183.146L140.97 180.682C130.83 173.077 120.242 166.382 109.031 160.418L107.584 163.137ZM108.318 163.475C108.495 163.279 108.658 163.087 108.801 162.901L106.355 161.029C106.277 161.131 106.172 161.257 106.035 161.407L108.318 163.475ZM105.743 154.735C105.368 156.956 104.957 159.379 104.838 162.033L107.914 162.171C108.024 159.733 108.402 157.489 108.78 155.248L105.743 154.735ZM106.402 150.183C106.265 151.646 106.015 153.13 105.743 154.735L108.78 155.248C109.048 153.665 109.319 152.066 109.468 150.47L106.402 150.183ZM107.595 141.978C107.055 145.316 106.589 148.189 106.402 150.183L109.468 150.47C109.643 148.605 110.087 145.857 110.635 142.47L107.595 141.978ZM109.189 102.485C110.664 107.931 110.747 114.938 110.202 122.092C109.659 129.218 108.508 136.339 107.595 141.978L110.635 142.47C111.546 136.846 112.719 129.601 113.273 122.326C113.826 115.077 113.777 107.644 112.162 101.68L109.189 102.485ZM87.8162 89.5846C89.0109 89.5749 93.5929 89.6662 98.2795 91.3778C102.942 93.0804 107.52 96.304 109.189 102.484L112.162 101.681C110.14 94.1951 104.552 90.3896 99.3361 88.4847C94.1446 86.5887 89.1365 86.4938 87.7913 86.5047L87.8162 89.5846ZM80.1874 116.949C81.9337 108.48 87.9225 91.4113 88.8212 88.8712L85.9176 87.8438C85.0462 90.3067 78.9696 107.604 77.1708 116.327L80.1874 116.949ZM79.0371 122.946C79.4328 120.812 79.8074 118.792 80.1874 116.949L77.1708 116.327C76.7834 118.206 76.4031 120.258 76.0087 122.385L79.0371 122.946ZM71.7712 148.41C75.5857 141.666 77.4785 131.353 79.0371 122.946L76.0087 122.385C74.4153 130.979 72.5945 140.698 69.0904 146.893L71.7712 148.41ZM46.2291 215.955C46.1761 211.237 47.4845 205.05 49.6064 198.231C51.7192 191.441 54.5995 184.146 57.6046 177.254C63.6154 163.469 70.0817 151.4 71.7716 148.409L69.09 146.894C67.3572 149.961 60.8413 162.125 54.7813 176.023C51.7509 182.973 48.8236 190.38 46.6655 197.316C44.5166 204.221 43.0908 210.78 43.1493 215.989L46.2291 215.955ZM43.1492 215.959V215.972H46.2292V215.959H43.1492ZM46.2406 216.716C46.2357 216.461 46.2319 216.203 46.2291 215.943L43.1493 215.975C43.1521 216.245 43.1561 216.511 43.1612 216.775L46.2406 216.716ZM49.5687 246.106C45.6396 233.528 45.0855 224.049 46.2147 217.082L43.1744 216.589C41.9497 224.145 42.5975 234.119 46.6288 247.025L49.5687 246.106ZM54.9975 296.989C56.7768 274.129 52.6484 255.937 49.5683 246.105L46.6292 247.026C49.6245 256.588 53.6681 274.377 51.9268 296.75L54.9975 296.989ZM48.7782 329.042C51.4315 315.505 53.5605 304.504 54.9744 297.161L51.9499 296.578C50.5366 303.919 48.4082 314.916 45.7557 328.449L48.7782 329.042ZM45.5536 338.299C46.7376 335.232 47.795 332.2 48.7361 329.207L45.7979 328.284C44.8763 331.214 43.8405 334.185 42.6804 337.189L45.5536 338.299ZM42.5356 360.456C42.6587 346.301 45.4867 338.411 45.5322 338.286L42.6352 337.24C42.492 337.636 39.5823 345.871 39.4557 360.429L42.5356 360.456ZM2.24702 548.753C15.0849 495.98 31.1223 417.95 42.4965 360.837L39.4758 360.235C28.1013 417.35 12.075 495.322 -0.745707 548.025L2.24702 548.753ZM124.798 547.46H1.23845V550.54H124.798V547.46ZM255.79 184.644C256.695 185.181 256.89 185.64 256.936 185.887C256.988 186.175 256.917 186.613 256.528 187.214C255.726 188.455 254.041 189.645 252.746 190.12L253.807 193.011C255.595 192.355 257.879 190.798 259.115 188.887C259.745 187.912 260.211 186.672 259.965 185.333C259.713 183.952 258.775 182.834 257.361 181.995L255.79 184.644ZM238.5 180.013C239.8 180.229 243.201 180.821 246.773 181.658C250.42 182.512 253.987 183.566 255.785 184.641L257.366 181.998C255.094 180.64 251.064 179.5 247.475 178.659C243.81 177.8 240.335 177.196 239.005 176.974L238.5 180.013ZM239.402 196.431L239.72 179.004L236.64 178.948L236.323 196.375L239.402 196.431ZM252.743 190.134L238.011 195.433L239.053 198.332L253.786 193.032L252.743 190.134ZM252.746 190.12C252.108 190.354 251.731 190.955 251.731 191.574H254.811C254.811 192.186 254.438 192.78 253.807 193.011L252.746 190.12ZM-0.745707 548.025C-1.06648 549.344 -0.047995 550.54 1.23845 550.54V547.46C1.87677 547.46 2.41459 548.064 2.24702 548.753L-0.745707 548.025ZM44.0993 336.216C44.1808 336.216 44.0703 336.216 44.0655 336.216C44.0236 336.217 43.8705 336.22 43.6834 336.271C43.4677 336.33 43.2185 336.449 42.9997 336.667C42.7938 336.872 42.6889 337.091 42.6352 337.24L45.5322 338.286C45.4798 338.431 45.3765 338.647 45.1726 338.85C44.9557 339.066 44.7088 339.184 44.4956 339.242C44.3111 339.292 44.1609 339.295 44.1223 339.296C44.1207 339.296 44.0138 339.296 44.0993 339.296V336.216ZM42.6804 337.189C42.9065 336.604 43.4699 336.216 44.0993 336.216V339.296C44.7444 339.296 45.3218 338.899 45.5536 338.299L42.6804 337.189ZM123.765 548.383C123.825 547.856 124.271 547.46 124.798 547.46V550.54C125.834 550.54 126.708 549.763 126.825 548.731L123.765 548.383ZM43.1612 216.775C43.16 216.714 43.1643 216.651 43.1744 216.589L46.2147 217.082C46.2344 216.96 46.243 216.838 46.2406 216.716L43.1612 216.775ZM253.786 193.032C254.401 192.811 254.811 192.228 254.811 191.574H251.731C251.731 190.929 252.136 190.353 252.743 190.134L253.786 193.032ZM106.035 161.407C106.758 160.609 107.956 161.249 107.914 162.171L104.838 162.033C104.756 163.84 107.001 164.93 108.318 163.475L106.035 161.407ZM239.005 176.974C237.755 176.767 236.662 177.728 236.64 178.948L239.72 179.004C239.709 179.616 239.152 180.121 238.5 180.013L239.005 176.974ZM139.402 181.077C139.684 180.471 140.446 180.289 140.97 180.682L139.122 183.146C140.154 183.92 141.648 183.556 142.196 182.374L139.402 181.077ZM151.959 162.693C151.052 161.956 149.702 162.129 149.017 163.094L151.529 164.877C151.175 165.374 150.481 165.46 150.018 165.084L151.959 162.693ZM87.7913 86.5047C86.9219 86.5117 86.1959 87.0573 85.9176 87.8438L88.8212 88.8712C88.7586 89.0482 88.635 89.2349 88.4384 89.3772C88.2405 89.5204 88.0173 89.583 87.8162 89.5846L87.7913 86.5047ZM39.4557 360.429C39.4562 360.368 39.4623 360.303 39.4758 360.235L42.4965 360.837C42.5222 360.708 42.5345 360.58 42.5356 360.456L39.4557 360.429ZM218.16 260.567C218.877 260.017 219.154 259.056 218.821 258.204L215.952 259.324C215.782 258.888 215.924 258.399 216.288 258.121L218.16 260.567ZM159.337 335.467C159.342 335.465 159.349 335.46 159.358 335.454C159.364 335.451 159.368 335.448 159.371 335.446C159.372 335.445 159.374 335.444 159.373 335.445C159.373 335.445 159.37 335.447 159.367 335.449C159.364 335.451 159.36 335.453 159.355 335.457C159.35 335.46 159.345 335.462 159.341 335.465C159.332 335.47 159.325 335.475 159.321 335.477C159.318 335.479 159.315 335.481 159.313 335.482C159.312 335.482 159.311 335.483 159.311 335.483L157.769 332.817C157.768 332.817 157.766 332.818 157.765 332.819C157.763 332.82 157.76 332.822 157.755 332.825C157.751 332.827 157.744 332.831 157.735 332.837C157.725 332.843 157.716 332.849 157.708 332.854C157.705 332.856 157.703 332.857 157.702 332.857C157.701 332.858 157.703 332.857 157.704 332.857C157.707 332.854 157.711 332.852 157.716 332.849C157.725 332.843 157.731 332.839 157.734 332.837L159.337 335.467ZM236.323 196.375C236.297 197.803 237.709 198.815 239.053 198.332L238.011 195.433C238.696 195.187 239.416 195.703 239.402 196.431L236.323 196.375ZM109.031 160.418C107.999 159.869 106.896 160.322 106.355 161.029L108.801 162.901C108.679 163.06 108.512 163.172 108.319 163.224C108.119 163.279 107.849 163.278 107.584 163.137L109.031 160.418ZM190.353 170.365C189.853 171.642 190.724 172.701 191.629 173.001L192.598 170.078C192.783 170.139 193.005 170.282 193.154 170.549C193.315 170.839 193.338 171.189 193.221 171.489L190.353 170.365ZM221.46 180.679C221.675 180.14 222.262 179.907 222.755 180.071L221.787 182.995C222.781 183.324 223.907 182.852 224.319 181.824L221.46 180.679Z" fill="black" mask="url(#path-1-inside-1_504_3587)"/>
<path d="M225.45 27.6524L186.343 26.8055L186.298 26.9457C185.021 30.9917 182.264 33.5861 179.327 33.5197L177.636 33.4813C174.681 33.4175 172.095 30.7191 171.065 26.6194L171.042 26.4738L131.918 25.6295C121.022 25.3895 111.941 33.8372 111.609 44.4716L102.353 296.301C102.164 302.411 107.077 307.469 113.328 307.607L223.665 309.997C229.915 310.135 235.129 305.294 235.318 299.184L244.574 47.3546C244.904 36.704 236.329 27.8952 225.45 27.6524Z" fill="#5379F6" stroke="black" stroke-width="1.74844" stroke-linecap="round" stroke-linejoin="round"/>
<path d="M244.406 52.9796L244.575 47.3713C244.905 36.7207 236.331 27.9119 225.452 27.6691L186.345 26.8221L186.3 26.9624C185.023 31.0083 182.266 33.6028 179.329 33.5363L177.638 33.498C174.683 33.4342 172.097 30.7358 171.067 26.636L171.043 26.4905L131.92 25.6462C121.024 25.4062 111.943 33.8539 111.611 44.4883L111.441 50.0967L244.422 52.9769L244.406 52.9796Z" fill="white" stroke="black" stroke-width="1.74844" stroke-linecap="round" stroke-linejoin="round"/>
<path d="M248.901 132.397L249.645 107.976L247.392 107.931L250.937 43.0898C251.267 32.4392 242.693 23.6304 231.813 23.3876L125.865 21.0915C114.969 20.8515 105.889 29.2993 105.556 39.9336L96.0785 299.025C95.7485 309.675 104.323 318.484 115.202 318.727L221.134 321.025C232.03 321.265 241.11 312.818 241.443 302.183L246.01 153.167L248.264 153.213L248.704 138.774L246.451 138.728L246.647 132.351L248.901 132.397ZM235.659 288.283C235.329 298.934 226.245 307.365 215.349 307.125L121.817 305.102C110.921 304.862 102.364 296.051 102.694 285.4L111.626 44.4693C111.956 33.8188 121.039 25.3872 131.935 25.6272L171.042 26.4742L171.066 26.6198C172.112 30.7168 174.698 33.4152 177.653 33.479L179.344 33.5174C182.298 33.5811 185.038 30.9894 186.315 26.9434L186.36 26.8032L225.467 27.6501C236.363 27.8901 244.921 36.7017 244.591 47.3523L235.659 288.283Z" fill="#55628A" stroke="black" stroke-width="1.74844" stroke-linecap="round" stroke-linejoin="round"/>
<path d="M228.253 25.964L129.24 23.8265C117.696 23.5765 108.066 32.5129 107.721 43.7971L98.4784 295.292C98.1331 306.577 107.203 315.919 118.747 316.169L217.761 318.306C229.305 318.556 238.935 309.62 239.28 298.335L248.522 46.8403C248.867 35.5561 239.798 26.214 228.253 25.964ZM235.658 288.283C235.328 298.933 226.245 307.365 215.349 307.125L121.817 305.102C110.921 304.862 102.363 296.051 102.693 285.4L111.625 44.4691C111.955 33.8185 121.038 25.3869 131.934 25.627L171.042 26.4739L171.066 26.6195C172.112 30.7165 174.698 33.4149 177.652 33.4787L179.343 33.5171C182.298 33.5808 185.038 30.9891 186.314 26.9431L186.36 26.8029L225.467 27.6498C236.363 27.8899 244.92 36.7014 244.59 47.352L235.658 288.283Z" fill="black" stroke="black" stroke-width="1.74844" stroke-linecap="round" stroke-linejoin="round"/>
<path d="M180.108 27.5949C180.132 26.5946 179.332 25.7624 178.308 25.7475C177.285 25.7326 176.427 26.521 176.404 27.5213C176.381 28.5216 177.181 29.3538 178.204 29.3687C179.228 29.3836 180.085 28.5953 180.108 27.5949Z" fill="#55628A"/>
<path d="M123.786 33.3239C123.729 35.1601 121.601 35.7748 121.556 37.1607L121.572 37.2577L123.588 37.3092L123.57 37.9266L120.839 37.8761L120.857 37.3584C120.911 35.4062 123.032 35.0585 123.093 33.3544C123.111 32.7369 122.901 32.3894 122.39 32.39C121.877 32.3745 121.646 32.7279 121.632 33.2618L121.617 33.7957L120.969 33.7857L120.989 33.2842C121.022 32.3485 121.468 31.744 122.425 31.7698C123.399 31.7929 123.806 32.4071 123.788 33.3401L123.786 33.3239Z" fill="black"/>
<path d="M127.181 33.3819L127.172 33.5329C127.154 34.1503 126.886 34.5928 126.386 34.7579C126.895 34.9568 127.124 35.4176 127.106 36.0351L127.097 36.5015C127.063 37.4372 126.599 38.0282 125.642 38.0024C124.684 37.9766 124.261 37.3651 124.295 36.4295L124.311 36.0115L124.959 36.0215L124.951 36.488C124.939 37.038 125.146 37.3694 125.659 37.385C126.173 37.4005 126.393 37.0821 126.41 36.4646L126.419 35.9982C126.44 35.3969 126.188 35.106 125.672 35.0743L125.297 35.0693L125.317 34.4681L125.728 34.4837C126.186 34.4751 126.481 34.1943 126.495 33.6604L126.5 33.3773C126.518 32.7599 126.31 32.4285 125.797 32.4129C125.301 32.3947 125.067 32.732 125.038 33.2848L125.022 33.6029L124.374 33.5929L124.379 33.3098C124.413 32.3742 124.861 31.7859 125.818 31.8116C126.775 31.8374 127.199 32.449 127.179 33.3657L127.181 33.3819Z" fill="black"/>
<path d="M128.505 33.8788L128.472 34.7147L127.807 34.7074L127.84 33.8716L128.505 33.8788ZM128.4 37.1845L128.367 38.0204L127.703 38.0131L127.736 37.1773L128.4 37.1845Z" fill="black"/>
<path d="M129.892 34.4487C130.093 34.1168 130.408 33.9654 130.833 33.9622C131.636 33.9801 131.969 34.5567 131.941 35.4249L131.897 36.6113C131.863 37.547 131.399 38.138 130.442 38.1122C129.484 38.0864 129.061 37.4749 129.095 36.5393L129.114 36.1375L129.762 36.1475L129.751 36.5978C129.739 37.1478 129.946 37.4792 130.459 37.4948C130.956 37.513 131.19 37.1757 131.221 36.6391L131.248 35.4554C131.26 34.9054 131.053 34.574 130.54 34.5585C130.164 34.5535 129.89 34.748 129.81 35.193L129.798 35.3278L129.15 35.3178L129.415 31.9526L131.856 32.0008L131.836 32.6021L130.009 32.5693L129.856 34.438L129.892 34.4487Z" fill="black"/>
<path d="M135.446 33.5549L135.465 33.6682L134.8 33.6609L134.809 33.5099C134.821 32.9598 134.597 32.6312 134.103 32.6291C133.574 32.6163 133.337 32.9374 133.325 33.5872L133.277 34.957C133.464 34.5442 133.803 34.3227 134.296 34.3248C135.099 34.3427 135.432 34.9193 135.404 35.7875L135.368 36.7069C135.334 37.6426 134.853 38.2363 133.895 38.2106C132.938 38.1848 132.481 37.5787 132.515 36.643L132.602 33.5396C132.631 32.5716 133.095 31.9805 134.086 32.0009C135.043 32.0267 135.464 32.622 135.446 33.5549ZM133.241 35.7767L133.221 36.6934C133.209 37.2435 133.417 37.5748 133.93 37.5904C134.426 37.6086 134.677 37.2686 134.691 36.7347L134.711 35.818C134.723 35.2679 134.499 34.9393 134.003 34.921C133.49 34.9055 133.256 35.2428 133.241 35.7767Z" fill="black"/>
<path d="M203.294 35.333L201.532 35.2947L201.401 39.5742L203.162 39.6125L203.294 35.333Z" fill="black"/>
<path d="M205.652 34.4623L203.891 34.4243L203.733 39.5729L205.495 39.6109L205.652 34.4623Z" fill="black"/>
<path d="M208.02 33.9179L206.259 33.8799L206.083 39.6351L207.844 39.6732L208.02 33.9179Z" fill="black"/>
<path d="M210.383 32.9072L208.622 32.8691L208.414 39.6902L210.175 39.7282L210.383 32.9072Z" fill="black"/>
<path d="M231.879 40.0842L221.358 39.8491L221.552 33.5559L232.072 33.791L231.879 40.0842ZM221.949 39.3038L231.309 39.5133L231.47 34.3714L222.11 34.1618L221.949 39.3038Z" fill="black"/>
<path d="M228.535 34.8613L222.982 34.7415L222.863 38.6439L228.416 38.7638L228.535 34.8613Z" fill="black"/>
<path d="M232.955 36.2276L231.631 36.199L231.586 37.6733L232.91 37.7019L232.955 36.2276Z" fill="black"/>
<path d="M217.546 38.3975C217.546 38.3975 217.405 38.3707 217.35 38.3465C215.251 37.063 213.801 38.181 213.74 38.2242C213.573 38.3511 213.333 38.3406 213.188 38.1818C213.059 38.0201 213.072 37.7855 213.236 37.6424C213.311 37.5803 215.177 36.0951 217.771 37.6962C217.961 37.8146 218.014 38.0383 217.892 38.2245C217.808 38.3378 217.684 38.4081 217.546 38.3975Z" fill="black"/>
<path d="M218.376 37.1324C218.376 37.1324 218.236 37.1056 218.181 37.0814C215.136 35.222 212.998 36.9179 212.981 36.9206C212.817 37.0637 212.575 37.0371 212.43 36.8782C212.284 36.7193 212.311 36.4658 212.477 36.3389C212.508 36.3173 215.082 34.2676 218.601 36.4311C218.791 36.5495 218.845 36.7732 218.722 36.9594C218.639 37.0727 218.514 37.143 218.376 37.1324Z" fill="black"/>
<path d="M219.137 35.6457C219.137 35.6457 218.996 35.6189 218.941 35.5947C215.084 33.2376 212.413 35.3196 212.308 35.4034C212.141 35.5303 211.885 35.5225 211.756 35.3609C211.611 35.202 211.64 34.9647 211.804 34.8216C211.834 34.8 215.01 32.2697 219.362 34.9444C219.552 35.0628 219.606 35.2865 219.483 35.4727C219.399 35.5861 219.275 35.6563 219.137 35.6457Z" fill="black"/>
<path d="M216.339 39.0276C216.324 39.5614 215.866 39.9853 215.32 39.9752C214.774 39.9651 214.344 39.5207 214.358 38.9868C214.373 38.453 214.831 38.0291 215.377 38.0392C215.923 38.0493 216.353 38.4937 216.339 39.0276Z" fill="black"/>
<path d="M221.89 125.723L129.226 123.722C124.279 123.615 120.149 127.448 120.001 132.284L117.68 208.316C117.532 213.152 121.423 217.158 126.37 217.265L219.034 219.266C223.981 219.373 228.111 215.539 228.259 210.703L230.58 134.672C230.728 129.836 226.837 125.829 221.89 125.723Z" fill="white" stroke="black" stroke-width="1.74844" stroke-miterlimit="10"/>
<path d="M144.019 110.029L141.443 101.582L142.996 101.61L144.89 108.075L147.195 101.685L148.613 101.719L145.503 110.051L145.354 114.743L143.886 114.718L144.036 110.026L144.019 110.029Z" fill="black"/>
<path d="M149.187 104.913C149.25 102.91 150.301 101.641 152.351 101.687C154.417 101.731 155.382 103.05 155.333 105.035L155.131 111.795C155.065 113.782 154.016 115.067 151.95 115.023C149.901 114.977 148.933 113.641 149.001 111.67L149.203 104.91L149.187 104.913ZM150.449 111.782C150.408 112.984 150.914 113.682 151.973 113.708C153.065 113.728 153.583 113.045 153.61 111.861L153.821 104.951C153.851 103.783 153.39 103.045 152.298 103.025C151.222 103.002 150.69 103.703 150.644 104.874L150.432 111.784L150.449 111.782Z" fill="black"/>
<path d="M157.93 111.95C157.903 113.134 158.343 113.843 159.438 113.879C160.513 113.902 161.012 113.206 161.039 112.022L161.34 102.024L162.741 102.06L162.444 111.974C162.378 113.962 161.401 115.268 159.335 115.224C157.285 115.178 156.4 113.829 156.452 111.86L156.75 101.946L158.217 101.971L157.916 111.969L157.93 111.95Z" fill="black"/>
<path d="M167.213 102.141C169.313 102.179 170.169 103.251 170.096 105.189L170.066 106.257C170.029 107.692 169.477 108.579 168.324 108.918C169.544 109.299 169.96 110.277 169.917 111.68L169.86 113.715C169.836 114.3 169.838 114.832 170.084 115.29L168.58 115.254C168.417 114.882 168.362 114.542 168.387 113.658L168.442 111.606C168.49 110.136 167.798 109.652 166.551 109.624L165.492 109.598L165.32 115.19L163.833 115.152L164.243 102.08L167.23 102.138L167.213 102.141ZM166.64 108.297C167.818 108.32 168.543 107.968 168.583 106.55L168.616 105.299C168.646 104.132 168.236 103.501 167.125 103.468L165.674 103.44L165.531 108.28L166.64 108.297Z" fill="black"/>
<path d="M180.54 105.586L180.513 106.77L179.095 106.737L179.128 105.486C179.158 104.318 178.716 103.593 177.621 103.557C176.545 103.534 176.03 104.233 176.003 105.417L175.791 112.327C175.764 113.511 176.239 114.23 177.299 114.256C178.391 114.276 178.889 113.58 178.917 112.396L178.961 110.695L180.379 110.728L180.321 112.349C180.256 114.336 179.257 115.612 177.207 115.566C175.158 115.52 174.242 114.192 174.308 112.205L174.51 105.445C174.576 103.458 175.574 102.182 177.607 102.23C179.674 102.274 180.589 103.602 180.523 105.589L180.54 105.586Z" fill="black"/>
<path d="M181.787 105.614C181.85 103.611 182.902 102.342 184.951 102.388C187.017 102.432 187.999 103.749 187.933 105.736L187.731 112.496C187.666 114.483 186.617 115.768 184.551 115.724C182.501 115.678 181.534 114.342 181.602 112.371L181.804 105.612L181.787 105.614ZM183.049 112.483C183.008 113.685 183.514 114.383 184.573 114.409C185.666 114.429 186.183 113.746 186.227 112.56L186.439 105.649C186.468 104.481 185.991 103.746 184.915 103.723C183.839 103.7 183.307 104.402 183.277 105.569L183.066 112.48L183.049 112.483Z" fill="black"/>
<path d="M192.572 102.684C194.655 102.724 195.576 103.985 195.516 106.004L195.321 112.597C195.258 114.6 194.265 115.81 192.182 115.769L189.04 115.703L189.45 102.631L192.591 102.697L192.572 102.684ZM192.202 114.437C193.278 114.46 193.803 113.826 193.844 112.623L194.052 105.896C194.093 104.693 193.592 104.028 192.5 104.008L190.895 103.972L190.58 114.404L192.202 114.437Z" fill="black"/>
<path d="M201.587 108.68L201.545 109.983L198.282 109.903L198.143 114.56L202.157 114.649L202.118 115.968L196.617 115.84L197.027 102.768L202.527 102.896L202.488 104.214L198.474 104.125L198.34 108.598L201.603 108.678L201.587 108.68Z" fill="black"/>
<path d="M142.462 163.017C143.301 161.7 144.583 161.009 146.274 161.047C149.518 161.113 150.893 163.479 150.789 167L150.644 171.824C150.531 175.596 148.614 178.02 144.755 177.938C140.896 177.857 139.174 175.349 139.288 171.576L139.34 169.924L141.969 169.974L141.912 171.81C141.851 174.029 142.738 175.395 144.752 175.431C146.769 175.482 147.743 174.16 147.821 171.938L147.972 167.147C148.033 164.927 147.146 163.562 145.132 163.526C143.579 163.499 142.506 164.322 142.204 166.116L142.195 166.682L139.566 166.631L140.672 152.93L150.628 153.142L150.556 155.612L143.127 155.451L142.498 163.028L142.462 163.017Z" fill="black"/>
<path d="M165.059 159.379L165.048 159.83L162.419 159.779L162.434 159.145C162.496 156.926 161.597 155.595 159.547 155.549C157.412 155.501 156.438 156.823 156.36 159.46L156.196 165.001C156.941 163.318 158.34 162.407 160.354 162.443C163.598 162.509 164.968 164.842 164.87 168.396L164.751 172.136C164.638 175.908 162.652 178.326 158.793 178.245C154.898 178.152 153.058 175.647 153.171 171.875L153.558 159.288C153.683 155.381 155.553 152.982 159.567 153.071C163.462 153.164 165.186 155.588 165.073 159.36L165.059 159.379ZM156.077 168.425L155.969 172.13C155.908 174.349 156.795 175.715 158.862 175.758C160.878 175.81 161.902 174.479 161.964 172.26L162.071 168.556C162.133 166.337 161.212 164.976 159.179 164.927C157.129 164.881 156.138 166.206 156.077 168.425Z" fill="black"/>
<path d="M179.081 159.688L179.069 160.138L176.44 160.087L176.456 159.454C176.517 157.235 175.618 155.904 173.569 155.858C171.434 155.809 170.459 157.132 170.381 159.769L170.218 165.31C170.963 163.626 172.362 162.716 174.376 162.751C177.62 162.817 178.989 165.151 178.891 168.704L178.772 172.444C178.659 176.216 176.673 178.635 172.814 178.553C168.919 178.461 167.079 175.956 167.192 172.183L167.579 159.597C167.705 155.69 169.575 153.291 173.588 153.38C177.483 153.472 179.208 155.897 179.094 159.669L179.081 159.688ZM170.098 168.734L169.991 172.439C169.929 174.658 170.817 176.024 172.883 176.067C174.899 176.119 175.924 174.788 175.985 172.569L176.093 168.864C176.154 166.645 175.233 165.285 173.2 165.236C171.151 165.19 170.16 166.515 170.098 168.734Z" fill="black"/>
<path d="M193.107 160.03L192.72 172.616C192.595 176.523 190.713 178.958 186.683 178.871C182.824 178.79 181.058 176.322 181.172 172.55L181.183 172.099L183.812 172.15L183.797 172.784C183.735 175.003 184.667 176.328 186.683 176.38C188.852 176.423 189.826 175.101 189.909 172.496L190.073 166.955C189.345 168.636 187.94 169.514 185.926 169.478C182.682 169.412 181.301 167.114 181.416 163.557L181.529 159.785C181.643 156.013 183.598 153.616 187.493 153.709C191.388 153.801 193.223 156.274 193.11 160.046L193.107 160.03ZM184.305 159.696L184.198 163.4C184.136 165.619 185.057 166.98 187.09 167.029C189.14 167.075 190.131 165.75 190.192 163.531L190.3 159.826C190.373 157.572 189.474 156.241 187.408 156.197C185.391 156.146 184.378 157.441 184.305 159.696Z" fill="black"/>
<path d="M207.4 160.228L207.373 160.996C207.29 163.501 206.345 165.317 204.332 166.012C206.396 166.87 207.141 168.824 207.053 171.296L206.997 173.132C206.872 176.94 204.785 179.258 200.857 179.172C196.929 179.085 194.986 176.679 195.094 172.875L195.15 171.039C195.233 168.534 196.07 166.686 198.236 165.882C196.197 165.071 195.387 163.243 195.47 160.739L195.497 159.97C195.621 156.163 197.739 153.922 201.631 153.998C205.526 154.091 207.508 156.423 207.4 160.228ZM198.274 160.096L198.233 161.299C198.168 163.701 199.314 164.775 201.294 164.816C203.275 164.857 204.501 163.825 204.569 161.439L204.61 160.237C204.688 157.699 203.54 156.509 201.543 156.471C199.562 156.43 198.335 157.562 198.258 160.099L198.274 160.096ZM197.949 170.779L197.883 172.866C197.806 175.403 198.926 176.631 200.94 176.667C202.956 176.718 204.106 175.533 204.236 173.004L204.302 170.917C204.368 168.514 203.325 167.34 201.239 167.283C199.157 167.243 198.032 168.374 197.949 170.779Z" fill="black"/>
<path d="M129.511 238.169L216.709 240.068" stroke="black" stroke-width="1.74844" stroke-miterlimit="10"/>
<path d="M129.007 254.811L216.203 256.693" stroke="black" stroke-width="1.74844" stroke-miterlimit="10"/>
<path d="M256.77 154.973L276.732 148.545" stroke="black" stroke-width="1.74844" stroke-miterlimit="10"/>
<path d="M257.401 178.538L268.925 179.805" stroke="black" stroke-width="1.74844" stroke-miterlimit="10"/>
<path d="M254.378 199.546L277.111 210.02" stroke="black" stroke-width="1.74844" stroke-miterlimit="10"/>
<path d="M90.6511 151.493L97.5225 158.483C101.194 166.941 107.987 196.118 98.7945 218.936C92.2116 235.288 83.3076 243.431 83.3076 243.431L90.638 151.493H90.6511Z" fill="white"/>
<path d="M97.5225 158.483C101.194 166.941 107.987 196.118 98.7945 218.936C92.2116 235.288 83.3076 243.431 83.3076 243.431" stroke="black" stroke-width="1.54" stroke-linecap="round"/>
<mask id="path-45-outside-2_504_3587" maskUnits="userSpaceOnUse" x="210.848" y="179.678" width="55" height="91" fill="black">
<rect fill="white" x="210.848" y="179.678" width="55" height="91"/>
<path fill-rule="evenodd" clip-rule="evenodd" d="M260.05 185.103C252.8 180.318 243.153 181.168 233.137 183.881C233.133 183.882 233.132 183.887 233.135 183.89V183.89C233.138 183.893 233.137 183.897 233.133 183.898C228.654 185.109 216.54 189.831 217.327 201.389C217.759 207.854 221.969 210.779 227.647 212.392C229.853 213.016 232.39 213.461 235.065 213.721C234.988 213.724 234.91 213.726 234.833 213.729C230.492 213.873 218.402 215.591 216.644 226.318C215.661 232.324 218.874 235.891 223.712 238.579C225.058 239.327 226.6 239.999 228.269 240.586C228.676 240.729 228.59 241.39 228.158 241.411V241.411C224.565 241.582 214.56 243.3 213.012 253.358C212.147 258.983 214.783 262.301 218.756 264.779C226.296 269.461 240.655 269.959 245.678 266.274C249.769 263.258 253.546 251.797 249.048 246.395C248.855 246.163 248.656 245.942 248.451 245.73C247.722 244.979 248.203 243.2 249.241 243.065C252.3 242.67 254.813 241.829 256.273 240.48C258.07 238.815 265.649 225.111 260.141 219.289C259.372 218.473 258.519 217.769 257.594 217.164C256.564 216.491 256.678 211.415 257.77 210.847C259.28 210.063 260.465 209.127 261.204 208.038C262.66 205.874 267.171 189.81 260.05 185.103Z"/>
</mask>
<path fill-rule="evenodd" clip-rule="evenodd" d="M260.05 185.103C252.8 180.318 243.153 181.168 233.137 183.881C233.133 183.882 233.132 183.887 233.135 183.89V183.89C233.138 183.893 233.137 183.897 233.133 183.898C228.654 185.109 216.54 189.831 217.327 201.389C217.759 207.854 221.969 210.779 227.647 212.392C229.853 213.016 232.39 213.461 235.065 213.721C234.988 213.724 234.91 213.726 234.833 213.729C230.492 213.873 218.402 215.591 216.644 226.318C215.661 232.324 218.874 235.891 223.712 238.579C225.058 239.327 226.6 239.999 228.269 240.586C228.676 240.729 228.59 241.39 228.158 241.411V241.411C224.565 241.582 214.56 243.3 213.012 253.358C212.147 258.983 214.783 262.301 218.756 264.779C226.296 269.461 240.655 269.959 245.678 266.274C249.769 263.258 253.546 251.797 249.048 246.395C248.855 246.163 248.656 245.942 248.451 245.73C247.722 244.979 248.203 243.2 249.241 243.065C252.3 242.67 254.813 241.829 256.273 240.48C258.07 238.815 265.649 225.111 260.141 219.289C259.372 218.473 258.519 217.769 257.594 217.164C256.564 216.491 256.678 211.415 257.77 210.847C259.28 210.063 260.465 209.127 261.204 208.038C262.66 205.874 267.171 189.81 260.05 185.103Z" fill="white"/>
<path d="M260.05 185.103L260.9 183.818L260.899 183.817L260.05 185.103ZM217.327 201.39L218.863 201.287L218.863 201.285L217.327 201.39ZM227.647 212.392L227.226 213.873L227.228 213.874L227.647 212.392ZM235.066 213.721L235.117 215.261L235.215 212.189L235.066 213.721ZM234.833 213.729L234.884 215.268L234.885 215.268L234.833 213.729ZM216.645 226.318L215.125 226.069L215.125 226.069L216.645 226.318ZM223.713 238.579L224.461 237.233L224.461 237.233L223.713 238.579ZM213.012 253.358L211.49 253.124L213.012 253.358ZM218.756 264.78L217.941 266.086L217.944 266.088L218.756 264.78ZM245.678 266.275L246.589 267.516L246.592 267.514L245.678 266.275ZM249.048 246.395L250.232 245.409L250.231 245.409L249.048 246.395ZM256.273 240.481L257.318 241.612L257.32 241.61L256.273 240.481ZM260.142 219.289L259.021 220.346L259.023 220.348L260.142 219.289ZM261.204 208.038L262.479 208.902L262.482 208.898L261.204 208.038ZM257.594 217.165L256.751 218.453L257.594 217.165ZM228.269 240.586L228.78 239.134L228.269 240.586ZM228.158 241.412L228.231 242.95L228.234 242.95L228.158 241.412ZM233.133 183.899L232.731 182.412L233.133 183.899ZM249.241 243.066L249.439 244.593L249.241 243.066ZM233.137 183.881L232.735 182.394L233.137 183.881ZM233.54 185.367C243.506 182.668 252.554 182 259.202 186.388L260.899 183.817C253.047 178.635 242.8 179.668 232.735 182.394L233.54 185.367ZM218.863 201.285C218.514 196.157 220.99 192.534 224.214 189.969C227.477 187.373 231.402 185.961 233.535 185.385L232.731 182.412C230.385 183.046 226.015 184.6 222.297 187.558C218.542 190.546 215.353 195.063 215.79 201.494L218.863 201.285ZM228.068 210.91C225.345 210.137 223.145 209.093 221.586 207.598C220.068 206.144 219.056 204.166 218.863 201.287L215.79 201.492C216.03 205.078 217.34 207.795 219.454 209.822C221.527 211.809 224.271 213.034 227.226 213.873L228.068 210.91ZM235.215 212.189C232.609 211.935 230.166 211.504 228.066 210.91L227.228 213.874C229.541 214.528 232.171 214.987 234.917 215.254L235.215 212.189ZM235.015 212.182C234.937 212.185 234.859 212.188 234.781 212.19L234.885 215.268C234.962 215.266 235.039 215.263 235.117 215.261L235.015 212.182ZM234.782 212.19C232.5 212.266 228.16 212.75 224.112 214.663C220.021 216.596 216.109 220.061 215.125 226.069L218.164 226.567C218.937 221.849 221.949 219.091 225.428 217.448C228.95 215.783 232.825 215.337 234.884 215.268L234.782 212.19ZM215.125 226.069C214.576 229.42 215.193 232.206 216.704 234.532C218.183 236.809 220.44 238.522 222.965 239.925L224.461 237.233C222.147 235.948 220.378 234.534 219.287 232.854C218.227 231.222 217.729 229.222 218.164 226.567L215.125 226.069ZM222.964 239.925C224.401 240.724 226.026 241.429 227.758 242.039L228.78 239.134C227.175 238.569 225.715 237.93 224.461 237.233L222.964 239.925ZM228.085 239.873C226.157 239.965 222.504 240.465 219.083 242.324C215.605 244.214 212.351 247.528 211.49 253.124L214.535 253.592C215.221 249.129 217.744 246.556 220.553 245.03C223.421 243.472 226.567 243.029 228.231 242.95L228.085 239.873ZM211.49 253.124C211.011 256.237 211.492 258.831 212.731 261.01C213.952 263.157 215.835 264.773 217.941 266.086L219.571 263.473C217.704 262.308 216.283 261.026 215.408 259.488C214.553 257.982 214.148 256.105 214.535 253.592L211.49 253.124ZM217.944 266.088C222.013 268.615 227.774 269.946 233.087 270.203C235.762 270.332 238.384 270.192 240.691 269.769C242.971 269.35 245.068 268.632 246.589 267.516L244.767 265.033C243.777 265.759 242.195 266.361 240.135 266.739C238.101 267.112 235.72 267.246 233.235 267.126C228.228 266.885 223.039 265.626 219.568 263.471L217.944 266.088ZM246.592 267.514C247.866 266.575 249 265.079 249.917 263.39C250.845 261.679 251.609 259.662 252.085 257.572C253.016 253.49 252.943 248.667 250.232 245.409L247.865 247.38C249.651 249.525 249.938 253.134 249.083 256.887C248.666 258.714 247.999 260.466 247.21 261.921C246.408 263.399 245.536 264.466 244.764 265.035L246.592 267.514ZM250.231 245.409C250.014 245.148 249.789 244.898 249.556 244.658L247.345 246.802C247.524 246.986 247.697 247.179 247.865 247.38L250.231 245.409ZM249.439 244.593C252.588 244.185 255.498 243.293 257.318 241.612L255.228 239.349C254.128 240.366 252.013 241.154 249.044 241.538L249.439 244.593ZM257.32 241.61C257.681 241.276 258.077 240.756 258.457 240.193C258.858 239.6 259.305 238.862 259.762 238.022C260.677 236.344 261.661 234.207 262.41 231.924C263.155 229.651 263.693 227.16 263.653 224.797C263.613 222.427 262.987 220.056 261.26 218.231L259.023 220.348C260.05 221.434 260.542 222.959 260.574 224.848C260.606 226.744 260.169 228.874 259.483 230.964C258.801 233.042 257.898 235.007 257.058 236.549C256.638 237.319 256.242 237.97 255.905 238.469C255.549 238.996 255.315 239.269 255.226 239.351L257.32 241.61ZM261.262 218.233C260.405 217.323 259.457 216.543 258.437 215.876L256.751 218.453C257.581 218.996 258.339 219.622 259.021 220.346L261.262 218.233ZM259.93 207.174C259.384 207.978 258.437 208.765 257.06 209.481L258.48 212.214C260.123 211.36 261.547 210.277 262.479 208.902L259.93 207.174ZM259.201 186.387C260.557 187.284 261.449 188.775 261.946 190.745C262.445 192.721 262.511 195.051 262.309 197.392C262.108 199.722 261.65 201.988 261.154 203.797C260.906 204.7 260.653 205.476 260.425 206.078C260.184 206.713 260.005 207.062 259.926 207.179L262.482 208.898C262.768 208.473 263.048 207.847 263.304 207.171C263.573 206.462 263.856 205.591 264.125 204.611C264.661 202.652 265.159 200.201 265.378 197.656C265.596 195.123 265.545 192.419 264.932 189.991C264.318 187.558 263.103 185.275 260.9 183.818L259.201 186.387ZM258.437 215.876C258.66 216.022 258.703 216.172 258.662 216.083C258.634 216.022 258.588 215.888 258.543 215.668C258.455 215.231 258.41 214.636 258.426 214.005C258.442 213.374 258.517 212.789 258.627 212.369C258.682 212.157 258.734 212.037 258.76 211.989C258.8 211.916 258.735 212.082 258.48 212.214L257.06 209.481C256.532 209.755 256.225 210.203 256.053 210.519C255.868 210.86 255.74 211.235 255.647 211.589C255.461 212.302 255.367 213.134 255.347 213.927C255.327 214.721 255.378 215.557 255.524 216.278C255.597 216.637 255.702 217.016 255.861 217.363C256.007 217.682 256.271 218.139 256.751 218.453L258.437 215.876ZM227.758 242.039C227.096 241.806 226.958 241.174 227.002 240.842C227.046 240.507 227.358 239.909 228.083 239.873L228.234 242.95C229.39 242.893 229.961 241.954 230.055 241.247C230.148 240.544 229.849 239.51 228.78 239.134L227.758 242.039ZM232.044 184.977C231.683 184.614 231.524 184.092 231.628 183.584C231.739 183.05 232.14 182.572 232.731 182.412L233.535 185.385C234.13 185.224 234.534 184.744 234.645 184.206C234.75 183.695 234.59 183.168 234.226 182.802L232.044 184.977ZM249.556 244.658C249.602 244.705 249.626 244.748 249.637 244.772C249.647 244.795 249.646 244.802 249.644 244.788C249.642 244.774 249.64 244.747 249.643 244.709C249.646 244.671 249.653 244.631 249.664 244.59C249.676 244.55 249.69 244.517 249.702 244.494C249.715 244.47 249.722 244.463 249.717 244.469C249.711 244.476 249.687 244.5 249.639 244.527C249.589 244.556 249.52 244.582 249.439 244.593L249.044 241.538C247.646 241.719 246.941 242.911 246.703 243.743C246.461 244.589 246.451 245.88 247.345 246.802L249.556 244.658ZM232.735 182.394C231.601 182.702 231.198 184.128 232.044 184.977L234.226 182.802C235.066 183.645 234.666 185.062 233.54 185.367L232.735 182.394Z" fill="black" mask="url(#path-45-outside-2_504_3587)"/>
<path d="M237.954 212.627C240.577 212.627 241.701 212.627 243.199 212.627" stroke="black" stroke-width="1.54" stroke-miterlimit="10" stroke-linecap="round"/>
<path d="M234.02 242.788C236.687 243.093 239.319 243.53 241.888 244.099" stroke="black" stroke-width="1.54" stroke-miterlimit="10" stroke-linecap="round"/>
</svg>
