<svg width="1366" height="753" viewBox="0 0 1366 753" fill="none" xmlns="http://www.w3.org/2000/svg">
<g clip-path="url(#clip0_504_4413)">
<path d="M-5.12849 743.08C0.381845 741.684 94.0575 699.518 107.368 695.051C120.678 690.583 184.122 698.066 188.347 686.171C192.573 674.275 138.81 673.586 136.949 671.241C135.087 668.895 211.859 651.657 204.32 641.623C196.092 630.677 125.742 651.713 138.922 647.673C143.185 646.37 220.851 614.872 210.836 605.452C200.82 596.032 121.609 631.477 131.457 624.943C141.305 618.409 184.271 590.559 178.406 582.163C172.542 573.767 106.642 614.443 106.642 614.443C106.642 614.443 143.353 567.233 124.681 568.127C114.758 568.611 88.6588 610.553 68.1813 620.847C47.7037 631.142 -13.2637 650.856 -13.2637 650.856L-5.12849 743.08Z" fill="#2D54D1"/>
<path d="M1391.14 632.671C1386.38 629.563 1320.57 602.029 1308.27 595.29C1295.96 588.551 1258.43 536.836 1246.83 541.788C1235.23 546.74 1271.16 586.727 1270.72 589.687C1270.27 592.647 1205.54 547.913 1203.27 560.255C1200.81 573.715 1263.98 611.17 1252.06 604.208C1248.21 601.955 1172.41 566.25 1172.28 579.988C1172.15 593.727 1251.91 627.924 1240.43 625.113C1228.94 622.302 1179.35 609.606 1177.15 619.603C1174.96 629.618 1249.53 650.45 1249.53 650.45C1249.53 650.45 1189.94 655.476 1203.25 668.582C1210.33 675.544 1258.86 666.292 1280.3 674.353C1301.75 682.413 1375.12 723.443 1375.12 723.443L1391.14 632.653V632.671Z" fill="#98B9FF"/>
<path d="M1365.56 229.594C1360.18 231.437 1276.09 278.219 1263.19 283.785C1250.29 289.352 1186.46 287.192 1183.24 299.386C1180.02 311.579 1233.65 307.8 1235.71 309.978C1237.78 312.156 1162.7 335.743 1171.06 345.106C1180.16 355.327 1248.52 328.501 1235.71 333.62C1231.58 335.277 1156.82 373.142 1167.58 381.705C1178.34 390.25 1254.33 348.327 1245.06 355.662C1235.79 362.996 1195.3 394.327 1201.85 402.202C1208.41 410.076 1270.68 364.039 1270.68 364.039C1270.68 364.039 1238.04 414.153 1256.56 411.696C1266.41 410.393 1288.92 366.403 1308.47 354.433C1328.01 342.463 1389.69 316.643 1389.69 316.643L1365.6 229.594H1365.56Z" fill="#2D54D1"/>
<path d="M-21.4102 282.637C-16.8306 286.007 57.3913 322.177 69.3055 329.587C81.2198 336.996 115.864 390.684 127.722 386.365C139.581 382.046 105.886 340.16 106.482 337.238C107.077 334.315 169.292 382.512 172.215 370.3C175.417 356.989 114.375 316.146 125.898 323.741C129.621 326.198 203.378 365.999 204.253 352.279C205.128 338.559 127.35 300.062 138.669 303.506C149.987 306.95 198.817 322.326 201.553 312.46C204.29 302.593 130.962 277.704 130.962 277.704C130.962 277.704 190.738 275.935 178.153 262.122C171.47 254.788 122.51 261.378 101.53 252.163C80.5496 242.948 -5.17702 188.812 -5.17702 188.812L-21.4102 282.656V282.637Z" fill="#98B9FF"/>
<path d="M115.906 -65.9606C118.568 -60.9343 193.889 35.6454 201.428 47.4852C208.968 59.325 216.898 122.731 229.464 123.978C242.03 125.226 229.817 72.8774 231.623 70.4945C233.429 68.1117 264.946 133.64 276.525 128.8C288.104 123.96 252.157 63.3088 254.986 66.7713C257.816 70.2339 306.478 138.443 313.217 126.454C319.956 114.484 266.565 46.0517 275.278 54.0566C283.99 62.0615 321.315 97.0968 328.054 89.3898C334.793 81.6827 279.503 27.4544 279.503 27.4544C279.503 27.4544 334.141 51.7668 328.78 33.8769C325.932 24.3641 278.945 9.08041 264.052 -8.32554C249.141 -25.7315 202.005 -101.201 202.005 -101.201L115.906 -65.942V-65.9606Z" fill="#2D54D1"/>
<path d="M1141.05 -104.334C1138.37 -99.3268 1114.44 -24.4719 1108.82 -11.6082C1103.2 1.2554 1055 43.2158 1060.98 54.3296C1066.94 65.4433 1103.57 26.1077 1106.57 26.2939C1109.57 26.4801 1072.74 89.1787 1083.22 96.0852C1093.71 102.992 1123.98 39.3251 1122.69 43.5881C1121.41 47.8512 1091.94 126.299 1105.64 125.219C1119.34 124.139 1146.33 41.6521 1144.55 53.3429C1142.76 65.0338 1134.51 115.558 1144.68 116.861C1154.84 118.145 1168.99 42.0244 1168.99 42.0244C1168.99 42.0244 1179.28 100.925 1191.16 86.498C1197.47 78.8282 1183.94 31.3202 1190.08 9.22303C1196.21 -12.8555 1237.44 -105.228 1237.44 -105.228L1141.05 -104.334Z" fill="#5379F6"/>
<path d="M697.044 -144.709C694.363 -139.702 686.209 -58.7595 680.587 -45.8958C674.965 -33.0322 626.769 8.92824 632.744 20.042C638.701 31.1557 675.338 -8.17984 678.335 -7.99368C681.332 -7.80753 644.51 54.8911 654.99 61.7976C665.471 68.7042 695.741 5.03751 694.456 9.30057C693.172 13.5636 663.703 92.0114 677.404 90.9317C691.105 89.8519 718.099 7.3645 716.311 19.0553C714.524 30.7462 706.277 81.2699 716.442 82.5731C726.606 83.8576 740.754 7.73682 740.754 7.73682C740.754 7.73682 751.049 66.6378 762.926 52.2104C769.237 44.5406 755.703 -2.96738 761.846 -25.0646C767.971 -47.1431 805.519 -131.138 805.519 -131.138L697.044 -144.709Z" fill="#98B9FF"/>
</g>
<defs>
<clipPath id="clip0_504_4413">
<rect width="1366" height="753" fill="white"/>
</clipPath>
</defs>
</svg>
