<svg width="660" height="388" viewBox="0 0 660 388" fill="none" xmlns="http://www.w3.org/2000/svg">
<g clip-path="url(#clip0_543_2200)">
<path d="M570.261 392C570.261 392 662.112 357.793 653.42 294.258C641.482 207.012 570.933 199.692 568.135 154.356C565.035 104.151 578.898 44.1558 520.21 14.3288C438.943 -26.9716 372.827 70.7734 305.334 43.2398C180.096 -7.8537 101.443 150.943 175.958 248.468C232.393 327.012 204.846 390.661 204.846 390.661L570.268 392H570.261Z" fill="#CADDFE"/>
<path d="M290.868 181.345L335.19 182.967L373.318 184.221L373.233 190.01C359.764 194.553 349.302 195.649 336.068 196.059C322.511 199.917 304.688 202.086 290.959 202.457C278.9 202.508 278.809 181.396 290.868 181.342V181.345Z" fill="white"/>
<path d="M373.32 184.221H389.832C389.832 184.221 389.832 184.875 388.402 185.175C386.973 185.475 381.56 186.301 381.56 186.301C383.762 186.814 383.035 188.082 382.463 189.311C382.463 189.311 380.96 192.393 379.757 192.62C378.554 192.846 371.395 189.769 371.185 189.687C368.637 188.693 370.245 184.198 373.322 184.221H373.32Z" fill="white"/>
<path d="M310.567 180.94C305.251 180.609 289.582 178.259 279.723 178.992C270.687 182.253 272.221 197.831 276.181 200.441C276.15 200.877 293.177 206.434 310.836 202.072C313.593 199.114 313.35 184.13 310.567 180.94Z" fill="#2D54D1"/>
<path d="M313.159 202.782C310.354 203.646 307.73 204.158 305.822 203.278C304.67 203.283 304.392 180.034 305.544 180.028L312.811 179.997C315.118 179.986 315.464 202.771 313.156 202.779L313.159 202.782Z" fill="#5379F6"/>
<path d="M204.947 389.235H225.351C225.759 388.995 226.059 388.723 226.226 388.417C226.552 373.241 227.715 365.935 227.715 365.935L213.476 365.358L210.798 376.647C206.193 379.902 200.851 386.883 204.944 389.238L204.947 389.235Z" fill="#2D54D1"/>
<path d="M226.912 389.51H202.72C202.106 389.51 202.151 386.144 202.765 386.144L226.818 386.28C227.45 386.28 227.543 389.51 226.912 389.51Z" fill="#2D4183"/>
<path d="M224.408 229.997C222.964 241.233 216.79 268.983 217.455 299.499C210.769 338.391 210.033 346.957 209.221 370.945L229.617 371.71C232.88 354.957 239.581 328.517 242.616 302.72C249.209 282.392 253.525 253.419 255.649 230.416C257.789 210.589 229.761 202.575 224.408 229.997Z" fill="black"/>
<path d="M219.192 371.894L218.775 371.888C218.812 369.122 227.101 275.59 235.52 237.669L235.927 237.759C227.511 275.658 219.231 369.131 219.194 371.894H219.192Z" fill="#2D54D1"/>
<path d="M244.904 231.367C247.777 270.061 256.247 302.93 256.247 302.93C254.588 329.33 259.27 354.68 262.602 372.018L282.004 371.846C283.128 354.869 280.728 262.976 275.706 231.809C273.314 204.254 241.439 202.779 244.901 231.367H244.904Z" fill="black"/>
<path d="M266.273 372.018C265.404 378.271 264.801 383.149 265.563 388.81L297.296 389.428C297.296 389.428 300.288 386.37 296.124 381.787C291.96 377.204 284.594 379.857 279.357 371.845L266.276 372.018H266.273Z" fill="#2D54D1"/>
<path d="M298.737 389.51H265.056C264.442 389.51 264.442 386.144 265.056 386.144L298.601 386.28C299.233 386.28 299.369 389.51 298.737 389.51Z" fill="#2D4183"/>
<path d="M271.074 237.974L270.658 237.995L277.311 371.621L277.726 371.601L271.074 237.974Z" fill="#2D54D1"/>
<path d="M272.168 252.975L225 228.5C226.73 198.069 239.778 177.415 247.815 174.199C267.022 166.517 285.697 175.119 293.057 184.764C295.978 188.594 296.171 205.706 290.308 216.879C287.446 221.995 285.388 225.445 282.45 229.134C279.509 232.822 272.171 252.975 272.171 252.975H272.168Z" fill="#2D54D1"/>
<path d="M277.04 187.541C276.018 184.727 269.561 177.376 268.508 174.338L277.496 160.807L285.795 164.863C287.953 166.449 289.889 168.391 291.366 170.366L287.525 180.555L286.699 182.768C286.39 185.256 283.191 186.519 277.037 187.541H277.04Z" fill="white"/>
<path d="M278.207 165.557C278.272 168.204 280.435 176.212 287.529 180.552L290.852 171.737L278.207 165.557Z" fill="#E7EFFF"/>
<path d="M304.661 151.548C304.409 154.817 303.766 161.965 302.583 164.985C300.782 169.583 294.781 173.452 290.739 172.957C286.161 172.045 280.588 168.883 278.196 165.096C277.041 162.421 275.087 156.32 274.83 151.426C274.292 141.218 283.251 135.166 292.047 135.837C300.842 136.508 305.445 141.357 304.661 151.548Z" fill="white"/>
<path d="M275.718 158.333C274.931 154.786 277.586 154.265 279.364 157.376C279.639 154.967 279.092 147.494 282.073 145.988C285.462 144.218 296.553 148.852 304.663 144.337C304.663 144.337 303.171 132.892 286.322 134.197C266.583 137.977 275.718 158.333 275.718 158.333Z" fill="#444A55"/>
<path d="M278.73 156.116C279.542 158.095 278.953 160.209 277.413 160.835C275.873 161.461 273.966 160.365 273.15 158.386C272.338 156.408 272.927 154.293 274.467 153.667C276.007 153.042 277.914 154.137 278.73 156.116Z" fill="white"/>
<path d="M304.679 144.796C302.949 143.624 277.427 145.668 277.506 147.542C277.506 147.542 293.95 152.682 306.856 151.006C313.902 150.092 304.679 144.796 304.679 144.796Z" fill="#2D54D1"/>
<path d="M273.628 147.941L304.834 144.793L305.092 140.589L272.113 143.664C272.28 145.187 272.832 146.953 273.628 147.941Z" fill="#5379F6"/>
<path d="M271.05 144.289C267.673 144.513 266.623 142.169 270.756 139.593C277.131 135.624 284.607 122.753 292.372 122.39C297.725 122.141 299.636 128.904 304.955 134.379C307.367 136.861 308.482 139.024 306.792 140.64C302.727 142.098 274.586 144.054 271.05 144.286V144.289Z" fill="#2D54D1"/>
<path d="M296.617 129.413C296.612 129.314 296.609 129.263 296.606 129.24C295.89 129.127 295.193 128.906 294.565 128.612C293.936 128.318 293.376 127.944 292.937 127.528C292.937 127.528 292.934 127.533 292.932 127.533C292.739 127.766 292.515 127.992 292.269 128.204C291.938 128.487 291.561 128.745 291.157 128.974C290.953 129.09 290.743 129.201 290.528 129.297C290.203 129.444 289.863 129.569 289.518 129.668C289.52 129.727 289.535 129.951 289.58 130.698C289.588 130.848 289.6 131.018 289.611 131.211C289.617 131.307 289.622 131.412 289.631 131.519C289.651 131.848 289.673 132.23 289.702 132.68C289.738 133.28 289.88 133.815 290.089 134.293C290.16 134.452 290.237 134.605 290.319 134.749C290.568 135.185 290.874 135.564 291.196 135.89C291.519 136.216 291.859 136.484 292.179 136.705C292.606 137 292.994 137.203 293.26 137.325C293.393 137.387 293.495 137.43 293.554 137.453C293.699 137.371 294.086 137.144 294.548 136.773C294.732 136.626 294.927 136.453 295.125 136.261C295.224 136.165 295.321 136.063 295.42 135.952C296.195 135.086 296.889 133.852 296.793 132.252C296.682 130.455 296.637 129.71 296.62 129.413H296.617Z" fill="black"/>
<path d="M295.549 132.36C295.619 133.628 294.646 134.713 293.372 134.783C292.098 134.854 291.008 133.883 290.937 132.618C290.866 131.35 291.84 130.265 293.114 130.195C294.388 130.124 295.478 131.095 295.549 132.36Z" fill="white"/>
<path d="M279.214 183.606L278.841 187.116L280.814 184.356L279.707 190.063C279.744 189.027 278.682 187.442 278.682 187.442C278.682 187.442 276.615 187.19 274.75 188.469L279.214 183.606Z" fill="#2D54D1"/>
<path d="M270.65 171.069C271.049 174.751 276.286 180.328 279.214 183.606L274.749 188.469C271.338 184.365 266.783 179.286 267.46 172.597C267.76 170.848 268.912 170.483 270.653 171.071L270.65 171.069Z" fill="#5379F6"/>
<path d="M287.69 180.354C286.94 181.143 284.601 184.611 280.814 184.356L279.707 190.063C285.043 190.233 286.538 188.268 287.947 184.617C288.502 183.159 288.927 181.491 287.687 180.354H287.69Z" fill="#5379F6"/>
<path d="M253.018 244.55C252.987 244.55 252.959 244.545 252.927 244.531C252.823 244.482 252.78 244.358 252.828 244.253C254.909 239.882 257.559 234.776 260.367 229.366C268.01 214.632 276.675 197.933 278.475 187.405C278.495 187.292 278.603 187.215 278.716 187.235C278.829 187.255 278.906 187.363 278.886 187.476C277.077 198.066 268.395 214.796 260.738 229.559C257.932 234.963 255.285 240.069 253.208 244.432C253.171 244.508 253.097 244.55 253.018 244.55Z" fill="#2D54D1"/>
<path d="M225.962 227.481C234.675 232.797 277.595 237.077 279.404 236.378C281.808 236.534 281.496 245.221 279.614 246.792C276.732 249.193 222.12 239.936 221.246 237.343C220.371 234.75 223.505 225.977 225.965 227.478L225.962 227.481Z" fill="#2D54D1"/>
<path d="M286.418 206.476C286.457 206.389 286.48 206.343 286.488 206.324C285.931 205.893 285.435 205.384 285.033 204.84C284.631 204.297 284.326 203.719 284.145 203.159C284.145 203.159 284.139 203.159 284.136 203.162C283.864 203.272 283.567 203.36 283.258 203.428C282.845 203.518 282.404 203.563 281.951 203.572C281.724 203.578 281.495 203.572 281.263 203.558C280.917 203.532 280.569 203.481 280.227 203.408C280.201 203.459 280.111 203.66 279.802 204.316C279.74 204.45 279.672 204.6 279.59 204.769C279.55 204.854 279.508 204.945 279.462 205.041C279.327 205.33 279.171 205.67 278.984 206.066C278.738 206.595 278.61 207.119 278.568 207.626C278.554 207.793 278.551 207.96 278.554 208.124C278.565 208.614 278.65 209.078 278.777 209.505C278.905 209.933 279.069 210.321 279.239 210.657C279.468 211.105 279.706 211.461 279.876 211.691C279.961 211.804 280.029 211.889 280.068 211.934C280.23 211.928 280.668 211.917 281.234 211.812C281.461 211.77 281.707 211.716 281.965 211.64C282.095 211.603 282.225 211.56 282.358 211.512C283.423 211.13 284.589 210.397 285.249 208.984C285.987 207.396 286.293 206.74 286.418 206.476Z" fill="black"/>
<path d="M283.483 215.855L274.711 211.567L273.925 213.174L282.697 217.462L283.483 215.855Z" fill="#5379F6"/>
<path d="M255.093 258.438H252.109L252.169 258.181C253.508 252.513 253.692 238.727 253.695 238.589L254.111 238.594C254.111 238.73 253.93 252.162 252.633 258.019H254.751C255.025 256.632 256.882 246.866 256.415 238.943L256.831 238.917C257.338 247.48 255.15 258.164 255.127 258.271L255.093 258.438Z" fill="#2D54D1"/>
<path d="M232.27 207.739C232.27 207.739 228.395 229.966 232.415 237.79C236.567 245.878 274.752 247.551 274.752 247.551L276.094 236.058L249.77 229.442L255.446 212.415L232.273 207.739H232.27Z" fill="white"/>
<path d="M242.103 179.142C242.103 179.142 231.043 192.699 230.641 212.087C245.12 222.595 254.629 214.977 254.629 214.977C254.629 214.977 261.915 195.586 260.268 186.162C258.62 176.739 245.378 175.714 242.103 179.142Z" fill="#2D54D1"/>
<path d="M231.118 206.275C233.08 208.653 255.56 213.25 256.018 210.632C256.649 213.128 256.522 215.566 254.512 217.845C253.949 221.479 229.581 217.709 230.145 214.074C228.724 211.829 229.049 209.228 231.118 206.272V206.275Z" fill="#5379F6"/>
<path d="M256.02 210.844C255.983 210.844 255.947 210.836 255.915 210.816C255.816 210.756 255.782 210.629 255.842 210.53C257.458 207.781 258.809 204.064 259.55 200.339C259.573 200.226 259.683 200.152 259.796 200.175C259.91 200.198 259.983 200.308 259.961 200.421C259.21 204.192 257.84 207.954 256.204 210.742C256.165 210.807 256.097 210.844 256.023 210.844H256.02Z" fill="#2D54D1"/>
<path d="M298.592 188C289.316 197.809 274.545 205.814 258.76 209.186C258.752 210.233 258.701 216.042 258.463 242.813C258.149 278.523 292.217 296.122 297.505 298.823C302.652 296.49 337.301 279.214 337.618 243.503C337.853 216.733 337.904 210.924 337.915 209.876C322.193 206.23 307.696 197.967 298.592 188Z" fill="white"/>
<path d="M298.47 194.454C289.391 202.675 276.834 209.112 263.04 212.591L262.773 242.849C262.652 256.695 268.124 269.244 279.036 280.148C286.207 287.313 293.759 291.771 297.592 293.775C297.756 293.693 297.94 293.6 298.119 293.506L298.546 194.525C298.521 194.502 298.492 194.477 298.467 194.454H298.47Z" fill="#5379F6"/>
<path d="M298.547 194.525L298.119 293.506C302.122 291.454 309.403 287.208 316.386 280.471C327.489 269.759 333.181 257.306 333.303 243.461L333.569 213.202C319.879 209.494 307.472 202.867 298.544 194.525H298.547Z" fill="#5379F6"/>
<path d="M282.352 238.068L282.25 261.51C282.239 264.12 314.255 264.256 314.266 261.646L314.368 238.204L282.352 238.068ZM299.925 250.591L299.897 257.235C299.894 258.121 299.167 258.852 298.278 258.849C297.375 258.846 296.653 258.107 296.659 257.221L296.687 250.563C295.32 249.943 294.36 248.559 294.366 246.968C294.374 244.794 296.161 243.047 298.346 243.056C300.531 243.064 302.286 244.828 302.278 247.002C302.272 248.607 301.315 249.983 299.925 250.591Z" fill="white"/>
<path d="M311.571 236.522L308.329 236.508L308.335 234.929C308.358 229.459 303.908 224.99 298.416 224.967C292.921 224.944 288.432 229.374 288.409 234.844L288.403 236.423L285.162 236.409L285.168 234.829C285.199 227.583 291.149 221.709 298.43 221.74C305.711 221.771 311.607 227.693 311.576 234.94L311.571 236.519V236.522Z" fill="white"/>
<path d="M74.3499 111.376H43.916V73.6306H74.3499V111.376ZM44.8955 110.394H73.3676V74.6101H44.8955V110.394Z" fill="#CADDFE"/>
<path d="M49.9303 116.325H79.3848V79.5612H49.9303V116.325Z" fill="#CADDFE"/>
<path d="M54.5108 87.9856H69.7461V85.5936H54.5108V87.9856Z" fill="#5379F6"/>
<path d="M54.51 93.6045H74.252V91.2125H54.51V93.6045Z" fill="#5379F6"/>
<path d="M54.51 99.2212H74.252V96.8292H54.51V99.2212Z" fill="#5379F6"/>
<path d="M54.51 104.84H74.252V102.448H54.51V104.84Z" fill="#5379F6"/>
<path d="M54.51 110.457H74.252V108.065H54.51V110.457Z" fill="#5379F6"/>
<path d="M56.528 225.814C57.9236 223.487 58.7983 220.973 59.1691 218.437L59.9702 218.556L61.5555 218.791H61.5753C62.0028 215.889 61.8584 212.954 61.1592 210.148L58.8011 210.734C58.1699 208.195 57.0545 205.778 55.4665 203.646L57.4197 202.188C55.7467 199.909 53.601 197.917 51.0419 196.365L49.7822 198.463C47.4581 197.056 44.9614 196.184 42.4363 195.81L42.7873 193.393C39.8971 192.963 36.97 193.118 34.1817 193.812L34.7648 196.178C32.2369 196.813 29.8308 197.934 27.7077 199.527L26.2555 197.566C23.9852 199.244 22.0008 201.398 20.458 203.972L22.5443 205.237C21.1431 207.572 20.274 210.078 19.9032 212.614L18.199 212.362L17.5027 212.266L17.4942 212.26C17.0667 215.162 17.2196 218.103 17.9103 220.905L20.2683 220.32C20.8996 222.859 22.0234 225.279 23.6115 227.411L21.6583 228.868C23.3313 231.147 25.4685 233.135 28.0304 234.689L29.2901 232.591C31.6142 233.998 34.1166 234.875 36.6445 235.246L36.3671 237.126L36.2906 237.664C39.1809 238.094 42.1023 237.936 44.8906 237.242L44.3075 234.875C46.8354 234.241 49.2472 233.115 51.376 231.524L52.8282 233.486C55.09 231.801 57.0687 229.655 58.6143 227.082L56.528 225.817V225.814ZM33.9722 224.789C28.874 221.701 27.2349 215.057 30.3092 209.933C33.3806 204.821 39.9962 203.173 45.0944 206.262C50.187 209.345 51.8232 215.991 48.7546 221.104C45.6804 226.225 39.0648 227.872 33.9722 224.786V224.789Z" stroke="#5379F6" stroke-width="0.832254" stroke-miterlimit="10"/>
<path d="M87.4785 327.581C77.8765 330.655 67.0487 327.148 61.2088 318.285C54.1714 307.604 57.0871 293.218 67.7394 286.138C73.8001 282.11 81.0526 281.34 87.4785 283.389V263.359C82.4624 262.527 77.3018 262.524 72.2319 263.551L71.2156 258.408C65.2794 259.563 59.4622 261.904 54.1119 265.459L56.9965 269.838C52.1417 273.066 48.1616 277.116 45.1213 281.691L40.7817 278.781C37.2914 284.009 34.8937 289.847 33.6651 295.91L38.769 296.955C37.6679 302.455 37.6112 308.17 38.7322 313.767L33.6113 314.786C34.7606 320.748 37.0904 326.59 40.6317 331.966L44.9911 329.067C48.2041 333.942 52.238 337.939 56.7899 340.996L54.7376 344.079L53.911 345.344L53.894 345.356C59.0998 348.86 64.9114 351.269 70.9495 352.503L71.9884 347.377C77.0527 348.399 82.3095 348.472 87.4785 347.592V327.59V327.581Z" fill="#5379F6"/>
<path d="M316.651 63.6491C316.725 63.1056 316.776 62.5564 316.776 61.9959C316.776 55.2303 311.293 49.7471 304.527 49.7471C299.452 49.7471 295.098 52.8326 293.238 57.2317C291.726 55.8842 289.739 55.0605 287.554 55.0605C282.826 55.0605 278.993 58.8934 278.993 63.6208H277.397C272.851 63.6208 269.131 67.3405 269.131 71.8867C269.131 76.433 272.851 80.1526 277.397 80.1526H316.043C320.589 80.1526 324.309 76.433 324.309 71.8867C324.309 67.5471 320.917 63.969 316.654 63.6519L316.651 63.6491Z" fill="#CADDFE"/>
<path d="M63.4523 28.6997C63.2853 6.18073 106.011 2.87437 105.509 14.7213L182.21 14.9873C191.084 15.1119 198.252 23.1457 198.221 32.9261L197.21 359.56C197.182 369.131 190.048 376.885 181.276 376.888L100.029 377.295C99.2506 378.892 97.7814 380.335 95.4658 381.536C72.7317 381.355 62.3993 372.401 62.3087 360.871C61.4595 358.745 62.5352 32.9318 63.4523 28.6969V28.6997Z" fill="#5379F6"/>
<path d="M71.2612 162.732C73.1437 162.775 74.6978 161.286 74.7148 159.423L75.4423 74.1425C75.4593 72.2515 73.9193 70.6691 72.0199 70.6266C70.1232 70.5841 68.5578 72.093 68.5408 73.9839L67.8614 159.267C67.8473 161.13 69.3759 162.69 71.2584 162.732H71.2612Z" fill="#2D54D1"/>
<path d="M96.8232 381.598L196.79 381.485C205.874 381.502 213.262 373.542 213.299 363.702L214.513 27.7601C214.55 17.6995 207.131 9.45337 197.936 9.34863L97.6781 8.04647C88.41 7.9389 80.8801 16.0548 80.8631 26.1607L80.2715 363.676C80.2545 373.562 87.6655 381.584 96.8232 381.598Z" fill="#98B9FF"/>
<path d="M94.7997 379.215C95.4055 379.297 96.0226 379.339 96.6397 379.342L196.581 379.07C204.388 379.076 210.806 372.095 210.834 363.507L212.02 27.9329C212.051 19.1518 205.608 11.922 197.71 11.8229L97.4833 10.3594C97.254 10.3594 97.019 10.3594 96.7926 10.3679C93.087 10.5094 89.6306 12.1682 87.0574 15.0358C84.4276 17.9629 82.9811 21.8581 82.9726 26.008L82.3555 363.863C82.3413 371.64 87.6717 378.238 94.7968 379.218L94.7997 379.215Z" fill="black"/>
<path d="M88.1407 27.7913L87.4727 364.407L205.984 364.398L207.119 28.7679L88.1407 27.7913Z" fill="#CADDFE"/>
<mask id="mask0_543_2200" style="mask-type:luminance" maskUnits="userSpaceOnUse" x="88" y="27" width="120" height="338">
<path d="M88.8447 27.791L88.1738 364.407L206.685 364.398L207.82 28.7676L88.8447 27.791Z" fill="white"/>
</mask>
<g mask="url(#mask0_543_2200)">
<path d="M194.525 150.209H100.738C97.5583 150.209 94.9805 152.787 94.9805 155.967V156.292C94.9805 159.472 97.5583 162.05 100.738 162.05H194.525C197.705 162.05 200.283 159.472 200.283 156.292V155.967C200.283 152.787 197.705 150.209 194.525 150.209Z" fill="white"/>
<path d="M194.525 169.28H100.738C97.5583 169.28 94.9805 171.858 94.9805 175.038V175.363C94.9805 178.543 97.5583 181.121 100.738 181.121H194.525C197.705 181.121 200.283 178.543 200.283 175.363V175.038C200.283 171.858 197.705 169.28 194.525 169.28Z" fill="white"/>
<path d="M147.66 130.484C164.225 130.484 177.653 116.781 177.653 99.8773C177.653 82.9738 164.225 69.2708 147.66 69.2708C131.096 69.2708 117.668 82.9738 117.668 99.8773C117.668 116.781 131.096 130.484 147.66 130.484Z" fill="#5379F6"/>
<path d="M147.7 98.6434C150.627 98.6434 153.33 97.1884 155.057 94.9662C156.334 93.3583 157.084 91.289 157.084 88.9904C157.084 83.7053 152.877 79.3374 147.697 79.3374C142.517 79.3374 138.236 83.7053 138.236 88.9904C138.236 91.289 138.986 93.3583 140.263 94.9662C141.99 97.1884 144.693 98.6434 147.697 98.6434H147.7Z" fill="white"/>
<path d="M164.325 115.846C164.325 121.938 130.984 121.938 130.984 115.846L130.996 108.746C132.312 99.0397 161.616 98.6321 164.334 108.746L164.328 115.846H164.325Z" fill="white"/>
<path d="M135.965 154.393H115.436C114.503 154.393 113.746 155.149 113.746 156.083V156.179C113.746 157.112 114.503 157.869 115.436 157.869H135.965C136.898 157.869 137.655 157.112 137.655 156.179V156.083C137.655 155.149 136.898 154.393 135.965 154.393Z" fill="#98B9FF"/>
<path d="M185.9 173.449H115.436C114.503 173.449 113.746 174.206 113.746 175.139V175.236C113.746 176.169 114.503 176.926 115.436 176.926H185.9C186.834 176.926 187.59 176.169 187.59 175.236V175.139C187.59 174.206 186.834 173.449 185.9 173.449Z" fill="#98B9FF"/>
<path d="M163.162 154.393H142.633C141.7 154.393 140.943 155.149 140.943 156.083V156.179C140.943 157.112 141.7 157.869 142.633 157.869H163.162C164.096 157.869 164.852 157.112 164.852 156.179V156.083C164.852 155.149 164.096 154.393 163.162 154.393Z" fill="#98B9FF"/>
<path d="M194.525 206.423H100.738C97.5583 206.423 94.9805 209 94.9805 212.18V212.506C94.9805 215.686 97.5583 218.264 100.738 218.264H194.525C197.705 218.264 200.283 215.686 200.283 212.506V212.18C200.283 209 197.705 206.423 194.525 206.423Z" fill="white"/>
<path d="M194.525 225.494H100.738C97.5583 225.494 94.9805 228.072 94.9805 231.252V231.577C94.9805 234.757 97.5583 237.335 100.738 237.335H194.525C197.705 237.335 200.283 234.757 200.283 231.577V231.252C200.283 228.072 197.705 225.494 194.525 225.494Z" fill="white"/>
<path d="M135.965 210.607H115.436C114.503 210.607 113.746 211.363 113.746 212.297V212.393C113.746 213.326 114.503 214.083 115.436 214.083H135.965C136.898 214.083 137.655 213.326 137.655 212.393V212.297C137.655 211.363 136.898 210.607 135.965 210.607Z" fill="#98B9FF"/>
<path d="M163.162 210.607H142.633C141.7 210.607 140.943 211.363 140.943 212.297V212.393C140.943 213.326 141.7 214.083 142.633 214.083H163.162C164.096 214.083 164.852 213.326 164.852 212.393V212.297C164.852 211.363 164.096 210.607 163.162 210.607Z" fill="#98B9FF"/>
<path d="M185.348 210.607H169.965C169.032 210.607 168.275 211.363 168.275 212.297V212.393C168.275 213.326 169.032 214.083 169.965 214.083H185.348C186.281 214.083 187.038 213.326 187.038 212.393V212.297C187.038 211.363 186.281 210.607 185.348 210.607Z" fill="#98B9FF"/>
<path d="M117.376 200.407C120.447 200.407 122.936 197.775 122.936 194.528C122.936 191.281 120.447 188.648 117.376 188.648C114.306 188.648 111.816 191.281 111.816 194.528C111.816 197.775 114.306 200.407 117.376 200.407Z" fill="white"/>
<path d="M119.349 194.528C119.349 195.68 118.465 196.611 117.378 196.611C116.291 196.611 115.408 195.677 115.408 194.528C115.408 193.378 116.291 192.444 117.378 192.444C118.465 192.444 119.349 193.378 119.349 194.528Z" fill="#98B9FF"/>
<path d="M151.942 200.407C155.013 200.407 157.502 197.775 157.502 194.528C157.502 191.281 155.013 188.648 151.942 188.648C148.872 188.648 146.383 191.281 146.383 194.528C146.383 197.775 148.872 200.407 151.942 200.407Z" fill="white"/>
<path d="M151.941 196.611C153.029 196.611 153.911 195.678 153.911 194.528C153.911 193.377 153.029 192.444 151.941 192.444C150.853 192.444 149.971 193.377 149.971 194.528C149.971 195.678 150.853 196.611 151.941 196.611Z" fill="#98B9FF"/>
<path d="M140.898 192.79H126.6C125.667 192.79 124.91 193.546 124.91 194.48V194.576C124.91 195.509 125.667 196.266 126.6 196.266H140.898C141.832 196.266 142.588 195.509 142.588 194.576V194.48C142.588 193.546 141.832 192.79 140.898 192.79Z" fill="#98B9FF"/>
<path d="M177.504 192.79H163.206C162.272 192.79 161.516 193.546 161.516 194.48V194.576C161.516 195.509 162.272 196.266 163.206 196.266H177.504C178.437 196.266 179.194 195.509 179.194 194.576V194.48C179.194 193.546 178.437 192.79 177.504 192.79Z" fill="#98B9FF"/>
<path d="M182.578 256.296H112.725C111.211 256.296 109.982 257.524 109.982 259.039V301.201C109.982 302.716 111.211 303.944 112.725 303.944H182.578C184.093 303.944 185.321 302.716 185.321 301.201V259.039C185.321 257.524 184.093 256.296 182.578 256.296Z" fill="#5379F6"/>
<path d="M185.321 265.292H109.982V273.513H185.321V265.292Z" fill="#5379F6"/>
<path d="M127.239 294.8H116.163C115.458 294.8 114.889 295.403 114.889 296.148C114.889 296.892 115.46 297.495 116.163 297.495H127.239C127.944 297.495 128.513 296.892 128.513 296.148C128.513 295.403 127.941 294.8 127.239 294.8Z" fill="#CADDFE"/>
<path d="M144.271 294.8H133.194C132.489 294.8 131.92 295.403 131.92 296.148C131.92 296.892 132.492 297.495 133.194 297.495H144.271C144.976 297.495 145.545 296.892 145.545 296.148C145.545 295.403 144.973 294.8 144.271 294.8Z" fill="#CADDFE"/>
<path d="M161.308 294.8H150.231C149.526 294.8 148.957 295.403 148.957 296.148C148.957 296.892 149.529 297.495 150.231 297.495H161.308C162.013 297.495 162.582 296.892 162.582 296.148C162.582 295.403 162.01 294.8 161.308 294.8Z" fill="#CADDFE"/>
<path d="M178.341 294.8H167.264C166.559 294.8 165.99 295.403 165.99 296.148C165.99 296.892 166.562 297.495 167.264 297.495H178.341C179.046 297.495 179.615 296.892 179.615 296.148C179.615 295.403 179.043 294.8 178.341 294.8Z" fill="#CADDFE"/>
<path d="M115.647 258.713C114.869 258.713 114.24 259.378 114.24 260.202V260.726C114.24 261.547 114.871 262.215 115.647 262.215C116.426 262.215 117.054 261.55 117.054 260.726V260.202C117.054 259.381 116.423 258.713 115.647 258.713Z" fill="#CADDFE"/>
<path d="M118.682 260.463C118.682 261.428 119.423 262.212 120.335 262.212H126.197C127.112 262.212 127.851 261.428 127.851 260.463C127.851 259.497 127.109 258.713 126.197 258.713H120.335C119.42 258.713 118.682 259.497 118.682 260.463Z" fill="#CADDFE"/>
<path d="M125.424 277.937H117.974C116.726 277.937 115.715 278.949 115.715 280.196V287.231C115.715 288.478 116.726 289.49 117.974 289.49H125.424C126.672 289.49 127.683 288.478 127.683 287.231V280.196C127.683 278.949 126.672 277.937 125.424 277.937Z" fill="#5379F6"/>
<path d="M188.131 229.615H117.667C116.733 229.615 115.977 230.372 115.977 231.305V231.402C115.977 232.335 116.733 233.092 117.667 233.092H188.131C189.064 233.092 189.821 232.335 189.821 231.402V231.305C189.821 230.372 189.064 229.615 188.131 229.615Z" fill="#98B9FF"/>
</g>
<path d="M118.082 349.709C119.839 349.709 121.264 348.284 121.264 346.527C121.264 344.77 119.839 343.345 118.082 343.345C116.325 343.345 114.9 344.77 114.9 346.527C114.9 348.284 116.325 349.709 118.082 349.709Z" fill="#5379F6"/>
<path d="M133.043 349.709C134.8 349.709 136.225 348.284 136.225 346.527C136.225 344.77 134.8 343.345 133.043 343.345C131.286 343.345 129.861 344.77 129.861 346.527C129.861 348.284 131.286 349.709 133.043 349.709Z" fill="#5379F6"/>
<path d="M148.004 349.709C149.761 349.709 151.186 348.284 151.186 346.527C151.186 344.77 149.761 343.345 148.004 343.345C146.247 343.345 144.822 344.77 144.822 346.527C144.822 348.284 146.247 349.709 148.004 349.709Z" fill="#5379F6"/>
<path d="M162.963 349.709C164.72 349.709 166.145 348.284 166.145 346.527C166.145 344.77 164.72 343.345 162.963 343.345C161.206 343.345 159.781 344.77 159.781 346.527C159.781 348.284 161.206 349.709 162.963 349.709Z" fill="#5379F6"/>
<path d="M177.924 349.709C179.681 349.709 181.106 348.284 181.106 346.527C181.106 344.77 179.681 343.345 177.924 343.345C176.167 343.345 174.742 344.77 174.742 346.527C174.742 348.284 176.167 349.709 177.924 349.709Z" fill="#5379F6"/>
<path d="M462.919 309.325L453.019 305.702C449.39 303.689 445.75 310.254 449.376 312.266L458.27 317.716C460.58 318.995 465.226 310.602 462.916 309.325H462.919Z" fill="#98B9FF"/>
<path d="M523.981 281.037C515.001 292.36 507.848 306.981 499.763 321.039C491.61 316.312 483.22 315.448 463.019 308.351C458.705 308.116 454.7 315.754 458.148 319.094C458.148 319.094 490.189 345.726 503.398 343.657C516.606 341.591 543.247 303.332 547.807 297.337C556.175 286.339 539.323 265.788 523.978 281.037H523.981Z" fill="black"/>
<path d="M462.458 309.161L458.509 307.703C456.587 307.788 453.527 313.172 455.002 315.663L458.781 318.033L462.458 309.158V309.161Z" fill="black"/>
<path d="M440.01 314.469L448.183 313.435C449.434 306.205 456.146 309.665 455.497 306.338C454.849 303.012 449.935 297.572 449.935 297.572L429.386 312.646C429.386 312.646 428.608 318.621 440.01 314.471V314.469Z" fill="black"/>
<path d="M440.011 314.469C443.294 314.231 446.756 314.319 448.625 315.196C450.635 316.142 452.401 311.98 449.395 311.097C446.388 310.214 442.006 311.525 440.008 314.472L440.011 314.469Z" fill="black"/>
<path d="M589.781 371.164L596.283 379.458C598.308 383.082 604.864 379.419 602.84 375.795L597.9 366.618C596.609 364.313 588.49 368.86 589.781 371.164Z" fill="#98B9FF"/>
<path d="M534.103 303.567C543.031 314.933 562.405 333.851 562.405 333.851C562.405 333.851 577.479 361.74 589.179 371.942C592.72 374.414 600.151 370.034 598.979 365.378C598.979 365.378 581.841 326.29 577.162 318.896C572.483 311.502 560.265 290.011 555.498 284.182C546.748 273.487 522.842 285.102 534.105 303.57L534.103 303.567Z" fill="black"/>
<path d="M589.619 371.566C589.619 371.566 590.774 374.428 592.096 374.759C593.418 375.09 599.62 371.314 599.759 369.567C599.898 367.821 598.182 366.029 598.182 366.029L589.619 371.563V371.566Z" fill="black"/>
<path d="M609.891 373.092L601.659 373.361C599.74 380.443 593.382 376.372 593.716 379.747C594.05 383.121 598.438 388.995 598.438 388.995L620.3 375.897C620.3 375.897 621.63 370.017 609.894 373.092H609.891Z" fill="black"/>
<path d="M609.892 373.092C606.599 373.024 603.16 372.613 601.382 371.566C599.469 370.439 597.323 374.416 600.233 375.577C603.143 376.738 607.63 375.837 609.892 373.092Z" fill="black"/>
<path d="M560.947 292.139C565.567 277.702 569.819 260.25 569.785 251.229C569.714 233.785 547.577 232.97 539.58 240.101C532.855 245.652 526.763 258.691 522.01 275.602C517.362 280.892 516.198 286.274 516.858 291.497C521.899 296.994 550.035 301.77 560.947 292.142V292.139Z" fill="#2D54D1"/>
<path d="M573.136 249.459L589.337 261.745C590.056 258.037 601.186 245.771 606.217 244.947L612.096 249.864C615.96 254.66 598.24 277.949 591.143 279.791C579.718 284.06 557.586 262.691 557.586 262.691C547.356 255.461 559.359 236.913 573.136 249.459Z" fill="#2D54D1"/>
<path d="M611.985 252.004C611.985 252.004 614.247 251.877 613.97 249.564C613.76 247.834 606.279 241.686 603.974 244.998C602.471 247.155 609.661 252.553 611.988 252.004H611.985Z" fill="#2D54D1"/>
<path d="M618.922 240.894C618.537 241.511 618.067 242.125 617.591 242.677C617.059 243.297 616.507 243.821 616.014 244.101C613.416 245.046 609.957 243.099 608.827 240.373C608.595 239.753 608.521 239.02 608.584 238.25C608.739 236.693 609.373 234.963 609.889 233.78C609.897 233.754 609.908 233.729 609.908 233.729C610.132 233.225 610.305 232.851 610.404 232.594C610.424 232.543 610.432 232.517 610.469 232.5C610.543 232.381 610.562 232.33 610.562 232.33C611.627 230.708 620.181 236.081 619.895 238.589C619.796 239.229 619.423 240.056 618.922 240.894Z" fill="white"/>
<path d="M605.135 234.626L619.561 244.177C619.343 245.677 619.957 247.237 621.296 248.143C622.633 249.052 624.311 249.043 625.625 248.29L622.593 246.235L624.654 243.198L627.632 245.219C627.793 243.761 627.182 242.266 625.885 241.386C624.546 240.477 622.87 240.486 621.557 241.239L607.131 231.688C607.349 230.19 606.735 228.628 605.396 227.722C604.06 226.813 602.381 226.822 601.068 227.575L604.099 229.63L602.039 232.667L599.061 230.646C598.899 232.104 599.511 233.598 600.807 234.479C602.143 235.388 603.822 235.379 605.135 234.626Z" fill="black"/>
<path d="M610.022 233.468C610.022 233.468 608.793 235.682 613.215 238.385C617.637 241.089 619.287 240.302 619.734 239.201C620.182 238.099 611.027 230.139 610.022 233.468Z" fill="white"/>
<path d="M608.664 240.401C607.736 238.816 606.731 235.642 607.727 234.068C608.944 232.146 614.128 234.881 615.418 235.801C615.815 237.454 613.261 237.508 611.849 236.542C613.774 239.345 614.377 242.303 612.916 242.445C611.452 242.586 609.595 241.986 608.667 240.401H608.664Z" fill="white"/>
<path d="M613.162 249.12C612.01 249.955 605.872 245.777 606.948 244.599L611.964 238.748L617.184 242.547L613.162 249.12Z" fill="white"/>
<path d="M498.266 268.293C498.447 267.594 498.699 266.872 498.968 266.206C499.268 265.462 499.607 264.805 499.947 264.395C501.858 262.75 505.088 263.63 506.591 265.918C506.914 266.444 507.129 267.126 507.242 267.879C507.449 269.417 507.301 271.248 507.137 272.53C507.137 272.559 507.132 272.584 507.132 272.584C507.058 273.128 506.996 273.538 506.973 273.81C506.967 273.864 506.965 273.892 506.939 273.918C506.902 274.051 506.899 274.107 506.899 274.107C506.381 275.961 498.271 273.255 497.968 270.772C497.912 270.133 498.042 269.235 498.268 268.29L498.266 268.293Z" fill="white"/>
<path d="M506.717 265.844C507.813 267.098 509.307 269.85 508.832 271.639C508.254 273.827 503.45 272.68 502.205 272.171C501.528 270.699 503.595 269.923 504.951 270.444C502.785 268.307 501.661 265.649 502.822 265.097C503.983 264.545 505.622 264.59 506.714 265.844H506.717Z" fill="white"/>
<path d="M501.605 258.818C502.488 257.703 509.528 260.064 508.809 261.485L505.565 268.477L499.51 266.235L501.602 258.818H501.605Z" fill="white"/>
<path d="M539.497 251.161L520.472 243.226C520.885 246.982 513.058 260.904 508.497 263.183L501.423 260.231C496.311 256.8 506.326 229.298 512.557 225.437C522.201 217.972 554.019 236.811 554.019 236.811C564.757 243.26 554.549 259.104 539.497 251.161Z" fill="#2D54D1"/>
<path d="M500.896 258.158C500.896 258.158 498.773 258.951 499.724 261.077C500.434 262.665 509.405 266.32 510.625 262.473C511.421 259.967 502.951 256.944 500.896 258.158Z" fill="#2D54D1"/>
<path d="M571.302 225.692C573.15 227.223 574.254 229.162 573.346 230.804L570.221 235.764L564.024 245.553C562.133 248.734 550.235 239.588 552.132 236.392L561.561 224.361C563.053 221.632 568.231 223.116 571.302 225.692Z" fill="white"/>
<path d="M556.422 230.923C556.422 230.923 556.631 233.207 562.697 235.925C567.79 238.207 569.177 237.397 569.177 237.397C569.177 237.397 570.216 238.461 568.634 240.511C567.462 245.06 565.588 249.1 561.087 250.164C556.356 251.279 544.569 243.93 548.948 237.785C551.586 235.441 553.197 233.768 553.197 233.768C553.197 233.768 554.08 230.94 556.419 230.923H556.422Z" fill="#2D4183"/>
<path d="M571.302 225.692C573.151 227.223 574.255 229.162 573.346 230.804L569.392 237.057C564.593 235.172 563.379 227.336 563.379 227.336L571.305 225.689L571.302 225.692Z" fill="#CADDFE"/>
<path d="M591.557 212.22C594.037 222.077 587.294 235.067 578.705 237.227C570.117 239.387 562.938 229.901 560.458 220.044C557.978 210.187 562.929 200.447 571.518 198.284C580.106 196.124 589.077 202.363 591.557 212.217V212.22Z" fill="white"/>
<path d="M560.369 219.232C573.346 216.817 585.147 215.886 591.822 212.741C591.822 212.741 593.928 217.366 592 220.313C577.674 227.198 560.647 220.248 560.647 220.248L560.369 219.235V219.232Z" fill="black"/>
<path d="M565.444 223.283C566.432 225.168 565.814 226.532 563.756 227.011C562.123 227.39 560.054 226.414 559.063 224.528C558.075 222.643 558.689 220.964 560.175 220.186C561.662 219.407 564.453 221.397 565.444 223.283Z" fill="white"/>
<path d="M558.936 219.195C569.464 210.672 576.529 207.176 589.146 204.662C589.146 204.662 576.674 187.431 561.911 196.905C549.351 204.965 558.936 219.195 558.936 219.195Z" fill="#2D54D1"/>
<path d="M589.554 206.969C581.441 206.567 561.232 220.138 558.735 223.846C557.861 224.746 554.512 219.269 557.031 215.708C558.554 213.553 572.779 203.091 586.135 201.279C590.106 200.741 591.558 206.853 589.554 206.966V206.969Z" fill="#2D54D1"/>
<path d="M561.102 204.874C564.526 203.333 566.492 200.283 565.492 198.062C564.493 195.841 560.906 195.289 557.482 196.831C554.057 198.372 552.092 201.422 553.091 203.643C554.091 205.864 557.677 206.415 561.102 204.874Z" fill="#2D54D1"/>
<path d="M557.035 216.146C556.924 216.146 556.811 216.104 556.726 216.019C556.556 215.849 556.559 215.575 556.726 215.405C556.85 215.28 569.428 202.963 586.081 200.854C586.319 200.826 586.537 200.993 586.565 201.231C586.597 201.469 586.427 201.687 586.189 201.715C569.835 203.787 557.459 215.9 557.335 216.022C557.25 216.107 557.139 216.146 557.029 216.146H557.035Z" fill="#2D4183"/>
<path d="M570.543 214.527C570.543 214.527 571.828 216.359 574.149 214.657C576.471 212.956 575.998 212.452 575.998 212.452C575.998 212.452 578.857 215.603 582.679 212.999C584.623 211.674 583.845 209.437 583.845 209.437C589.373 212.86 597.988 210.323 596.912 204.597C594.214 198.986 589.453 202.757 588.221 204.852C586.97 204.823 575.412 209.299 570.543 214.527Z" fill="#444A55"/>
<path d="M579.06 219.725C579.065 220.967 578.06 221.978 576.82 221.984C575.578 221.989 574.564 220.987 574.559 219.744C574.559 219.15 574.785 218.609 575.159 218.204C576.444 217.208 578.542 217.341 579 219.229C579.037 219.388 579.057 219.555 579.057 219.725H579.06Z" fill="white"/>
<path d="M589.939 218.026C589.944 219.229 588.973 220.208 587.767 220.214C586.91 220.217 586.168 219.727 585.808 219.011C584.806 217.273 586.414 215.045 588.863 216.155C589.503 216.531 589.933 217.228 589.936 218.026H589.939Z" fill="white"/>
<path d="M546.35 249.744L528.074 248.677L526.743 271.489L545.019 272.555L546.35 249.744Z" fill="#CADDFE"/>
<path d="M544.35 252.435L533.346 251.793L533.249 253.457L544.253 254.099L544.35 252.435Z" fill="#98B9FF"/>
<path d="M544.116 256.347L529.859 255.515L529.762 257.18L544.019 258.012L544.116 256.347Z" fill="#98B9FF"/>
<path d="M543.894 260.259L529.637 259.427L529.54 261.092L543.797 261.924L543.894 260.259Z" fill="#98B9FF"/>
<path d="M543.661 264.174L529.404 263.342L529.307 265.006L543.564 265.838L543.661 264.174Z" fill="#98B9FF"/>
<path d="M543.433 268.086L529.176 267.254L529.079 268.918L543.336 269.75L543.433 268.086Z" fill="#98B9FF"/>
<path d="M557.463 257.525L541.312 248.905L530.553 269.063L546.704 277.683L557.463 257.525Z" fill="white"/>
<path d="M554.518 259.131L544.793 253.94L544.008 255.411L553.733 260.602L554.518 259.131Z" fill="#CADDFE"/>
<path d="M552.671 262.589L540.072 255.864L539.287 257.335L551.886 264.06L552.671 262.589Z" fill="#CADDFE"/>
<path d="M550.824 266.045L538.225 259.321L537.44 260.792L550.039 267.516L550.824 266.045Z" fill="#CADDFE"/>
<path d="M548.982 269.502L536.383 262.778L535.598 264.249L548.197 270.973L548.982 269.502Z" fill="#CADDFE"/>
<path d="M547.132 272.962L534.533 266.237L533.748 267.708L546.347 274.432L547.132 272.962Z" fill="#CADDFE"/>
<path d="M549.011 256.859L531.248 253.441L526.982 275.613L544.745 279.03L549.011 256.859Z" fill="white"/>
<path d="M546.698 259.235L536.004 257.178L535.693 258.795L546.387 260.853L546.698 259.235Z" fill="#CADDFE"/>
<path d="M545.969 263.036L532.111 260.37L531.8 261.988L545.657 264.654L545.969 263.036Z" fill="#CADDFE"/>
<path d="M545.236 266.844L531.379 264.178L531.068 265.796L544.925 268.462L545.236 266.844Z" fill="#CADDFE"/>
<path d="M544.504 270.646L530.646 267.98L530.335 269.597L544.193 272.263L544.504 270.646Z" fill="#CADDFE"/>
<path d="M543.771 274.448L529.914 271.781L529.603 273.399L543.46 276.065L543.771 274.448Z" fill="#CADDFE"/>
<path d="M567.804 243.229C567.804 243.229 564.025 262.439 545.112 268.061C528.292 273.063 527.338 259.673 527.598 256.497C523.706 255.478 503.718 271.517 510.684 283.701C517.654 295.884 546.12 286.302 558.697 270.789C569.828 257.06 570.125 247.073 570.125 247.073C570.318 245.618 569.027 243.396 567.807 243.232L567.804 243.229Z" fill="black"/>
<path d="M459.883 269.068C454.3 269.227 447.668 263.251 447.668 263.251C456.149 261.677 461.264 258.829 463.636 254.376L476.551 262.974C473.1 266.218 465.465 268.91 459.883 269.068Z" fill="#5379F6"/>
<path d="M462.783 257.994L462.166 258.58L470.806 264.397C471.114 264.225 471.352 264.08 471.601 263.93L462.786 257.994H462.783Z" fill="white"/>
<path d="M459.969 260.041L468.362 265.606C468.665 265.467 468.976 265.334 469.254 265.201L460.736 259.554L459.969 260.043V260.041Z" fill="white"/>
<path d="M457.421 261.654L465.248 266.82C465.585 266.707 465.916 266.594 466.23 266.475L458.298 261.241L457.418 261.654H457.421Z" fill="white"/>
<path d="M454.321 262.767L461.837 267.786C462.211 267.701 462.553 267.599 462.913 267.505L455.417 262.498L454.318 262.764L454.321 262.767Z" fill="white"/>
<path d="M431.581 249.459C435.733 249.19 440.24 244.302 440.24 244.302C435.949 244.636 428.784 242.261 426.151 240.14L418.766 245.743C421.548 247.911 427.431 249.728 431.581 249.459Z" fill="#5379F6"/>
<path d="M548.223 177.019L544.235 179.428L532.441 162.189L538.386 158.596L548.223 177.019Z" fill="#5379F6"/>
<path d="M551.285 181.364C552.066 182.658 551.65 184.342 550.357 185.124C549.063 185.905 547.379 185.489 546.597 184.195C545.816 182.902 546.232 181.217 547.526 180.436C548.82 179.655 550.504 180.071 551.285 181.364Z" fill="#5379F6"/>
<path d="M544.662 207.08H483.438C483.188 207.08 482.99 206.879 482.99 206.632C482.99 206.386 483.191 206.182 483.438 206.182H544.662C544.911 206.182 545.109 206.383 545.109 206.632C545.109 206.881 544.908 207.08 544.662 207.08Z" fill="#2D54D1"/>
<path d="M501.73 289.676H403.252C403.003 289.676 402.805 289.475 402.805 289.226C402.805 288.977 403.006 288.779 403.252 288.779H501.73C501.979 288.779 502.177 288.98 502.177 289.226C502.177 289.473 501.976 289.676 501.73 289.676Z" fill="#2D54D1"/>
<path d="M483.438 216.605H466.85C466.601 216.605 466.402 216.404 466.402 216.158C466.402 215.912 466.603 215.711 466.85 215.711H483.438C483.687 215.711 483.888 215.912 483.888 216.158C483.888 216.404 483.687 216.605 483.438 216.605Z" fill="#2D54D1"/>
<path d="M547.268 216.605H490.715C490.466 216.605 490.268 216.404 490.268 216.158C490.268 215.912 490.469 215.711 490.715 215.711H547.268C547.518 215.711 547.716 215.912 547.716 216.158C547.716 216.404 547.515 216.605 547.268 216.605Z" fill="#2D54D1"/>
</g>
<defs>
<clipPath id="clip0_543_2200">
<rect width="660" height="388" fill="white"/>
</clipPath>
</defs>
</svg>
