<svg width="443" height="391" viewBox="0 0 443 391" fill="none" xmlns="http://www.w3.org/2000/svg">
<path d="M410.879 5.52177H31.8609C14.3567 5.52177 0 19.8233 0 37.3827V351.85C0 369.354 14.3015 383.711 31.8609 383.711H56.9852V384.65C56.9852 388.129 59.8565 391 63.3353 391H123.523C127.002 391 129.873 388.129 129.873 384.65V383.711H312.811V384.65C312.811 388.129 315.682 391 319.161 391H379.349C382.828 391 385.699 388.129 385.699 384.65V383.711H410.823C428.327 383.711 442.684 369.41 442.684 351.85V37.3274C442.684 19.8233 428.383 5.46655 410.823 5.46655L410.879 5.52177Z" fill="#5379F6"/>
<path d="M123.523 370.845H63.2798C59.7727 370.845 56.9297 373.689 56.9297 377.196V379.073C56.9297 382.58 59.7727 385.423 63.2798 385.423H123.523C127.03 385.423 129.873 382.58 129.873 379.073V377.196C129.873 373.689 127.03 370.845 123.523 370.845Z" fill="#2D4183"/>
<path d="M379.46 370.845H319.217C315.71 370.845 312.867 373.689 312.867 377.196V379.073C312.867 382.58 315.71 385.423 319.217 385.423H379.46C382.967 385.423 385.81 382.58 385.81 379.073V377.196C385.81 373.689 382.967 370.845 379.46 370.845Z" fill="#2D4183"/>
<path d="M410.879 0H31.8609C14.2646 0 0 14.2646 0 31.8609V346.273C0 363.87 14.2646 378.134 31.8609 378.134H410.879C428.475 378.134 442.739 363.87 442.739 346.273V31.8609C442.739 14.2646 428.475 0 410.879 0Z" fill="#5379F6"/>
<path d="M367.201 42.5181H75.5933C57.997 42.5181 43.7324 56.7827 43.7324 74.379V314.136C43.7324 331.733 57.997 345.997 75.5933 345.997H367.201C384.797 345.997 399.061 331.733 399.061 314.136V74.379C399.061 56.7827 384.797 42.5181 367.201 42.5181Z" fill="#98B9FF"/>
<path d="M367.201 37.3274H75.5933C57.997 37.3274 43.7324 51.592 43.7324 69.1883V308.946C43.7324 326.542 57.997 340.807 75.5933 340.807H367.201C384.797 340.807 399.061 326.542 399.061 308.946V69.1883C399.061 51.592 384.797 37.3274 367.201 37.3274Z" fill="#98B9FF"/>
<path d="M152.348 285.036C148.206 285.036 144.838 281.668 144.838 277.527V119.547C144.838 115.406 148.206 112.038 152.348 112.038C156.489 112.038 159.857 115.406 159.857 119.547V277.527C159.857 281.668 156.489 285.036 152.348 285.036Z" fill="#2D4183"/>
<path d="M220.652 245.666C219.382 245.666 218.057 245.334 216.897 244.672L80.2324 165.434C76.6433 163.335 75.4285 158.807 77.5268 155.218C79.625 151.629 84.1529 150.414 87.7421 152.513L224.407 231.751C227.996 233.849 229.211 238.432 227.113 241.966C225.732 244.34 223.192 245.721 220.652 245.721V245.666Z" fill="#2D4183"/>
<path d="M83.9878 245.666C81.3926 245.666 78.9078 244.34 77.5273 241.911C75.429 238.322 76.699 233.739 80.233 231.696L216.898 152.457C220.487 150.359 225.07 151.574 227.113 155.163C229.212 158.752 227.942 163.335 224.408 165.378L87.7427 244.617C86.5831 245.279 85.2579 245.61 83.9878 245.61V245.666Z" fill="#2D4183"/>
<path d="M197.625 198.565C197.625 173.551 177.36 153.286 152.346 153.286C127.332 153.286 107.067 173.551 107.067 198.565C107.067 223.578 127.332 243.843 152.346 243.843C177.36 243.843 197.625 223.578 197.625 198.565Z" fill="#2D4183"/>
<path d="M180.067 198.565C180.067 183.269 167.643 170.845 152.347 170.845C137.052 170.845 124.628 183.269 124.628 198.565C124.628 213.86 137.052 226.284 152.347 226.284C167.643 226.284 180.067 213.86 180.067 198.565Z" fill="#2D54D1"/>
<path d="M152.093 159.468C130.08 159.468 112.228 177.321 112.228 199.333C112.228 221.345 130.08 239.198 152.093 239.198C174.105 239.198 191.958 221.345 191.958 199.333C191.958 177.321 174.105 159.468 152.093 159.468Z" fill="#2D4183"/>
<path d="M191.958 198.286C191.958 176.273 174.105 158.42 152.093 158.42C130.08 158.42 112.228 176.273 112.228 198.286C112.228 220.298 130.08 238.151 152.093 238.151C174.105 238.151 191.958 220.298 191.958 198.286Z" fill="#2D4183"/>
<path d="M153.15 168.258C153.15 168.898 152.7 169.421 152.134 169.421C151.568 169.421 151.097 168.908 151.097 168.269L151.065 164.235C151.065 163.596 151.516 163.072 152.082 163.072C152.647 163.072 153.119 163.586 153.119 164.225L153.15 168.258Z" fill="white"/>
<path d="M137.99 171.758C138.315 172.303 138.178 172.994 137.686 173.277C137.194 173.56 136.534 173.35 136.209 172.795L134.166 169.317C133.841 168.772 133.977 168.08 134.47 167.798C134.952 167.515 135.622 167.724 135.947 168.269L137.99 171.747V171.758Z" fill="white"/>
<path d="M126.612 182.361C127.167 182.675 127.387 183.335 127.115 183.827C126.832 184.32 126.151 184.466 125.596 184.152L122.086 182.162C121.531 181.847 121.3 181.187 121.583 180.695C121.866 180.202 122.547 180.056 123.102 180.37L126.612 182.361Z" fill="white"/>
<path d="M122.065 197.238C122.704 197.238 123.228 197.688 123.228 198.254C123.228 198.82 122.715 199.281 122.076 199.291L118.042 199.323C117.403 199.323 116.879 198.872 116.879 198.306C116.879 197.741 117.392 197.269 118.031 197.269L122.065 197.238Z" fill="white"/>
<path d="M125.564 212.388C126.109 212.063 126.801 212.199 127.084 212.692C127.366 213.184 127.157 213.844 126.602 214.169L123.123 216.212C122.578 216.537 121.887 216.4 121.604 215.908C121.321 215.426 121.531 214.756 122.086 214.431L125.564 212.388Z" fill="white"/>
<path d="M136.167 223.766C136.481 223.21 137.141 222.99 137.634 223.263C138.126 223.546 138.273 224.227 137.959 224.782L135.968 228.292C135.654 228.847 134.994 229.067 134.501 228.795C134.009 228.512 133.862 227.831 134.176 227.276L136.167 223.766Z" fill="white"/>
<path d="M151.045 228.313C151.045 227.674 151.495 227.15 152.061 227.15C152.627 227.15 153.098 227.663 153.098 228.302L153.13 232.336C153.13 232.975 152.679 233.499 152.114 233.499C151.548 233.499 151.076 232.985 151.076 232.346L151.045 228.313Z" fill="white"/>
<path d="M166.194 224.813C165.869 224.269 166.005 223.577 166.498 223.294C166.99 223.011 167.65 223.221 167.975 223.776L170.018 227.255C170.343 227.799 170.207 228.491 169.714 228.774C169.232 229.057 168.562 228.847 168.237 228.292L166.194 224.813Z" fill="white"/>
<path d="M177.573 214.211C177.017 213.896 176.797 213.236 177.07 212.744C177.353 212.251 178.034 212.105 178.589 212.419L182.099 214.41C182.654 214.724 182.874 215.384 182.602 215.876C182.319 216.369 181.648 216.516 181.082 216.201L177.573 214.211Z" fill="white"/>
<path d="M182.12 199.344C181.481 199.344 180.957 198.893 180.957 198.327C180.957 197.762 181.47 197.29 182.11 197.29L186.143 197.259C186.782 197.259 187.306 197.709 187.317 198.275C187.317 198.841 186.803 199.302 186.164 199.312L182.13 199.344H182.12Z" fill="white"/>
<path d="M178.62 184.183C178.075 184.508 177.383 184.372 177.1 183.88C176.818 183.387 177.027 182.727 177.572 182.402L181.05 180.359C181.595 180.035 182.287 180.171 182.569 180.663C182.852 181.145 182.643 181.816 182.088 182.14L178.609 184.183H178.62Z" fill="white"/>
<path d="M168.018 172.816C167.703 173.371 167.043 173.591 166.551 173.319C166.059 173.046 165.912 172.365 166.226 171.8L168.217 168.29C168.531 167.735 169.191 167.504 169.684 167.787C170.176 168.07 170.323 168.74 170.008 169.306L168.018 172.816Z" fill="white"/>
<path d="M174.92 220.92C187.424 208.416 187.424 188.144 174.92 175.64C162.416 163.136 142.144 163.136 129.64 175.64C117.136 188.144 117.136 208.416 129.64 220.92C142.144 233.424 162.416 233.424 174.92 220.92Z" fill="#5379F6"/>
<path d="M153.288 170.993V172.659C153.288 173.015 152.994 173.266 152.649 173.266H152.02C151.664 173.266 151.381 173.057 151.381 172.7V171.014C151.381 170.657 151.664 170.406 152.02 170.406H152.649C153.005 170.406 153.288 170.584 153.288 170.993ZM151.727 172.659L152.732 170.752C152.701 170.752 152.68 170.741 152.649 170.741H152.009C151.852 170.741 151.727 170.867 151.727 171.024V172.659ZM152.942 171.024V170.993L151.915 172.931C151.915 172.931 151.978 172.941 152.009 172.941H152.649C152.806 172.941 152.931 172.816 152.931 172.659V171.024H152.942Z" fill="white"/>
<path d="M165.65 174.199L165.304 174.785C165.304 174.785 165.304 174.838 165.325 174.848L165.985 175.226C166.289 175.404 166.425 175.739 166.236 176.074L165.964 176.546C165.775 176.87 165.409 176.923 165.105 176.755L164.12 176.189L164.256 175.948C164.256 175.948 164.298 175.917 164.319 175.927L165.252 176.472C165.388 176.556 165.566 176.504 165.639 176.368L165.912 175.896C165.996 175.76 165.943 175.582 165.807 175.498L165.011 175.037C164.906 174.974 164.874 174.848 164.927 174.744L165.482 173.78C165.482 173.78 165.524 173.748 165.545 173.759L166.928 174.555L166.792 174.796C166.792 174.796 166.75 174.827 166.729 174.817L165.629 174.178L165.65 174.199Z" fill="white"/>
<path d="M174.649 183.115L172.25 184.498L172.104 184.236C172.104 184.236 172.104 184.183 172.124 184.173L174.251 182.947L174.115 182.706C174.115 182.706 174.115 182.654 174.136 182.643L174.367 182.507L174.681 183.052C174.681 183.052 174.681 183.104 174.66 183.115H174.649Z" fill="white"/>
<path d="M175.404 185.451L173.958 186.279C173.654 186.457 173.287 186.331 173.109 186.027L172.795 185.482C172.617 185.179 172.659 184.822 172.963 184.644L174.419 183.806C174.723 183.628 175.089 183.754 175.268 184.058L175.582 184.602C175.76 184.906 175.749 185.252 175.404 185.451ZM173.183 184.927L175.351 184.843C175.351 184.843 175.341 184.791 175.32 184.76L174.995 184.204C174.911 184.068 174.744 184.016 174.607 184.1L173.193 184.917L173.183 184.927ZM175.205 185.158C175.205 185.158 175.215 185.158 175.226 185.147L173.036 185.231C173.036 185.231 173.057 185.294 173.067 185.315L173.392 185.87C173.476 186.006 173.644 186.048 173.78 185.975L175.194 185.158H175.205Z" fill="white"/>
<path d="M180.14 197.751H177.363V197.447C177.363 197.447 177.384 197.395 177.416 197.395H179.867V197.122C179.867 197.122 179.888 197.07 179.92 197.07H180.192V197.699C180.192 197.699 180.171 197.751 180.14 197.751Z" fill="white"/>
<path d="M179.868 198.579H179.187C179.187 198.579 179.134 198.6 179.134 198.631V199.396C179.134 199.742 178.914 200.035 178.527 200.035H177.982C177.605 200.035 177.374 199.742 177.374 199.396V198.264H177.646C177.646 198.264 177.699 198.285 177.699 198.317V199.396C177.699 199.553 177.825 199.679 177.982 199.679H178.527C178.684 199.679 178.82 199.553 178.82 199.396V198.474C178.82 198.359 178.914 198.254 179.04 198.254H180.15C180.15 198.254 180.203 198.275 180.203 198.306V199.899H179.93C179.93 199.899 179.878 199.878 179.878 199.846V198.579H179.868Z" fill="white"/>
<path d="M175.247 209.433L174.472 210.774C174.472 210.774 174.43 210.805 174.409 210.795L174.168 210.659L175.111 209.024C175.111 209.024 175.153 208.993 175.174 209.003L175.656 209.286C175.76 209.349 175.844 209.496 175.844 209.611L176.001 211.204C176.001 211.204 176.022 211.266 176.043 211.277L176.284 211.413C176.483 211.528 176.609 211.445 176.682 211.308L177.238 210.344C177.238 210.344 177.28 210.313 177.301 210.323L177.531 210.46L176.944 211.476C176.766 211.78 176.452 211.937 176.106 211.738L175.865 211.602C175.719 211.518 175.677 211.392 175.677 211.277L175.52 209.663C175.52 209.663 175.499 209.601 175.478 209.59L175.237 209.454L175.247 209.433Z" fill="white"/>
<path d="M174.922 213.865L173.476 213.037C173.172 212.859 173.099 212.482 173.267 212.178L173.581 211.633C173.759 211.329 174.084 211.182 174.388 211.361L175.844 212.199C176.148 212.377 176.221 212.744 176.054 213.058L175.739 213.603C175.561 213.907 175.268 214.074 174.912 213.865H174.922ZM174.262 211.675L175.414 213.508C175.414 213.508 175.456 213.466 175.467 213.446L175.792 212.89C175.875 212.754 175.823 212.576 175.687 212.503L174.272 211.685L174.262 211.675ZM175.069 213.55C175.069 213.55 175.09 213.55 175.09 213.561L173.927 211.706C173.927 211.706 173.885 211.759 173.864 211.78L173.539 212.335C173.455 212.471 173.508 212.649 173.644 212.723L175.058 213.54L175.069 213.55Z" fill="white"/>
<path d="M166.446 219.963L165.105 220.738C165.105 220.738 165.053 220.738 165.042 220.717L164.906 220.476L166.541 219.533C166.541 219.533 166.593 219.533 166.604 219.554L166.876 220.036C166.939 220.141 166.939 220.308 166.876 220.413L166.216 221.869C166.216 221.869 166.205 221.932 166.216 221.953L166.352 222.194C166.467 222.393 166.614 222.383 166.75 222.299L167.714 221.744C167.714 221.744 167.766 221.744 167.777 221.765L167.913 221.995L166.907 222.582C166.604 222.76 166.247 222.728 166.048 222.383L165.912 222.142C165.828 221.995 165.849 221.869 165.912 221.765L166.583 220.287C166.583 220.287 166.593 220.224 166.583 220.203L166.446 219.963Z" fill="white"/>
<path d="M165.44 223.053L165.094 222.466C165.094 222.466 165.052 222.435 165.031 222.446L164.371 222.823C164.067 223.001 163.711 222.948 163.512 222.613L163.24 222.142C163.051 221.817 163.187 221.471 163.491 221.293L164.476 220.727L164.612 220.968C164.612 220.968 164.612 221.021 164.591 221.031L163.659 221.576C163.523 221.66 163.47 221.827 163.554 221.964L163.826 222.435C163.91 222.571 164.078 222.624 164.214 222.54L165.01 222.079C165.115 222.016 165.251 222.058 165.304 222.163L165.859 223.127C165.859 223.127 165.859 223.179 165.838 223.189L164.455 223.986L164.319 223.745C164.319 223.745 164.319 223.692 164.34 223.682L165.44 223.043V223.053Z" fill="white"/>
<path d="M152.616 225.274C152.605 225.149 152.668 225.044 152.763 225.023C152.679 225.023 152.616 224.939 152.616 224.845V224.153C152.616 223.776 152.888 223.556 153.234 223.556H154.334V223.829C154.334 223.829 154.313 223.881 154.282 223.881H153.224C153.066 223.881 152.941 223.986 152.941 224.143V224.813C152.941 224.813 152.962 224.866 152.993 224.866H154.187C154.187 224.866 154.24 224.876 154.24 224.908V225.191H152.993C152.993 225.191 152.941 225.212 152.941 225.243V225.83C152.941 225.987 153.066 226.081 153.224 226.081H154.261C154.261 226.081 154.313 226.102 154.313 226.133V226.395H153.224C152.867 226.395 152.605 226.186 152.605 225.83V225.274H152.616Z" fill="white"/>
<path d="M150.217 225.819V224.153C150.217 223.797 150.51 223.546 150.856 223.546H151.485C151.841 223.546 152.124 223.755 152.124 224.111V225.798C152.124 226.154 151.841 226.406 151.485 226.406H150.856C150.5 226.406 150.217 226.228 150.217 225.819ZM151.778 224.153L150.772 226.06C150.793 226.06 150.824 226.071 150.856 226.071H151.495C151.652 226.071 151.778 225.945 151.778 225.788V224.153ZM150.563 225.788V225.819L151.579 223.881C151.579 223.881 151.516 223.87 151.485 223.87H150.845C150.688 223.87 150.563 223.996 150.563 224.153V225.788Z" fill="white"/>
<path d="M139.017 221.482C139.07 221.366 139.185 221.314 139.269 221.345C139.195 221.303 139.174 221.199 139.227 221.115L139.572 220.518C139.761 220.193 140.107 220.141 140.411 220.308L141.364 220.863L141.228 221.094C141.228 221.094 141.186 221.125 141.165 221.115L140.253 220.591C140.117 220.507 139.95 220.539 139.876 220.675L139.541 221.262C139.541 221.262 139.541 221.314 139.562 221.324L140.599 221.922C140.599 221.922 140.641 221.953 140.62 221.974L140.484 222.215L139.405 221.597C139.405 221.597 139.352 221.597 139.342 221.618L139.049 222.121C138.965 222.257 139.038 222.404 139.174 222.477L140.075 223.001C140.075 223.001 140.107 223.043 140.096 223.064L139.96 223.294L139.017 222.749C138.713 222.571 138.577 222.257 138.755 221.953L139.028 221.482H139.017Z" fill="white"/>
<path d="M137.907 221.754L138.252 221.157C138.252 221.157 138.252 221.104 138.231 221.094L137.571 220.717C137.267 220.539 137.131 220.203 137.32 219.868L137.592 219.397C137.781 219.072 138.148 219.019 138.451 219.187L139.426 219.753L139.29 219.994C139.29 219.994 139.248 220.025 139.227 220.015L138.284 219.47C138.148 219.386 137.969 219.439 137.896 219.575L137.624 220.046C137.54 220.182 137.592 220.361 137.728 220.444L138.525 220.905C138.629 220.968 138.661 221.094 138.609 221.199L138.053 222.163C138.053 222.163 138.011 222.194 137.99 222.184L136.607 221.387L136.744 221.146C136.744 221.146 136.786 221.115 136.806 221.125L137.907 221.764V221.754Z" fill="white"/>
<path d="M131.516 211.518L131.663 211.769L132.166 211.476L132.312 211.728C132.312 211.728 132.312 211.78 132.291 211.79L131.83 212.063L132.417 213.069C132.48 213.173 132.438 213.268 132.333 213.33L132.166 213.435C132.166 213.435 132.071 213.467 132.029 213.456L129.903 213.184L129.756 212.932C129.756 212.932 129.756 212.88 129.777 212.859L131.401 211.927L131.275 211.717C131.275 211.717 131.275 211.665 131.296 211.654L131.526 211.528L131.516 211.518ZM132.019 213.016L131.558 212.22L130.322 212.932L131.935 213.121C131.935 213.121 131.977 213.121 131.987 213.121C131.987 213.121 132.04 213.069 132.019 213.037V213.016Z" fill="white"/>
<path d="M128.949 210.418L130.395 209.59C130.699 209.412 131.066 209.538 131.244 209.842L131.558 210.386C131.736 210.69 131.694 211.046 131.39 211.225L129.934 212.063C129.63 212.241 129.264 212.115 129.085 211.811L128.771 211.266C128.593 210.963 128.603 210.617 128.949 210.418ZM131.17 210.942L129.002 211.025C129.002 211.025 129.012 211.078 129.033 211.109L129.358 211.665C129.442 211.801 129.609 211.853 129.745 211.769L131.16 210.952L131.17 210.942ZM129.148 210.711C129.148 210.711 129.127 210.711 129.127 210.722L131.317 210.638C131.317 210.638 131.296 210.575 131.286 210.544L130.961 209.988C130.877 209.852 130.709 209.8 130.573 209.883L129.159 210.701L129.148 210.711Z" fill="white"/>
<path d="M126.236 198.086V198.38H126.822V198.673C126.822 198.673 126.801 198.726 126.77 198.726H126.236V199.888C126.236 200.004 126.152 200.067 126.036 200.067H125.837C125.837 200.067 125.743 200.046 125.712 200.025L124.004 198.726V198.432C124.004 198.432 124.025 198.38 124.056 198.38H125.932V198.139C125.932 198.139 125.953 198.086 125.984 198.086H126.246H126.236ZM125.921 199.637V198.715H124.496L125.795 199.689C125.795 199.689 125.827 199.71 125.848 199.71C125.848 199.71 125.921 199.7 125.921 199.658V199.637Z" fill="white"/>
<path d="M124.328 197.426H125.009C125.009 197.426 125.062 197.405 125.062 197.374V196.609C125.062 196.263 125.282 195.97 125.669 195.97H126.214C126.591 195.97 126.822 196.263 126.822 196.609V197.741H126.55C126.55 197.741 126.497 197.72 126.497 197.688V196.609C126.497 196.452 126.371 196.326 126.214 196.326H125.669C125.512 196.326 125.376 196.452 125.376 196.609V197.531C125.376 197.646 125.282 197.751 125.156 197.751H124.046C124.046 197.751 123.993 197.73 123.993 197.699V196.106H124.266C124.266 196.106 124.318 196.127 124.318 196.159V197.426H124.328Z" fill="white"/>
<path d="M127.797 185.671L128.383 186.017C128.383 186.017 128.436 186.017 128.446 185.996L128.823 185.336C129.002 185.032 129.337 184.896 129.672 185.084L130.144 185.357C130.468 185.545 130.531 185.912 130.353 186.216L129.787 187.19L129.546 187.054C129.546 187.054 129.515 187.012 129.525 186.991L130.07 186.059C130.154 185.922 130.102 185.744 129.965 185.671L129.494 185.399C129.358 185.315 129.18 185.367 129.096 185.503L128.635 186.3C128.572 186.404 128.446 186.436 128.341 186.383L127.378 185.828C127.378 185.828 127.346 185.786 127.357 185.765L128.153 184.382L128.394 184.519C128.394 184.519 128.425 184.56 128.415 184.581L127.776 185.681L127.797 185.671Z" fill="white"/>
<path d="M129.923 182.455L131.369 183.282C131.673 183.46 131.757 183.838 131.579 184.141L131.264 184.686C131.086 184.99 130.761 185.137 130.458 184.959L129.001 184.12C128.697 183.942 128.614 183.576 128.792 183.261L129.106 182.717C129.284 182.413 129.578 182.245 129.934 182.455H129.923ZM130.583 184.644L129.431 182.811C129.431 182.811 129.389 182.853 129.378 182.874L129.054 183.429C128.97 183.565 129.022 183.743 129.158 183.817L130.573 184.634L130.583 184.644ZM129.777 182.769C129.777 182.769 129.766 182.769 129.756 182.758L130.919 184.613C130.919 184.613 130.961 184.561 130.981 184.54L131.306 183.984C131.39 183.848 131.338 183.67 131.201 183.597L129.787 182.779L129.777 182.769Z" fill="white"/>
<path d="M137.446 174.628L137.791 175.215C137.791 175.215 137.833 175.247 137.854 175.236L138.514 174.859C138.818 174.681 139.174 174.733 139.373 175.069L139.646 175.54C139.834 175.865 139.698 176.211 139.394 176.389L138.41 176.954L138.273 176.713C138.273 176.713 138.273 176.661 138.294 176.651L139.237 176.106C139.373 176.022 139.415 175.854 139.342 175.718L139.07 175.247C138.986 175.11 138.818 175.058 138.682 175.142L137.886 175.603C137.781 175.666 137.645 175.624 137.592 175.519L137.037 174.555C137.037 174.555 137.037 174.503 137.058 174.492L138.441 173.696L138.577 173.937C138.577 173.937 138.577 173.989 138.556 174L137.456 174.639L137.446 174.628Z" fill="white"/>
<path d="M139.415 173.486L139.761 174.073C139.761 174.073 139.803 174.105 139.824 174.094L140.484 173.717C140.788 173.539 141.144 173.591 141.343 173.926L141.615 174.398C141.804 174.723 141.668 175.068 141.364 175.247L140.379 175.812L140.243 175.571C140.243 175.571 140.243 175.519 140.264 175.508L141.196 174.964C141.332 174.88 141.385 174.712 141.301 174.576L141.029 174.105C140.945 173.968 140.777 173.916 140.641 174L139.845 174.461C139.74 174.524 139.604 174.482 139.551 174.377L138.996 173.413C138.996 173.413 138.996 173.361 139.017 173.35L140.4 172.554L140.536 172.795C140.536 172.795 140.536 172.847 140.515 172.858L139.415 173.497V173.486Z" fill="white"/>
<path d="M168.326 214.519C177.291 205.555 177.291 191.02 168.326 182.056C159.362 173.091 144.827 173.091 135.863 182.056C126.898 191.02 126.898 205.555 135.863 214.519C144.827 223.484 159.362 223.484 168.326 214.519Z" fill="#2D54D1"/>
<path d="M170.207 198.285C170.207 196.84 171.538 195.268 171.234 193.916C170.92 192.523 169.023 191.685 168.426 190.417C167.808 189.139 168.321 187.138 167.441 186.048C166.561 184.948 164.497 185 163.397 184.12C162.297 183.24 161.899 181.218 160.621 180.6C159.364 179.992 157.53 180.935 156.137 180.621C154.785 180.317 153.549 178.662 152.103 178.662C150.657 178.662 149.421 180.317 148.069 180.621C146.676 180.935 144.842 179.992 143.585 180.6C142.307 181.218 141.898 183.24 140.809 184.12C139.709 185 137.645 184.948 136.765 186.048C135.884 187.148 136.398 189.139 135.78 190.417C135.172 191.674 133.286 192.512 132.972 193.916C132.668 195.268 133.999 196.84 133.999 198.285C133.999 199.731 132.668 201.303 132.972 202.654C133.286 204.048 135.183 204.886 135.78 206.154C136.398 207.432 135.884 209.422 136.765 210.523C137.645 211.623 139.709 211.57 140.809 212.45C141.909 213.33 142.307 215.352 143.585 215.971C144.842 216.578 146.676 215.635 148.069 215.95C149.421 216.253 150.657 217.909 152.103 217.909C153.549 217.909 154.785 216.253 156.137 215.95C157.53 215.635 159.364 216.578 160.621 215.971C161.899 215.352 162.308 213.33 163.397 212.45C164.497 211.57 166.561 211.623 167.441 210.523C168.321 209.422 167.808 207.432 168.426 206.143C169.034 204.886 170.92 204.048 171.234 202.654C171.538 201.303 170.207 199.731 170.207 198.285Z" fill="#2D4183"/>
<path d="M162.733 208.926C168.608 203.051 168.608 193.525 162.733 187.649C156.857 181.774 147.331 181.774 141.456 187.649C135.58 193.525 135.58 203.051 141.456 208.926C147.331 214.801 156.857 214.801 162.733 208.926Z" fill="#5379F6"/>
<path d="M153.12 189.212C153.12 189.852 152.659 190.375 152.093 190.375C151.527 190.375 151.066 189.852 151.066 189.212V185.179C151.066 184.54 151.527 184.016 152.093 184.016C152.659 184.016 153.12 184.54 153.12 185.179V189.212Z" fill="white"/>
<path d="M403.094 77.5264H394.921C391.414 77.5264 388.571 80.3694 388.571 83.8764V132.91C388.571 136.417 391.414 139.26 394.921 139.26H403.094C406.601 139.26 409.444 136.417 409.444 132.91V83.8764C409.444 80.3694 406.601 77.5264 403.094 77.5264Z" fill="#2D4183"/>
<path d="M409.444 91.2205H388.571V94.6992H409.444V91.2205Z" fill="#2D4183"/>
<path d="M409.444 122.087H388.571V125.566H409.444V122.087Z" fill="#2D4183"/>
<path d="M403.094 238.819H394.921C391.414 238.819 388.571 241.662 388.571 245.169V294.202C388.571 297.71 391.414 300.553 394.921 300.553H403.094C406.601 300.553 409.444 297.71 409.444 294.202V245.169C409.444 241.662 406.601 238.819 403.094 238.819Z" fill="#2D4183"/>
<path d="M409.444 252.513H388.571V255.991H409.444V252.513Z" fill="#2D4183"/>
<path d="M409.444 283.38H388.571V286.858H409.444V283.38Z" fill="#2D4183"/>
</svg>
