<svg width="408" height="289" viewBox="0 0 408 289" fill="none" xmlns="http://www.w3.org/2000/svg">
<path d="M161.629 122.096L193.172 143.28L237.803 98.3903C241.54 93.838 242.549 80.8148 237.699 77.4781L206.906 55.9064C202.057 52.5697 192.926 54.3803 188.18 57.8722C180.2 63.7436 161.616 122.096 161.616 122.096H161.629Z" fill="black"/>
<path d="M202.134 53.8373L203.893 90.4238L238.332 78.5387C238.332 78.5387 242.07 69.9514 232.784 59.2431C223.486 48.5349 208.574 49.272 208.574 49.272L202.134 53.8373Z" fill="black"/>
<path d="M221.701 75.3832C212.454 77.155 211.29 69.5376 210.851 59.9416C210.398 50.3584 217.524 41.1503 226.771 39.3786C236.018 37.6068 243.868 43.9438 244.32 53.5269C244.773 63.1101 230.948 73.6114 221.701 75.3703V75.3832Z" fill="white"/>
<path d="M203.893 90.4237C203.893 90.4237 207.889 80.0388 207.902 67.1966C207.902 60.6915 207.643 51.9102 207.643 51.9102L202.134 53.8371L203.893 90.4237Z" fill="#2D4183"/>
<path d="M203.763 90.3331C203.763 90.3331 211.975 82.8321 223.925 78.1246C229.977 75.745 238.254 72.7964 238.254 72.7964L238.474 78.629L203.763 90.3331Z" fill="#2D4183"/>
<path d="M245.756 53.0225C244.359 47.0347 242.342 42.9867 238.19 40.1545C233.547 36.986 229.28 36.7402 223.188 37.6197C211.044 39.3785 202.134 53.8373 202.134 53.8373C202.134 53.8373 208.923 53.8373 211.756 54.7296C219.981 57.2774 228.62 63.1617 233.987 69.8997C235.836 72.2275 238.332 78.5387 238.332 78.5387C238.332 78.5387 248.549 64.9723 245.756 53.0225Z" fill="#2D4183"/>
<path d="M161.629 122.096L193.172 143.28C193.172 143.28 238.242 173.697 237.091 187.82C235.94 201.942 227.715 213 227.715 213L211.252 208.085C211.252 208.085 210.566 190.885 206.673 184.742C202.781 178.599 175.881 157.713 175.881 157.713L161.629 198.864L140.135 184.742L161.629 122.083V122.096Z" fill="black"/>
<path d="M196.676 54.665C189.731 54.665 146.471 58.6224 139.928 65.5802C133.384 72.538 159.779 98.7138 159.779 98.7138L166.84 90.3463C166.84 90.3463 156.74 77.0515 156.507 73.9865C156.3 71.2318 188.955 77.3748 188.955 77.3748L196.676 54.678V54.665Z" fill="black"/>
<path d="M155.375 105.349L177.229 72.1553C177.869 71.1831 179.177 70.9137 180.149 71.5538L241.557 111.984C242.529 112.624 242.799 113.931 242.159 114.903L220.305 148.097C219.665 149.07 218.357 149.339 217.385 148.699L155.977 108.269C155.004 107.629 154.735 106.321 155.375 105.349Z" fill="white"/>
<path d="M180.89 87.3266L178.031 91.6689L190.745 100.039L193.604 95.697L180.89 87.3266Z" fill="#CADDFE"/>
<path d="M198.66 99.4268L195.801 103.769L226.435 123.938L229.294 119.595L198.66 99.4268Z" fill="#98B9FF"/>
<path d="M174.376 97.8056L171.518 102.148L184.015 110.376L186.874 106.034L174.376 97.8056Z" fill="#CADDFE"/>
<path d="M191.792 109.068L188.933 113.41L219.783 133.721L222.641 129.379L191.792 109.068Z" fill="#98B9FF"/>
<path d="M199.819 104.288C200.39 104.288 200.853 103.825 200.853 103.253C200.853 102.682 200.39 102.219 199.819 102.219C199.247 102.219 198.784 102.682 198.784 103.253C198.784 103.825 199.247 104.288 199.819 104.288Z" fill="black"/>
<path d="M203.129 106.357C203.701 106.357 204.164 105.894 204.164 105.322C204.164 104.751 203.701 104.288 203.129 104.288C202.558 104.288 202.095 104.751 202.095 105.322C202.095 105.894 202.558 106.357 203.129 106.357Z" fill="black"/>
<path d="M193.792 112.733C193.792 113.302 193.326 113.767 192.757 113.767C192.188 113.767 191.723 113.302 191.723 112.733C191.723 112.164 192.188 111.698 192.757 111.698C193.326 111.698 193.792 112.164 193.792 112.733Z" fill="black"/>
<path d="M196.677 114.789C196.677 115.358 196.211 115.824 195.642 115.824C195.073 115.824 194.607 115.358 194.607 114.789C194.607 114.22 195.073 113.754 195.642 113.754C196.211 113.754 196.677 114.22 196.677 114.789Z" fill="black"/>
<path d="M198.785 117.893C199.356 117.893 199.819 117.43 199.819 116.858C199.819 116.287 199.356 115.824 198.785 115.824C198.213 115.824 197.75 116.287 197.75 116.858C197.75 117.43 198.213 117.893 198.785 117.893Z" fill="black"/>
<path d="M202.91 118.914C202.91 119.484 202.445 119.949 201.875 119.949C201.306 119.949 200.841 119.484 200.841 118.914C200.841 118.345 201.306 117.88 201.875 117.88C202.445 117.88 202.91 118.345 202.91 118.914Z" fill="black"/>
<path d="M206.363 120.984C206.363 121.553 205.898 122.018 205.329 122.018C204.76 122.018 204.294 121.553 204.294 120.984C204.294 120.415 204.76 119.949 205.329 119.949C205.898 119.949 206.363 120.415 206.363 120.984Z" fill="black"/>
<path d="M206.363 108.581C206.934 108.581 207.397 108.118 207.397 107.547C207.397 106.975 206.934 106.512 206.363 106.512C205.791 106.512 205.328 106.975 205.328 107.547C205.328 108.118 205.791 108.581 206.363 108.581Z" fill="black"/>
<path d="M209.777 110.845C210.348 110.845 210.811 110.381 210.811 109.81C210.811 109.239 210.348 108.775 209.777 108.775C209.205 108.775 208.742 109.239 208.742 109.81C208.742 110.381 209.205 110.845 209.777 110.845Z" fill="black"/>
<path d="M167.784 87.3457C164.228 85.4834 156.494 94.782 159.779 98.7136C163.064 102.645 175.04 91.135 167.784 87.3457Z" fill="#2D4183"/>
<path d="M240.001 80.6724C244.515 85.936 270.626 117.039 269.617 126.545C268.595 136.05 229.836 136.503 229.836 136.503L232.526 125.885C232.526 125.885 250.05 122.807 252.533 120.984C254.757 119.341 231.866 96.502 231.866 96.502L240.001 80.6724Z" fill="black"/>
<path d="M235.021 123.596C238.513 125.562 234.918 137.111 229.835 136.49C224.74 135.869 227.895 119.574 235.021 123.596Z" fill="#2D4183"/>
<path d="M402.858 73.959C405.201 73.959 407.089 72.0707 407.089 69.7278V34.7765C407.089 32.4336 405.201 30.5452 402.858 30.5452H402.666V16.8724C402.666 7.55326 395.112 0 385.793 0H16.8724C7.55325 0 0 7.55326 0 16.8724V271.742C0 281.062 7.55325 288.615 16.8724 288.615H385.793C395.112 288.615 402.666 281.062 402.666 271.742V180.299H402.858C405.201 180.299 407.089 178.411 407.089 176.068V141.117C407.089 138.774 405.201 136.885 402.858 136.885H402.666V132.462H402.858C405.201 132.462 407.089 130.573 407.089 128.231V93.2793C407.089 90.9363 405.201 89.048 402.858 89.048H402.666V73.959H402.858Z" fill="black"/>
<path d="M387.63 11.2427H15.0547V277.355H387.63V11.2427Z" fill="#5379F6" stroke="black" stroke-width="1.74844" stroke-miterlimit="10"/>
<path d="M305.362 60H97V227.343H305.362V60Z" fill="#E7EFFF" stroke="black" stroke-width="1.74844" stroke-miterlimit="10"/>
<path d="M178.99 156.805V157.854H176.437V161.578H179.584V162.645H175.283V152.171H179.584V153.238H176.437V156.805H178.99Z" fill="#5379F6"/>
<path d="M181.683 162.645H180.634V152.171H182.12L184.55 159.742V152.171H185.582V162.645H184.375L181.7 154.182V162.645H181.683Z" fill="#5379F6"/>
<path d="M188.274 162.645V153.238H186.351V152.171H191.369V153.238H189.445V162.645H188.291H188.274Z" fill="#5379F6"/>
<path d="M195.88 156.805V157.854H193.327V161.578H196.474V162.645H192.173V152.171H196.474V153.238H193.327V156.805H195.88Z" fill="#5379F6"/>
<path d="M199.866 152.171C201.51 152.171 202.192 153.011 202.192 154.567V155.423C202.192 156.577 201.79 157.294 200.898 157.574C201.86 157.854 202.209 158.641 202.209 159.76V161.386C202.209 161.858 202.209 162.277 202.419 162.645H201.23C201.09 162.347 201.038 162.068 201.038 161.368V159.725C201.038 158.536 200.478 158.169 199.517 158.169H198.695V162.645H197.523V152.171H199.849H199.866ZM199.569 157.102C200.496 157.102 201.055 156.805 201.055 155.668V154.672C201.055 153.728 200.706 153.238 199.849 153.238H198.712V157.119H199.587L199.569 157.102Z" fill="#5379F6"/>
<path d="M210.357 154.706V155.651H209.255V154.654C209.255 153.71 208.888 153.15 208.031 153.15C207.174 153.15 206.807 153.71 206.807 154.654V160.179C206.807 161.123 207.192 161.683 208.031 161.683C208.87 161.683 209.255 161.106 209.255 160.179V158.815H210.357V160.109C210.357 161.7 209.605 162.749 207.996 162.749C206.388 162.749 205.653 161.7 205.653 160.109V154.689C205.653 153.098 206.405 152.049 207.996 152.049C209.587 152.049 210.357 153.098 210.357 154.689V154.706Z" fill="#5379F6"/>
<path d="M211.336 154.707C211.336 153.098 212.123 152.066 213.731 152.066C215.34 152.066 216.144 153.098 216.144 154.707V160.127C216.144 161.718 215.357 162.767 213.731 162.767C212.105 162.767 211.336 161.718 211.336 160.127V154.707ZM212.49 160.179C212.49 161.141 212.892 161.683 213.731 161.683C214.571 161.683 214.973 161.123 214.973 160.179V154.654C214.973 153.71 214.588 153.15 213.731 153.15C212.875 153.15 212.49 153.71 212.49 154.654V160.179Z" fill="#5379F6"/>
<path d="M219.694 152.171C221.32 152.171 222.072 153.151 222.072 154.777V160.057C222.072 161.665 221.32 162.645 219.694 162.645H217.246V152.171H219.694ZM219.694 161.578C220.533 161.578 220.935 161.053 220.935 160.092V154.707C220.935 153.745 220.533 153.22 219.676 153.22H218.418V161.561H219.694V161.578Z" fill="#5379F6"/>
<path d="M226.88 156.805V157.854H224.327V161.578H227.474V162.645H223.173V152.171H227.474V153.238H224.327V156.805H226.88Z" fill="#5379F6"/>
<path d="M230.432 171.541H213.839V191.385H230.432V171.541Z" fill="white" stroke="black" stroke-width="1.74844" stroke-miterlimit="10"/>
<path d="M209.31 171.541H192.718V191.385H209.31V171.541Z" fill="white" stroke="black" stroke-width="1.74844" stroke-miterlimit="10"/>
<path d="M188.172 171.541H171.579V191.385H188.172V171.541Z" fill="white" stroke="black" stroke-width="1.74844" stroke-miterlimit="10"/>
<path d="M167.051 171.541H151.21V191.385H167.051V171.541Z" fill="white" stroke="black" stroke-width="1.74844" stroke-miterlimit="10"/>
<path d="M252.182 171.541H234.978V191.385H252.182V171.541Z" fill="white" stroke="black" stroke-width="1.74844" stroke-miterlimit="10"/>
<path d="M213.154 110.56V106.748C213.154 100.559 208.119 95.5405 201.947 95.5405C195.775 95.5405 190.739 100.576 190.739 106.748V110.56H190.529V131.646H213.381V110.56H213.172H213.154ZM202.611 122.152V125.981H200.443V122.152C199.394 121.715 198.642 120.683 198.642 119.477C198.642 117.886 199.936 116.592 201.527 116.592C203.118 116.592 204.412 117.886 204.412 119.477C204.412 120.683 203.66 121.715 202.611 122.152ZM208.888 110.56H194.988V106.748C194.988 102.919 198.1 99.8067 201.929 99.8067C205.758 99.8067 208.87 102.919 208.87 106.748V110.56H208.888Z" fill="black"/>
<path d="M159.3 189.18C158.54 189.18 157.78 189.067 157.02 188.84C156.273 188.613 155.593 188.26 154.98 187.78C154.82 187.673 154.713 187.547 154.66 187.4C154.607 187.253 154.6 187.107 154.64 186.96C154.68 186.813 154.753 186.693 154.86 186.6C154.967 186.493 155.093 186.433 155.24 186.42C155.4 186.407 155.567 186.46 155.74 186.58C156.287 186.967 156.853 187.253 157.44 187.44C158.027 187.627 158.64 187.72 159.28 187.72C159.933 187.72 160.493 187.6 160.96 187.36C161.44 187.107 161.8 186.76 162.04 186.32C162.293 185.867 162.42 185.34 162.42 184.74C162.42 183.82 162.153 183.067 161.62 182.48C161.087 181.893 160.353 181.6 159.42 181.6C158.847 181.6 158.32 181.707 157.84 181.92C157.36 182.133 156.92 182.473 156.52 182.94C156.427 183.047 156.313 183.14 156.18 183.22C156.06 183.287 155.92 183.32 155.76 183.32C155.533 183.32 155.353 183.26 155.22 183.14C155.1 183.007 155.04 182.833 155.04 182.62V175.66C155.04 175.407 155.107 175.22 155.24 175.1C155.373 174.967 155.56 174.9 155.8 174.9H162.6C162.853 174.9 163.04 174.96 163.16 175.08C163.293 175.2 163.36 175.373 163.36 175.6C163.36 175.827 163.293 176 163.16 176.12C163.04 176.24 162.853 176.3 162.6 176.3H156.66V181.92H156.22C156.567 181.36 157.047 180.933 157.66 180.64C158.273 180.333 158.96 180.18 159.72 180.18C160.613 180.18 161.38 180.367 162.02 180.74C162.673 181.113 163.173 181.64 163.52 182.32C163.88 182.987 164.06 183.767 164.06 184.66C164.06 185.54 163.867 186.32 163.48 187C163.093 187.68 162.547 188.213 161.84 188.6C161.133 188.987 160.287 189.18 159.3 189.18ZM180.572 189.18C179.466 189.18 178.519 188.913 177.732 188.38C176.959 187.833 176.372 187.047 175.972 186.02C175.572 184.993 175.372 183.753 175.372 182.3C175.372 181.073 175.499 179.993 175.752 179.06C176.006 178.127 176.379 177.34 176.872 176.7C177.366 176.047 177.966 175.553 178.672 175.22C179.379 174.887 180.179 174.72 181.072 174.72C181.686 174.72 182.312 174.84 182.952 175.08C183.606 175.32 184.179 175.66 184.672 176.1C184.819 176.207 184.906 176.34 184.932 176.5C184.972 176.647 184.972 176.793 184.932 176.94C184.892 177.073 184.819 177.187 184.712 177.28C184.619 177.373 184.499 177.427 184.352 177.44C184.206 177.44 184.052 177.38 183.892 177.26C183.439 176.873 182.972 176.6 182.492 176.44C182.012 176.267 181.526 176.18 181.032 176.18C180.166 176.18 179.426 176.393 178.812 176.82C178.212 177.247 177.752 177.893 177.432 178.76C177.126 179.613 176.972 180.687 176.972 181.98V183.84H176.792C176.872 183.08 177.092 182.427 177.452 181.88C177.826 181.32 178.299 180.893 178.872 180.6C179.446 180.307 180.092 180.16 180.812 180.16C181.639 180.16 182.372 180.347 183.012 180.72C183.652 181.093 184.152 181.62 184.512 182.3C184.872 182.967 185.052 183.733 185.052 184.6C185.052 185.48 184.866 186.267 184.492 186.96C184.119 187.653 183.592 188.2 182.912 188.6C182.232 188.987 181.452 189.18 180.572 189.18ZM180.472 187.78C181.059 187.78 181.579 187.653 182.032 187.4C182.486 187.133 182.839 186.767 183.092 186.3C183.346 185.82 183.472 185.273 183.472 184.66C183.472 184.047 183.346 183.507 183.092 183.04C182.839 182.573 182.486 182.207 182.032 181.94C181.579 181.673 181.059 181.54 180.472 181.54C179.886 181.54 179.366 181.673 178.912 181.94C178.459 182.207 178.106 182.573 177.852 183.04C177.599 183.507 177.472 184.047 177.472 184.66C177.472 185.273 177.599 185.82 177.852 186.3C178.106 186.767 178.459 187.133 178.912 187.4C179.366 187.653 179.886 187.78 180.472 187.78ZM201.664 189.18C200.558 189.18 199.611 188.913 198.824 188.38C198.051 187.833 197.464 187.047 197.064 186.02C196.664 184.993 196.464 183.753 196.464 182.3C196.464 181.073 196.591 179.993 196.844 179.06C197.098 178.127 197.471 177.34 197.964 176.7C198.458 176.047 199.058 175.553 199.764 175.22C200.471 174.887 201.271 174.72 202.164 174.72C202.778 174.72 203.404 174.84 204.044 175.08C204.698 175.32 205.271 175.66 205.764 176.1C205.911 176.207 205.998 176.34 206.024 176.5C206.064 176.647 206.064 176.793 206.024 176.94C205.984 177.073 205.911 177.187 205.804 177.28C205.711 177.373 205.591 177.427 205.444 177.44C205.298 177.44 205.144 177.38 204.984 177.26C204.531 176.873 204.064 176.6 203.584 176.44C203.104 176.267 202.618 176.18 202.124 176.18C201.258 176.18 200.518 176.393 199.904 176.82C199.304 177.247 198.844 177.893 198.524 178.76C198.218 179.613 198.064 180.687 198.064 181.98V183.84H197.884C197.964 183.08 198.184 182.427 198.544 181.88C198.918 181.32 199.391 180.893 199.964 180.6C200.538 180.307 201.184 180.16 201.904 180.16C202.731 180.16 203.464 180.347 204.104 180.72C204.744 181.093 205.244 181.62 205.604 182.3C205.964 182.967 206.144 183.733 206.144 184.6C206.144 185.48 205.958 186.267 205.584 186.96C205.211 187.653 204.684 188.2 204.004 188.6C203.324 188.987 202.544 189.18 201.664 189.18ZM201.564 187.78C202.151 187.78 202.671 187.653 203.124 187.4C203.578 187.133 203.931 186.767 204.184 186.3C204.438 185.82 204.564 185.273 204.564 184.66C204.564 184.047 204.438 183.507 204.184 183.04C203.931 182.573 203.578 182.207 203.124 181.94C202.671 181.673 202.151 181.54 201.564 181.54C200.978 181.54 200.458 181.673 200.004 181.94C199.551 182.207 199.198 182.573 198.944 183.04C198.691 183.507 198.564 184.047 198.564 184.66C198.564 185.273 198.691 185.82 198.944 186.3C199.198 186.767 199.551 187.133 200.004 187.4C200.458 187.653 200.978 187.78 201.564 187.78ZM221.297 189.18C220.697 189.18 220.07 189.06 219.417 188.82C218.763 188.58 218.19 188.233 217.697 187.78C217.55 187.673 217.457 187.547 217.417 187.4C217.39 187.253 217.397 187.113 217.437 186.98C217.477 186.833 217.543 186.713 217.637 186.62C217.743 186.513 217.87 186.46 218.017 186.46C218.163 186.447 218.317 186.5 218.477 186.62C218.93 187.007 219.397 187.287 219.877 187.46C220.357 187.633 220.843 187.72 221.337 187.72C222.203 187.72 222.937 187.507 223.537 187.08C224.15 186.653 224.61 186.007 224.917 185.14C225.237 184.273 225.397 183.2 225.397 181.92V180.06H225.577C225.497 180.807 225.27 181.46 224.897 182.02C224.537 182.58 224.07 183.007 223.497 183.3C222.923 183.593 222.277 183.74 221.557 183.74C220.73 183.74 219.997 183.553 219.357 183.18C218.717 182.807 218.217 182.28 217.857 181.6C217.497 180.92 217.317 180.153 217.317 179.3C217.317 178.407 217.503 177.62 217.877 176.94C218.263 176.247 218.79 175.707 219.457 175.32C220.137 174.92 220.917 174.72 221.797 174.72C222.903 174.72 223.843 174.993 224.617 175.54C225.403 176.073 225.997 176.853 226.397 177.88C226.797 178.907 226.997 180.147 226.997 181.6C226.997 182.827 226.87 183.907 226.617 184.84C226.363 185.773 225.99 186.567 225.497 187.22C225.003 187.86 224.403 188.347 223.697 188.68C222.99 189.013 222.19 189.18 221.297 189.18ZM221.897 182.36C222.497 182.36 223.023 182.227 223.477 181.96C223.93 181.693 224.283 181.327 224.537 180.86C224.79 180.38 224.917 179.833 224.917 179.22C224.917 178.607 224.79 178.067 224.537 177.6C224.283 177.133 223.93 176.767 223.477 176.5C223.023 176.233 222.497 176.1 221.897 176.1C221.31 176.1 220.79 176.233 220.337 176.5C219.897 176.767 219.543 177.133 219.277 177.6C219.023 178.067 218.897 178.607 218.897 179.22C218.897 179.833 219.023 180.38 219.277 180.86C219.543 181.327 219.897 181.693 220.337 181.96C220.79 182.227 221.31 182.36 221.897 182.36ZM243.369 189.18C242.315 189.18 241.409 189.027 240.649 188.72C239.902 188.413 239.329 187.967 238.929 187.38C238.542 186.793 238.349 186.087 238.349 185.26C238.349 184.607 238.482 184.027 238.749 183.52C239.015 183 239.389 182.58 239.869 182.26C240.349 181.94 240.902 181.74 241.529 181.66V181.96C240.662 181.773 239.969 181.367 239.449 180.74C238.942 180.1 238.689 179.347 238.689 178.48C238.689 177.68 238.875 177.007 239.249 176.46C239.635 175.9 240.182 175.473 240.889 175.18C241.595 174.873 242.422 174.72 243.369 174.72C244.329 174.72 245.155 174.873 245.849 175.18C246.555 175.473 247.102 175.9 247.489 176.46C247.875 177.007 248.069 177.68 248.069 178.48C248.069 179.053 247.949 179.587 247.709 180.08C247.482 180.56 247.155 180.96 246.729 181.28C246.302 181.6 245.802 181.82 245.229 181.94V181.66C246.175 181.793 246.935 182.187 247.509 182.84C248.095 183.48 248.389 184.287 248.389 185.26C248.389 186.087 248.189 186.793 247.789 187.38C247.402 187.967 246.829 188.413 246.069 188.72C245.322 189.027 244.422 189.18 243.369 189.18ZM243.369 187.82C244.502 187.82 245.355 187.6 245.929 187.16C246.515 186.72 246.809 186.053 246.809 185.16C246.809 184.28 246.515 183.627 245.929 183.2C245.355 182.76 244.502 182.54 243.369 182.54C242.249 182.54 241.395 182.76 240.809 183.2C240.222 183.627 239.929 184.28 239.929 185.16C239.929 186.053 240.222 186.72 240.809 187.16C241.395 187.6 242.249 187.82 243.369 187.82ZM243.369 181.18C244.022 181.18 244.575 181.08 245.029 180.88C245.495 180.667 245.855 180.367 246.109 179.98C246.362 179.593 246.489 179.14 246.489 178.62C246.489 177.82 246.209 177.2 245.649 176.76C245.102 176.307 244.342 176.08 243.369 176.08C242.395 176.08 241.635 176.307 241.089 176.76C240.542 177.2 240.269 177.82 240.269 178.62C240.269 179.42 240.542 180.047 241.089 180.5C241.635 180.953 242.395 181.18 243.369 181.18ZM157.016 208.64C156.843 208.547 156.743 208.413 156.716 208.24C156.703 208.067 156.756 207.88 156.876 207.68L158.276 205.48L158.496 205.8L155.876 205.9C155.636 205.9 155.443 205.853 155.296 205.76C155.163 205.653 155.096 205.5 155.096 205.3C155.096 205.113 155.163 204.973 155.296 204.88C155.443 204.773 155.636 204.727 155.876 204.74L158.496 204.84L158.276 205.14L156.896 202.92C156.763 202.72 156.71 202.533 156.736 202.36C156.763 202.187 156.856 202.053 157.016 201.96C157.176 201.867 157.336 201.86 157.496 201.94C157.67 202.02 157.81 202.167 157.916 202.38L159.056 204.58H158.856L159.996 202.38C160.116 202.167 160.256 202.02 160.416 201.94C160.59 201.86 160.756 201.867 160.916 201.96C161.076 202.067 161.163 202.207 161.176 202.38C161.203 202.553 161.15 202.74 161.016 202.94L159.636 205.14L159.416 204.84L162.036 204.74C162.276 204.727 162.463 204.773 162.596 204.88C162.743 204.973 162.816 205.113 162.816 205.3C162.816 205.5 162.743 205.653 162.596 205.76C162.463 205.853 162.276 205.9 162.036 205.9L159.416 205.8L159.636 205.48L161.016 207.68C161.15 207.88 161.203 208.067 161.176 208.24C161.163 208.4 161.076 208.527 160.916 208.62C160.743 208.727 160.57 208.74 160.396 208.66C160.236 208.58 160.103 208.44 159.996 208.24L158.856 206.04H159.056L157.896 208.24C157.79 208.453 157.656 208.6 157.496 208.68C157.336 208.76 157.176 208.747 157.016 208.64ZM178.12 208.64C177.947 208.547 177.847 208.413 177.82 208.24C177.807 208.067 177.86 207.88 177.98 207.68L179.38 205.48L179.6 205.8L176.98 205.9C176.74 205.9 176.547 205.853 176.4 205.76C176.267 205.653 176.2 205.5 176.2 205.3C176.2 205.113 176.267 204.973 176.4 204.88C176.547 204.773 176.74 204.727 176.98 204.74L179.6 204.84L179.38 205.14L178 202.92C177.867 202.72 177.813 202.533 177.84 202.36C177.867 202.187 177.96 202.053 178.12 201.96C178.28 201.867 178.44 201.86 178.6 201.94C178.773 202.02 178.913 202.167 179.02 202.38L180.16 204.58H179.96L181.1 202.38C181.22 202.167 181.36 202.02 181.52 201.94C181.693 201.86 181.86 201.867 182.02 201.96C182.18 202.067 182.267 202.207 182.28 202.38C182.307 202.553 182.253 202.74 182.12 202.94L180.74 205.14L180.52 204.84L183.14 204.74C183.38 204.727 183.567 204.773 183.7 204.88C183.847 204.973 183.92 205.113 183.92 205.3C183.92 205.5 183.847 205.653 183.7 205.76C183.567 205.853 183.38 205.9 183.14 205.9L180.52 205.8L180.74 205.48L182.12 207.68C182.253 207.88 182.307 208.067 182.28 208.24C182.267 208.4 182.18 208.527 182.02 208.62C181.847 208.727 181.673 208.74 181.5 208.66C181.34 208.58 181.207 208.44 181.1 208.24L179.96 206.04H180.16L179 208.24C178.893 208.453 178.76 208.6 178.6 208.68C178.44 208.76 178.28 208.747 178.12 208.64ZM199.224 208.64C199.051 208.547 198.951 208.413 198.924 208.24C198.911 208.067 198.964 207.88 199.084 207.68L200.484 205.48L200.704 205.8L198.084 205.9C197.844 205.9 197.651 205.853 197.504 205.76C197.371 205.653 197.304 205.5 197.304 205.3C197.304 205.113 197.371 204.973 197.504 204.88C197.651 204.773 197.844 204.727 198.084 204.74L200.704 204.84L200.484 205.14L199.104 202.92C198.971 202.72 198.917 202.533 198.944 202.36C198.971 202.187 199.064 202.053 199.224 201.96C199.384 201.867 199.544 201.86 199.704 201.94C199.877 202.02 200.017 202.167 200.124 202.38L201.264 204.58H201.064L202.204 202.38C202.324 202.167 202.464 202.02 202.624 201.94C202.797 201.86 202.964 201.867 203.124 201.96C203.284 202.067 203.371 202.207 203.384 202.38C203.411 202.553 203.357 202.74 203.224 202.94L201.844 205.14L201.624 204.84L204.244 204.74C204.484 204.727 204.671 204.773 204.804 204.88C204.951 204.973 205.024 205.113 205.024 205.3C205.024 205.5 204.951 205.653 204.804 205.76C204.671 205.853 204.484 205.9 204.244 205.9L201.624 205.8L201.844 205.48L203.224 207.68C203.357 207.88 203.411 208.067 203.384 208.24C203.371 208.4 203.284 208.527 203.124 208.62C202.951 208.727 202.777 208.74 202.604 208.66C202.444 208.58 202.311 208.44 202.204 208.24L201.064 206.04H201.264L200.104 208.24C199.997 208.453 199.864 208.6 199.704 208.68C199.544 208.76 199.384 208.747 199.224 208.64ZM220.328 208.64C220.155 208.547 220.055 208.413 220.028 208.24C220.015 208.067 220.068 207.88 220.188 207.68L221.588 205.48L221.808 205.8L219.188 205.9C218.948 205.9 218.755 205.853 218.608 205.76C218.475 205.653 218.408 205.5 218.408 205.3C218.408 205.113 218.475 204.973 218.608 204.88C218.755 204.773 218.948 204.727 219.188 204.74L221.808 204.84L221.588 205.14L220.208 202.92C220.075 202.72 220.021 202.533 220.048 202.36C220.075 202.187 220.168 202.053 220.328 201.96C220.488 201.867 220.648 201.86 220.808 201.94C220.981 202.02 221.121 202.167 221.228 202.38L222.368 204.58H222.168L223.308 202.38C223.428 202.167 223.568 202.02 223.728 201.94C223.901 201.86 224.068 201.867 224.228 201.96C224.388 202.067 224.475 202.207 224.488 202.38C224.515 202.553 224.461 202.74 224.328 202.94L222.948 205.14L222.728 204.84L225.348 204.74C225.588 204.727 225.775 204.773 225.908 204.88C226.055 204.973 226.128 205.113 226.128 205.3C226.128 205.5 226.055 205.653 225.908 205.76C225.775 205.853 225.588 205.9 225.348 205.9L222.728 205.8L222.948 205.48L224.328 207.68C224.461 207.88 224.515 208.067 224.488 208.24C224.475 208.4 224.388 208.527 224.228 208.62C224.055 208.727 223.881 208.74 223.708 208.66C223.548 208.58 223.415 208.44 223.308 208.24L222.168 206.04H222.368L221.208 208.24C221.101 208.453 220.968 208.6 220.808 208.68C220.648 208.76 220.488 208.747 220.328 208.64ZM241.432 208.64C241.259 208.547 241.159 208.413 241.132 208.24C241.119 208.067 241.172 207.88 241.292 207.68L242.692 205.48L242.912 205.8L240.292 205.9C240.052 205.9 239.859 205.853 239.712 205.76C239.579 205.653 239.512 205.5 239.512 205.3C239.512 205.113 239.579 204.973 239.712 204.88C239.859 204.773 240.052 204.727 240.292 204.74L242.912 204.84L242.692 205.14L241.312 202.92C241.179 202.72 241.125 202.533 241.152 202.36C241.179 202.187 241.272 202.053 241.432 201.96C241.592 201.867 241.752 201.86 241.912 201.94C242.085 202.02 242.225 202.167 242.332 202.38L243.472 204.58H243.272L244.412 202.38C244.532 202.167 244.672 202.02 244.832 201.94C245.005 201.86 245.172 201.867 245.332 201.96C245.492 202.067 245.579 202.207 245.592 202.38C245.619 202.553 245.565 202.74 245.432 202.94L244.052 205.14L243.832 204.84L246.452 204.74C246.692 204.727 246.879 204.773 247.012 204.88C247.159 204.973 247.232 205.113 247.232 205.3C247.232 205.5 247.159 205.653 247.012 205.76C246.879 205.853 246.692 205.9 246.452 205.9L243.832 205.8L244.052 205.48L245.432 207.68C245.565 207.88 245.619 208.067 245.592 208.24C245.579 208.4 245.492 208.527 245.332 208.62C245.159 208.727 244.985 208.74 244.812 208.66C244.652 208.58 244.519 208.44 244.412 208.24L243.272 206.04H243.472L242.312 208.24C242.205 208.453 242.072 208.6 241.912 208.68C241.752 208.76 241.592 208.747 241.432 208.64Z" fill="black"/>
</svg>
