<svg width="551" height="423" viewBox="0 0 551 423" fill="none" xmlns="http://www.w3.org/2000/svg">
<path d="M275.5 423C393.413 423 489 411.359 489 397C489 382.641 393.413 371 275.5 371C157.587 371 62 382.641 62 397C62 411.359 157.587 423 275.5 423Z" fill="#CADDFE"/>
<path d="M262.708 311.635H49.9301C46.4589 311.635 43.6489 308.814 43.6489 305.343V6.23712C43.682 2.78797 46.481 0.0110196 49.9301 0H262.708C266.18 0 269.001 2.82103 269.001 6.29222V305.343C269.001 308.814 266.18 311.635 262.708 311.635Z" fill="#CADDFE"/>
<path d="M94.703 367.483H49.291V367.758H94.703V367.483Z" fill="#CADDFE"/>
<path d="M187.268 365.279H141.724V365.555H187.268V365.279Z" fill="#CADDFE"/>
<path d="M246.531 365.279H235.512V365.555H246.531V365.279Z" fill="#CADDFE"/>
<path d="M136.39 374.69H85.4243V374.965H136.39V374.69Z" fill="#CADDFE"/>
<path d="M312.672 367.34H288.869V367.615H312.672V367.34Z" fill="#CADDFE"/>
<path d="M353.256 367.34H322.479V367.615H353.256V367.34Z" fill="#CADDFE"/>
<path d="M501.691 372.001H432.885V372.276H501.691V372.001Z" fill="#CADDFE"/>
<path d="M550.982 356.673H0V356.948H550.982V356.673Z" fill="#CADDFE"/>
<path opacity="0.8" d="M368.97 22.8659L366.226 60.6302C366.138 61.9416 365.565 63.1427 364.695 64.0353C363.692 65.1042 362.259 65.7764 360.717 65.7764H330.424C329.3 65.7764 328.297 65.4238 327.492 64.8067C326.247 63.881 325.509 62.3493 325.63 60.6302L328.374 22.8659C328.572 20.0228 331.041 17.7197 333.884 17.7197H364.177C367.02 17.7197 369.169 20.0228 368.97 22.8659Z" fill="#CADDFE"/>
<path d="M355.835 39.9685C355.45 45.5444 351.417 50.0514 346.843 50.0514C342.27 50.0514 338.865 45.5334 339.262 39.9685C339.648 34.3925 343.681 29.8855 348.254 29.8855C352.827 29.8855 356.232 34.4036 355.835 39.9685Z" fill="white"/>
<path d="M359.659 63.1869H331.934C330.182 63.1869 328.959 62.3494 328.914 61.1593C328.848 59.4512 337.84 52.013 346.37 52.6521C346.403 52.6521 346.436 52.6521 346.458 52.6521C346.458 52.6521 346.524 52.6521 346.557 52.6521C351.78 52.6742 356.706 54.8891 360.838 58.1509C364.949 61.4017 361.059 63.1869 359.648 63.1869H359.659Z" fill="white"/>
<path d="M212.701 64.4099C206.806 64.487 201.604 59.7376 201.12 53.8421C200.635 47.9355 205.032 43.0759 210.938 42.9987C216.834 42.9216 222.035 47.6711 222.52 53.5666C223.005 59.4621 218.608 64.3328 212.701 64.4099ZM211.401 48.6849C208.635 48.7179 206.574 50.999 206.806 53.7649C207.037 56.5309 209.472 58.7568 212.227 58.7238C214.993 58.6907 217.054 56.4096 216.823 53.6437C216.591 50.8778 214.156 48.6518 211.401 48.6849Z" fill="#5379F6"/>
<path d="M213.23 47.8585L209.175 47.9136L207.015 21.775L211.081 21.731L213.23 47.8585Z" fill="#5379F6"/>
<path d="M214.927 22.899L207.301 22.9982L206.971 18.9319L214.585 18.8328L214.927 22.899Z" fill="#5379F6"/>
<path d="M215.357 28.1224L208.194 28.2106L207.863 24.1443L215.026 24.0562L215.357 28.1224Z" fill="#5379F6"/>
<path d="M215.985 35.4835L209.726 35.5606L209.396 31.5054L215.644 31.4282L215.985 35.4835Z" fill="#5379F6"/>
<path d="M87.3967 286.555C87.4187 286.886 87.4628 287.216 87.5179 287.536C87.8816 289.663 88.9946 291.58 90.5263 293.013C92.2894 294.666 94.6476 295.69 97.1711 295.69H190.276C194.992 295.69 198.618 292.12 198.783 287.536C198.783 287.216 198.783 286.886 198.772 286.555C198.596 284.043 197.417 281.751 195.643 280.109C193.879 278.456 191.521 277.431 188.998 277.431H95.8928C90.8458 277.431 87.0441 281.519 87.3967 286.555Z" fill="#CADDFE"/>
<path d="M198.783 287.536C198.783 287.833 198.75 288.131 198.706 288.418C198.464 286.037 197.295 283.877 195.609 282.313C193.846 280.66 191.488 279.635 188.965 279.635L89.9531 279.789C91.4628 278.323 93.5565 277.431 95.9037 277.431H189.009C191.532 277.431 193.879 278.456 195.654 280.109C197.417 281.751 198.618 284.043 198.794 286.555C198.805 286.886 198.816 287.216 198.794 287.536H198.783Z" fill="#CADDFE"/>
<path d="M182.849 281.828L183.157 286.28L187.334 284.737L188.281 286.941L184.017 288.351L186.992 292.087L185.064 293.497L182.166 289.619L179.851 293.497L177.791 292.087L180.204 288.351L175.785 286.941L176.424 284.759L180.854 286.247L180.546 281.839H182.849V281.828Z" fill="#2D54D1"/>
<path d="M157.382 281.828L157.691 286.28L161.867 284.737L162.815 286.941L158.55 288.351L161.525 292.087L159.597 293.497L156.699 289.619L154.385 293.497L152.324 292.087L154.737 288.351L150.318 286.941L150.958 284.759L155.387 286.247L155.079 281.839H157.382V281.828Z" fill="#2D54D1"/>
<path d="M131.927 281.828L132.235 286.28L136.412 284.737L137.36 286.941L133.095 288.351L136.07 292.087L134.142 293.497L131.244 289.619L128.93 293.497L126.869 292.087L129.282 288.351L124.863 286.941L125.502 284.759L129.932 286.247L129.624 281.839H131.927V281.828Z" fill="#2D54D1"/>
<path d="M106.461 281.828L106.769 286.28L110.946 284.737L111.893 286.941L107.629 288.351L110.604 292.087L108.676 293.497L105.777 289.619L103.463 293.497L101.403 292.087L103.816 288.351L99.397 286.941L100.036 284.759L104.466 286.247L104.157 281.839H106.461V281.828Z" fill="#2D54D1"/>
<path d="M168.303 274.213H163.973L163.984 273.111H168.325L168.303 274.213Z" fill="#CADDFE"/>
<path d="M186.971 274.213H172.811L172.833 273.111H186.993L186.971 274.213Z" fill="#CADDFE"/>
<g opacity="0.8">
<path d="M296.847 268.659L314.401 295.69L372.32 237.771C372.827 237.264 372.133 236.471 371.56 236.912L316.363 280.175L305.938 263.37L296.836 268.659H296.847Z" fill="#CADDFE"/>
</g>
<path opacity="0.1" d="M286.357 76.2778L244.769 231.831H258.752L299.878 76.2778H286.357Z" fill="white"/>
<path opacity="0.1" d="M307.945 76.2778L266.356 231.831H294.104L335.229 76.2778H307.945Z" fill="white"/>
<path d="M457.657 216.624L466.429 91.7716C466.715 87.6503 463.597 84.3003 459.442 84.3113L241.551 84.4986C237.407 84.4986 233.815 87.8486 233.517 91.97L224.746 216.823C224.459 220.944 227.578 224.294 231.732 224.283L449.624 224.095C453.767 224.095 457.359 220.746 457.657 216.624Z" fill="black"/>
<path d="M454.858 213.902L463.63 89.0497C463.916 84.9283 460.798 81.5784 456.643 81.5894L238.752 81.7767C234.609 81.7767 231.016 85.1267 230.719 89.248L221.947 214.101C221.66 218.222 224.779 221.572 228.933 221.561L446.825 221.374C450.968 221.374 454.561 218.024 454.858 213.902Z" fill="#5379F6"/>
<path opacity="0.6" d="M449.084 215.754C448.776 216.04 448.236 216.393 447.442 216.393L229.551 216.58C228.085 216.58 226.884 215.302 226.994 213.847L235.766 88.9946C235.821 88.2122 236.207 87.7053 236.515 87.4078C236.824 87.1213 237.364 86.7686 238.157 86.7686L456.049 86.5813C457.514 86.5813 458.704 87.8596 458.605 89.3142L449.834 214.167C449.778 214.949 449.393 215.456 449.084 215.754Z" fill="white"/>
<path d="M376.608 147.112H300.121C298.754 147.112 297.531 148.214 297.388 149.57L296.22 160.755C296.077 162.11 297.068 163.212 298.435 163.212H374.922C376.289 163.212 377.512 162.11 377.655 160.755L378.823 149.57C378.966 148.214 377.975 147.112 376.608 147.112Z" fill="#E7EFFF"/>
<path d="M309.223 192.789H297.289C295.922 192.789 294.699 193.891 294.556 195.246L293.388 206.431C293.245 207.786 294.236 208.888 295.603 208.888H307.537C308.903 208.888 310.127 207.786 310.27 206.431L311.438 195.246C311.581 193.891 310.589 192.789 309.223 192.789Z" fill="white"/>
<path d="M329.829 192.789H317.895C316.529 192.789 315.306 193.891 315.162 195.246L313.994 206.431C313.851 207.786 314.843 208.888 316.209 208.888H328.143C329.51 208.888 330.733 207.786 330.876 206.431L332.044 195.246C332.188 193.891 331.196 192.789 329.829 192.789Z" fill="white"/>
<path d="M350.437 192.789H338.503C337.136 192.789 335.913 193.891 335.77 195.246L334.602 206.431C334.458 207.786 335.45 208.888 336.817 208.888H348.751C350.117 208.888 351.34 207.786 351.484 206.431L352.652 195.246C352.795 193.891 351.803 192.789 350.437 192.789Z" fill="white"/>
<path d="M371.043 192.789H359.109C357.743 192.789 356.519 193.891 356.376 195.246L355.208 206.431C355.065 207.786 356.057 208.888 357.423 208.888H369.357C370.724 208.888 371.947 207.786 372.09 206.431L373.258 195.246C373.402 193.891 372.41 192.789 371.043 192.789Z" fill="white"/>
<path d="M309.719 185.174H357.566C359.891 185.174 361.974 183.301 362.216 180.987L362.789 175.499C363.032 173.185 361.346 171.311 359.021 171.311H311.173C308.848 171.311 306.765 173.185 306.523 175.499L305.95 180.987C305.708 183.301 307.394 185.174 309.719 185.174Z" stroke="#5379F6" stroke-width="1.10196" stroke-linecap="round" stroke-linejoin="round"/>
<path d="M379.363 123.817H302.876C301.509 123.817 300.286 124.919 300.143 126.274L298.975 137.459C298.831 138.814 299.823 139.916 301.19 139.916H377.677C379.043 139.916 380.267 138.814 380.41 137.459L381.578 126.274C381.721 124.919 380.729 123.817 379.363 123.817Z" fill="#E7EFFF"/>
<path d="M309.421 155.167C309.575 153.658 308.484 152.446 306.964 152.446C305.443 152.446 304.098 153.669 303.944 155.167C303.79 156.677 304.881 157.889 306.402 157.889C307.922 157.889 309.267 156.666 309.421 155.167Z" fill="black"/>
<path d="M317.84 155.167C317.994 153.658 316.903 152.446 315.383 152.446C313.862 152.446 312.517 153.669 312.363 155.167C312.209 156.677 313.3 157.889 314.821 157.889C316.341 157.889 317.686 156.666 317.84 155.167Z" fill="black"/>
<path d="M326.248 155.167C326.402 153.658 325.311 152.446 323.791 152.446C322.27 152.446 320.926 153.669 320.771 155.167C320.617 156.677 321.708 157.889 323.229 157.889C324.749 157.889 326.094 156.666 326.248 155.167Z" fill="black"/>
<path d="M334.656 155.167C334.811 153.658 333.72 152.446 332.199 152.446C330.678 152.446 329.334 153.669 329.18 155.167C329.025 156.677 330.116 157.889 331.637 157.889C333.158 157.889 334.502 156.666 334.656 155.167Z" fill="black"/>
<path d="M343.24 155.167C343.395 153.658 342.304 152.446 340.783 152.446C339.262 152.446 337.918 153.669 337.764 155.167C337.609 156.677 338.7 157.889 340.221 157.889C341.742 157.889 343.086 156.666 343.24 155.167Z" fill="black"/>
<path d="M312.176 131.872C312.33 130.362 311.239 129.15 309.718 129.15C308.198 129.15 306.853 130.373 306.699 131.872C306.545 133.382 307.636 134.594 309.156 134.594C310.677 134.594 312.022 133.371 312.176 131.872Z" fill="black"/>
<path d="M320.595 131.872C320.749 130.362 319.658 129.15 318.137 129.15C316.617 129.15 315.272 130.373 315.118 131.872C314.964 133.382 316.055 134.594 317.575 134.594C319.096 134.594 320.441 133.371 320.595 131.872Z" fill="black"/>
<path d="M329.003 131.872C329.157 130.362 328.066 129.15 326.546 129.15C325.025 129.15 323.681 130.373 323.526 131.872C323.372 133.382 324.463 134.594 325.984 134.594C327.504 134.594 328.849 133.371 329.003 131.872Z" fill="black"/>
<path d="M337.411 131.872C337.565 130.362 336.475 129.15 334.954 129.15C333.433 129.15 332.089 130.373 331.934 131.872C331.78 133.382 332.871 134.594 334.392 134.594C335.913 134.594 337.257 133.371 337.411 131.872Z" fill="black"/>
<path d="M345.83 131.872C345.984 130.362 344.894 129.15 343.373 129.15C341.852 129.15 340.508 130.373 340.353 131.872C340.199 133.382 341.29 134.594 342.811 134.594C344.332 134.594 345.676 133.371 345.83 131.872Z" fill="black"/>
<path d="M354.238 131.872C354.393 130.362 353.302 129.15 351.781 129.15C350.26 129.15 348.916 130.373 348.762 131.872C348.607 133.382 349.698 134.594 351.219 134.594C352.74 134.594 354.084 133.371 354.238 131.872Z" fill="black"/>
<path d="M347.097 99.1548L346.502 104.808C346.447 105.315 345.995 105.733 345.477 105.733C344.959 105.733 344.596 105.326 344.651 104.808L345.246 99.1548C345.433 97.3255 344.1 95.8489 342.27 95.8489H340.243C338.414 95.8489 336.761 97.3365 336.573 99.1548L336.055 104.4H334.204L334.722 99.1548C335.02 96.3117 337.587 93.9976 340.441 93.9976H342.469C345.323 93.9976 347.406 96.3117 347.097 99.1548Z" fill="#5379F6"/>
<path d="M347.13 104.599L345.973 115.607C345.896 116.301 345.279 116.863 344.574 116.863H333.51C332.816 116.863 332.309 116.301 332.375 115.607L333.532 104.599C333.576 104.147 333.863 103.75 334.237 103.53C334.447 103.408 334.678 103.342 334.932 103.342H345.984C346.227 103.342 346.436 103.408 346.623 103.519C346.965 103.739 347.174 104.136 347.119 104.599H347.13Z" fill="#5379F6"/>
<path d="M433.413 80.8623L406.481 81.0166" stroke="black" stroke-width="1.10196" stroke-linecap="round" stroke-linejoin="round"/>
<path d="M448.091 80.7849L438.57 80.829" stroke="black" stroke-width="1.10196" stroke-linecap="round" stroke-linejoin="round"/>
<g opacity="0.3">
<path d="M259.072 86.7356H289.905L258.566 216.569H233.749C233.749 216.569 233.705 216.569 233.683 216.569C230.609 216.558 228.449 213.616 229.165 210.629L259.072 86.7246V86.7356Z" fill="white"/>
<path d="M303.592 86.7356H316.672L285.332 216.58H272.252L303.592 86.7356Z" fill="white"/>
</g>
<path d="M95.4857 46.2053H101.745C95.4526 46.2053 90.7032 51.3074 91.144 57.5996L104.423 247.468C104.863 253.76 110.318 258.862 116.621 258.862H110.362C104.07 258.862 98.6043 253.76 98.1635 247.468L84.8848 57.5996C84.444 51.3074 89.1935 46.2053 95.4857 46.2053Z" fill="#5379F6"/>
<path d="M95.4857 46.2053H101.745C95.4527 46.2053 90.7032 51.3074 91.144 57.5996L104.423 247.468C104.863 253.76 110.318 258.862 116.621 258.862H110.362C104.07 258.862 97.7227 253.76 97.2819 247.468L84.0033 57.5996C83.5625 51.3074 89.1935 46.2053 95.4857 46.2053Z" fill="black"/>
<path d="M112.225 258.873H188.811C195.103 258.873 199.853 253.771 199.412 247.479L186.133 57.6106C185.692 51.3184 180.238 46.2163 173.935 46.2163H97.348C91.0558 46.2163 86.3063 51.3184 86.7471 57.6106L100.026 247.479C100.467 253.771 105.921 258.873 112.225 258.873Z" fill="#5379F6"/>
<g opacity="0.6">
<path d="M173.736 49.8638C178.111 49.8638 181.913 53.4231 182.221 57.7979L195.5 247.666C195.643 249.705 194.993 251.6 193.671 253.022C192.349 254.432 190.508 255.215 188.481 255.215H111.894C107.519 255.215 103.718 251.655 103.409 247.281L90.1303 57.4122C89.9871 55.3736 90.6372 53.4782 91.9596 52.0567C93.2819 50.6462 95.1222 49.8638 97.1498 49.8638H173.736Z" fill="white"/>
</g>
<g opacity="0.3">
<path d="M152.105 255.215H121.559L146.749 49.8638H171.334C173.571 49.8638 175.577 50.8004 176.998 52.2991L152.105 255.204V255.215Z" fill="white"/>
<path d="M116.081 255.215H109.205L134.396 49.8638H141.272L116.081 255.215Z" fill="white"/>
</g>
<path d="M113.701 139.586H169.174" stroke="white" stroke-width="1.10196" stroke-linecap="round" stroke-linejoin="round"/>
<path d="M120.853 147.795H164.303" stroke="white" stroke-width="1.10196" stroke-linecap="round" stroke-linejoin="round"/>
<path d="M115.354 101.766L115.431 103.948H114.01L113.932 101.755L111.42 97.7991H112.93L114.671 100.532L116.213 97.7991H117.613L115.365 101.766H115.354Z" fill="#5379F6"/>
<path d="M117.657 100.863C117.59 99.0334 118.968 97.678 120.907 97.678C122.847 97.678 124.312 99.0224 124.379 100.863C124.445 102.703 123.056 104.047 121.128 104.047C119.199 104.047 117.723 102.692 117.657 100.863ZM122.935 100.863C122.891 99.6946 122.042 98.8901 120.94 98.8901C119.838 98.8901 119.045 99.6946 119.089 100.863C119.133 102.031 119.982 102.835 121.084 102.835C122.186 102.835 122.979 102.031 122.935 100.863Z" fill="#5379F6"/>
<path d="M125.415 101.237L125.294 97.7881H126.715L126.837 101.182C126.881 102.35 127.399 102.835 128.269 102.835C129.14 102.835 129.625 102.35 129.581 101.182L129.459 97.7881H130.859L130.98 101.237C131.046 103.044 130.043 104.047 128.302 104.047C126.561 104.047 125.481 103.044 125.415 101.237Z" fill="#5379F6"/>
<path d="M136.401 103.948L135.156 102.229H133.845L133.9 103.948H132.478L132.258 97.7991H134.914C136.555 97.7991 137.613 98.6476 137.657 100.036C137.69 100.962 137.25 101.634 136.467 101.976L137.911 103.948H136.379H136.401ZM134.892 98.9561H133.734L133.812 101.105H134.969C135.839 101.105 136.258 100.697 136.236 100.036C136.214 99.3639 135.762 98.9672 134.892 98.9672V98.9561Z" fill="#5379F6"/>
<path d="M140.942 100.863C140.876 99.0114 142.253 97.678 144.159 97.678C145.217 97.678 146.121 98.0637 146.727 98.7689L145.845 99.6174C145.416 99.1436 144.887 98.9012 144.281 98.9012C143.135 98.9012 142.341 99.7056 142.385 100.874C142.429 102.031 143.267 102.846 144.424 102.846C145.041 102.846 145.548 102.604 145.945 102.119L146.892 102.967C146.341 103.684 145.471 104.069 144.391 104.069C142.484 104.069 141.019 102.747 140.953 100.885L140.942 100.863Z" fill="#5379F6"/>
<path d="M147.244 100.863C147.178 99.0334 148.556 97.678 150.495 97.678C152.435 97.678 153.9 99.0224 153.966 100.863C154.033 102.703 152.644 104.047 150.716 104.047C148.787 104.047 147.311 102.692 147.244 100.863ZM152.523 100.863C152.479 99.6946 151.63 98.8901 150.528 98.8901C149.426 98.8901 148.633 99.6946 148.677 100.863C148.721 102.031 149.57 102.835 150.672 102.835C151.774 102.835 152.567 102.031 152.523 100.863Z" fill="#5379F6"/>
<path d="M154.937 97.7881H157.725C159.73 97.7881 161.152 99.0002 161.218 100.863C161.284 102.725 159.951 103.937 157.934 103.937H155.146L154.926 97.7881H154.937ZM157.835 102.769C159.058 102.769 159.83 102.042 159.785 100.863C159.741 99.6835 158.915 98.9562 157.703 98.9562H156.402L156.535 102.769H157.835Z" fill="#5379F6"/>
<path d="M167.124 102.802L167.168 103.948H162.408L162.188 97.7991H166.827L166.871 98.9451H163.642L163.686 100.278H166.54L166.584 101.391H163.73L163.774 102.813H167.124V102.802Z" fill="#5379F6"/>
<path d="M126.043 126.814L126.087 129.282H114.483L114.45 127.332L120.599 121.403C122.098 119.938 122.351 119.023 122.34 118.142C122.318 116.698 121.315 115.871 119.376 115.871C117.844 115.871 116.577 116.389 115.717 117.513L113.646 115.938C114.836 114.296 116.995 113.326 119.585 113.326C123.001 113.326 125.238 115.056 125.282 117.844C125.304 119.376 124.908 120.764 122.759 122.814L118.626 126.814H126.043Z" fill="black"/>
<path d="M138.859 124.566C138.903 127.222 136.941 129.514 132.721 129.514C130.495 129.514 128.258 128.842 126.781 127.696L128.004 125.425C129.139 126.373 130.859 126.979 132.644 126.979C134.737 126.979 135.95 126.054 135.928 124.599C135.906 123.177 134.848 122.263 132.467 122.263H131.024L130.991 120.268L134.484 116.015H127.332L127.288 113.568H138.01L138.043 115.519L134.297 120.059C137.272 120.445 138.804 122.219 138.848 124.577L138.859 124.566Z" fill="black"/>
<path d="M153.547 124.764C153.602 127.685 151.09 129.503 147.178 129.503C143.266 129.503 140.743 127.685 140.687 124.764C140.654 123.034 141.536 121.756 143.134 121.007C141.867 120.312 141.15 119.188 141.117 117.701C141.073 115.001 143.398 113.315 146.88 113.315C150.363 113.315 152.798 115.001 152.853 117.701C152.875 119.188 152.181 120.312 150.914 121.007C152.567 121.745 153.514 123.034 153.536 124.764H153.547ZM150.605 124.676C150.572 123.122 149.217 122.153 147.057 122.153C144.897 122.153 143.608 123.122 143.641 124.676C143.674 126.274 144.985 127.211 147.145 127.211C149.305 127.211 150.638 126.263 150.605 124.676ZM144.015 117.844C144.037 119.188 145.172 120.048 147.024 120.048C148.875 120.048 150.021 119.188 149.999 117.844C149.977 116.422 148.743 115.618 146.947 115.618C145.15 115.618 143.993 116.422 144.015 117.844Z" fill="black"/>
<path d="M168.204 124.764C168.259 127.685 165.746 129.503 161.834 129.503C157.922 129.503 155.399 127.685 155.344 124.764C155.311 123.034 156.192 121.756 157.79 121.007C156.523 120.312 155.806 119.188 155.773 117.701C155.729 115.001 158.054 113.315 161.537 113.315C165.019 113.315 167.454 115.001 167.498 117.701C167.52 119.188 166.826 120.312 165.559 121.007C167.212 121.745 168.16 123.034 168.182 124.764H168.204ZM165.261 124.676C165.228 123.122 163.873 122.153 161.713 122.153C159.553 122.153 158.264 123.122 158.297 124.676C158.33 126.274 159.641 127.211 161.801 127.211C163.961 127.211 165.294 126.263 165.261 124.676ZM158.672 117.844C158.694 119.188 159.829 120.048 161.68 120.048C163.531 120.048 164.677 119.188 164.655 117.844C164.633 116.422 163.399 115.618 161.603 115.618C159.807 115.618 158.65 116.422 158.672 117.844Z" fill="black"/>
<path d="M84.543 73.7324L86.4934 100.367" stroke="#5379F6" stroke-width="1.10196" stroke-linecap="round" stroke-linejoin="round"/>
<path d="M83.6504 61.5889L84.1683 68.6194" stroke="#5379F6" stroke-width="1.10196" stroke-linecap="round" stroke-linejoin="round"/>
<path d="M135.95 35.1086V18.8987" stroke="#5379F6" stroke-width="1.10196" stroke-linecap="round" stroke-linejoin="round"/>
<path d="M123.112 38.5466L115.013 24.5076" stroke="#5379F6" stroke-width="1.10196" stroke-linecap="round" stroke-linejoin="round"/>
<path d="M156.888 24.5076L148.788 38.5466" stroke="#5379F6" stroke-width="1.10196" stroke-linecap="round" stroke-linejoin="round"/>
<path d="M345.896 322.909C340.331 345.223 338.061 368.354 339.207 391.33" stroke="#5379F6" stroke-width="1.10196" stroke-miterlimit="10"/>
<path d="M340.75 321.961C340.805 324.022 342.645 331.295 344.706 331.239C346.767 331.184 348.254 323.834 348.199 321.774C348.144 319.713 346.436 318.093 344.386 318.137C342.326 318.192 340.706 319.9 340.75 321.95V321.961Z" fill="#5379F6"/>
<path d="M348.761 345.091C348.706 343.03 346.866 335.757 344.805 335.813C342.744 335.868 341.257 343.218 341.301 345.278C341.345 347.339 343.064 348.959 345.114 348.915C347.174 348.86 348.794 347.152 348.75 345.102L348.761 345.091Z" fill="#5379F6"/>
<path d="M333.19 337.532C335.251 337.487 342.524 335.636 342.468 333.576C342.413 331.515 335.063 330.027 333.003 330.082C330.942 330.137 329.322 331.845 329.366 333.895C329.421 335.956 331.129 337.576 333.179 337.532H333.19Z" fill="#5379F6"/>
<path d="M356.32 329.52C354.259 329.575 346.986 331.416 347.041 333.476C347.096 335.537 354.447 337.025 356.507 336.981C358.568 336.936 360.188 335.217 360.144 333.168C360.1 331.107 358.381 329.487 356.331 329.531L356.32 329.52Z" fill="#5379F6"/>
<path d="M333.74 328.176C335.228 329.598 341.675 333.432 343.096 331.945C344.518 330.457 340.374 324.198 338.876 322.776C337.388 321.355 335.03 321.41 333.608 322.909C332.187 324.396 332.242 326.755 333.74 328.176Z" fill="#5379F6"/>
<path d="M355.769 338.865C354.282 337.444 347.835 333.609 346.414 335.096C344.992 336.584 349.135 342.843 350.634 344.265C352.122 345.686 354.48 345.631 355.901 344.132C357.323 342.645 357.268 340.287 355.769 338.865Z" fill="#5379F6"/>
<path d="M339.416 344.529C340.838 343.042 344.672 336.595 343.185 335.174C341.697 333.752 335.438 337.895 334.016 339.394C332.595 340.882 332.65 343.24 334.149 344.661C335.636 346.083 337.995 346.028 339.416 344.529Z" fill="#5379F6"/>
<path d="M350.105 322.512C348.683 324 344.848 330.446 346.336 331.868C347.824 333.289 354.083 329.146 355.504 327.647C356.926 326.159 356.871 323.801 355.372 322.38C353.885 320.958 351.526 321.013 350.105 322.512Z" fill="#5379F6"/>
<path d="M340.342 333.631C340.397 336.066 342.425 337.995 344.86 337.939C347.295 337.884 349.224 335.857 349.169 333.421C349.114 330.986 347.086 329.058 344.651 329.113C342.215 329.168 340.287 331.195 340.342 333.631Z" fill="white"/>
<path d="M339.714 366.425C339.714 366.425 340.474 355.174 346.656 353.389C352.838 351.604 355.097 349.201 355.097 349.201C355.097 349.201 354.469 366.645 339.714 366.425Z" fill="#5379F6"/>
<path opacity="0.5" d="M339.714 366.425C339.714 366.425 340.474 355.174 346.656 353.389C352.838 351.604 355.097 349.201 355.097 349.201C355.097 349.201 354.469 366.645 339.714 366.425Z" fill="white"/>
<path d="M338.898 375.043C338.898 375.043 338.138 363.792 331.956 362.006C325.774 360.221 323.515 357.808 323.515 357.808C323.515 357.808 324.143 375.252 338.898 375.032V375.043Z" fill="#5379F6"/>
<path opacity="0.5" d="M338.898 375.043C338.898 375.043 338.138 363.792 331.956 362.006C325.774 360.221 323.515 357.808 323.515 357.808C323.515 357.808 324.143 375.252 338.898 375.032V375.043Z" fill="white"/>
<path d="M362.216 398.481C362.216 407.264 351.758 414.372 338.865 414.372C325.972 414.372 315.515 407.264 315.515 398.481C315.515 394.04 318.192 390.018 322.523 387.142C325.025 385.467 328.077 384.178 331.471 383.417H346.259C349.753 384.211 352.882 385.544 355.417 387.285C359.626 390.162 362.216 394.107 362.216 398.481Z" fill="#5379F6"/>
<path d="M346.259 383.417C349.753 384.211 352.882 385.544 355.417 387.285C359.626 390.162 362.216 394.107 362.216 398.481C362.216 407.264 351.758 414.372 338.865 414.372C325.972 414.372 315.515 407.264 315.515 398.481C315.515 394.04 318.192 390.018 322.523 387.142C325.025 385.467 328.077 384.178 331.471 383.417H346.259Z" fill="white"/>
<path d="M338.932 384.85V392.707" stroke="#5379F6" stroke-width="1.10196" stroke-miterlimit="10"/>
<path d="M356.442 383.175L355.208 387.032L355.185 387.076H322.534L322.468 386.867L321.289 383.175H356.442Z" fill="#5379F6"/>
<path d="M359.461 401.677C357.213 404.928 354.006 407.529 350.491 409.391C344.882 412.366 321.289 413.138 318.6 399.749C318.567 399.561 318.501 399.385 318.468 399.198C317.829 395.693 320.936 392.586 324.484 392.938C326.688 393.159 328.98 392.894 331.173 392.564C339.614 391.275 348.32 391.748 356.574 393.93C359.946 394.823 361.455 398.823 359.472 401.688L359.461 401.677Z" fill="black"/>
<path d="M190.099 397.225C190.507 397.081 190.783 396.751 190.915 396.255C191.014 395.88 190.871 395.638 190.738 395.495C189.89 394.613 186.441 395.241 186.055 395.307C185.967 395.329 185.89 395.396 185.879 395.484C185.857 395.572 185.89 395.66 185.967 395.715C186.54 396.123 187.377 396.652 188.204 396.993C188.898 397.269 189.581 397.412 190.11 397.225H190.099ZM190.408 395.803C190.463 395.858 190.518 395.957 190.474 396.145C190.386 396.486 190.209 396.707 189.945 396.795C189.317 397.015 188.127 396.597 186.694 395.66C188.083 395.451 189.967 395.329 190.408 395.803Z" fill="#5379F6"/>
<path d="M186.121 395.759C187.179 395.627 189.604 394.382 189.813 393.302C189.857 393.092 189.846 392.707 189.339 392.431C189.02 392.255 188.678 392.222 188.325 392.343C186.992 392.795 185.923 395.329 185.879 395.44C185.846 395.517 185.857 395.594 185.912 395.66C185.934 395.693 185.967 395.715 186.011 395.726C186.044 395.737 186.088 395.748 186.132 395.737L186.121 395.759ZM189.119 392.828C189.372 392.971 189.383 393.114 189.361 393.225C189.229 393.886 187.62 394.9 186.485 395.23C186.882 394.404 187.686 393.059 188.48 392.784C188.667 392.718 188.854 392.718 189.031 392.784C189.064 392.795 189.097 392.817 189.13 392.828H189.119Z" fill="#5379F6"/>
<path d="M175.664 391.318L184.634 394.944L192.469 374.216L183.488 370.59L175.664 391.318Z" fill="white"/>
<path d="M185.769 394.205L175.686 390.128C175.322 389.985 174.915 390.106 174.716 390.437L170.297 397.82C169.834 398.58 170.231 399.638 171.08 399.969C174.617 401.324 176.391 401.809 180.832 403.605C183.554 404.707 187.422 406.592 191.191 408.123C194.871 409.611 196.689 406.063 195.257 405.093C188.843 400.762 188.59 398.261 187.047 395.351C186.772 394.823 186.309 394.415 185.769 394.205Z" fill="black"/>
<path d="M192.736 383.494C192.52 383.991 191.947 384.225 191.444 384.022L177.572 378.41C177.11 378.223 176.856 377.723 176.977 377.24L177.928 373.453C178.072 372.877 178.684 372.553 179.241 372.757L193.918 378.127C194.459 378.324 194.721 378.937 194.491 379.465L192.736 383.494Z" fill="#5379F6"/>
<path d="M207.951 144.467C204.789 153.614 195.433 175.168 188.226 166.198C186.937 164.6 185.846 162.859 185.075 160.953C182.011 153.404 181.262 141.172 180.876 138.495L178.419 130.109C178.375 129.965 178.353 129.811 178.353 129.668L178.309 124.885C178.309 122.946 179.873 121.789 181.989 121.965C181.989 121.965 185.405 121.569 185.405 123.607L186.066 130.792H186.044C186.386 133.293 185.394 136.776 185.978 139.079C188.171 147.707 191.213 148.093 193.119 156.997C195.775 150.572 200.524 139.453 200.524 139.453C203.731 139.85 208.987 141.459 207.94 144.478L207.951 144.467Z" fill="white"/>
<path d="M235.247 104.698C234.167 110.207 231.743 122.23 235.6 125.91C235.6 125.91 234.09 131.497 223.853 131.497C212.591 131.497 218.475 125.91 218.475 125.91C224.624 124.445 224.459 119.883 223.39 115.596L235.258 104.687L235.247 104.698Z" fill="white"/>
<path d="M176.292 121.569V121.59C176.292 121.59 176.281 121.579 176.281 121.569H176.292Z" fill="white"/>
<path opacity="0.2" d="M207.555 139.773C209.505 137.988 210.827 138.517 211.72 139.938C212.613 144.06 207.345 152.699 205.229 155.972L207.544 139.773H207.555Z" fill="black"/>
<path opacity="0.2" d="M252.68 145.206C252.427 149.746 251.997 155.465 251.303 162.661C247.27 157.988 243.457 141.9 244.669 136.401C247.644 138.428 250.399 141.547 252.504 144.335C252.57 144.599 252.636 144.886 252.68 145.206Z" fill="black"/>
<path fill-rule="evenodd" clip-rule="evenodd" d="M245.301 137.413C245.3 137.41 245.298 137.407 245.297 137.404V137.415L245.301 137.413ZM292.98 164.577C290.806 164.745 288.557 164.861 286.378 164.898C283.788 164.964 281.21 164.898 278.719 164.655C276.24 164.446 273.827 164.005 271.777 163.3C270.763 162.936 269.882 162.485 269.221 162.011C268.89 161.768 268.614 161.526 268.405 161.283C268.378 161.263 268.326 161.202 268.267 161.131C268.23 161.087 268.19 161.04 268.152 160.997L267.865 160.655L267.292 159.972C265.204 157.354 260.762 147.868 257.402 140.692C255.868 137.417 254.56 134.623 253.804 133.183L245.301 137.413C245.527 137.871 245.807 138.446 246.133 139.115C249.372 145.761 257.144 161.707 260.746 165.669L261.518 166.485L261.903 166.892C261.936 166.925 261.967 166.957 261.999 166.989C262.096 167.088 262.197 167.192 262.355 167.333C263.105 168.038 263.887 168.623 264.691 169.096C266.3 170.066 267.931 170.628 269.496 171.036C272.637 171.818 275.612 171.95 278.51 171.895C283.071 171.713 287.401 171.074 291.68 170.02C295.236 170.983 300.632 168.924 300.67 168.909L300.671 168.909L304.065 166.606C304.748 166.143 305.078 165.317 304.913 164.512L304.384 161.945C304.142 160.821 303.018 160.104 301.894 160.391L299.238 161.052L292.98 164.577Z" fill="white"/>
<path d="M240.801 95.8596C239.115 104.918 238.586 108.797 233.396 112.907C225.583 119.1 214.828 115.045 213.77 105.656C212.823 97.204 215.743 83.8042 225.131 81.2807C234.377 78.7902 242.487 86.7905 240.79 95.8596H240.801Z" fill="white"/>
<path d="M218.068 96.554C216.955 98.0967 216.636 100.014 216.878 101.557C217.253 103.882 219.512 104.036 221.154 102.549C222.63 101.204 224.217 98.3832 223.005 96.4548C221.815 94.5594 219.335 94.7908 218.057 96.554H218.068Z" fill="white"/>
<path d="M238.52 190.673C238.52 190.673 234.024 253.937 228.944 295.657C227.423 308.164 223.61 320.275 217.693 331.438L192.799 378.337L180.061 373.323C180.061 373.323 188.832 328.749 206.045 304.44C206.045 304.44 193.196 231.787 210.012 190.441L238.52 190.662V190.673Z" fill="black"/>
<path opacity="0.2" d="M221.198 205.99C221.198 205.99 224.988 234.685 227.071 251.688C219.258 241.44 213.275 227.137 221.198 205.99Z" fill="black"/>
<path d="M270.686 403.165C270.984 402.845 271.072 402.426 270.951 401.93C270.862 401.556 270.62 401.401 270.433 401.346C269.265 400.95 266.51 403.098 266.201 403.341C266.135 403.396 266.102 403.495 266.124 403.572C266.146 403.66 266.223 403.727 266.311 403.738C267.006 403.826 267.997 403.914 268.89 403.837C269.628 403.771 270.3 403.572 270.675 403.165H270.686ZM270.278 401.776C270.356 401.798 270.455 401.853 270.499 402.041C270.587 402.382 270.532 402.658 270.345 402.867C269.904 403.352 268.636 403.528 266.928 403.363C268.052 402.536 269.661 401.567 270.278 401.776Z" fill="#5379F6"/>
<path d="M266.477 403.705C267.348 403.098 268.902 400.883 268.571 399.837C268.505 399.638 268.317 399.297 267.744 399.286C267.381 399.286 267.061 399.407 266.808 399.682C265.849 400.696 266.114 403.429 266.125 403.55C266.125 403.627 266.18 403.705 266.257 403.738C266.29 403.76 266.334 403.76 266.378 403.76C266.422 403.76 266.455 403.738 266.488 403.716L266.477 403.705ZM267.733 399.737C268.031 399.737 268.108 399.87 268.141 399.969C268.34 400.608 267.392 402.25 266.554 403.065C266.521 402.151 266.576 400.597 267.149 399.991C267.293 399.848 267.447 399.76 267.634 399.748C267.667 399.748 267.7 399.748 267.733 399.748V399.737Z" fill="#5379F6"/>
<path d="M255.127 404.597L264.769 403.672L261.827 381.742L252.174 382.679L255.127 404.597Z" fill="white"/>
<path d="M265.43 402.492L254.587 403.539C254.19 403.572 253.904 403.881 253.882 404.267L253.485 412.829C253.441 413.721 254.289 414.471 255.204 414.372C258.973 413.942 260.78 413.545 265.552 413.093C268.483 412.807 272.802 412.697 276.858 412.311C280.825 411.925 280.737 407.958 279.007 407.76C271.282 406.889 269.871 404.796 267.116 402.933C266.62 402.603 266.025 402.448 265.441 402.503L265.43 402.492Z" fill="black"/>
<path d="M248.063 190.662C248.063 190.662 260.405 266.157 262.785 310.875L263.226 390.977L253.231 392.927C253.231 392.927 238.752 341.818 237.088 312.286C232.669 233.903 207.136 233.771 222.498 190.519L248.052 190.662H248.063Z" fill="black"/>
<path d="M266.474 390.372C266.518 390.902 266.14 391.375 265.613 391.447L250.888 393.458C250.388 393.526 249.916 393.211 249.786 392.724L248.62 388.331C248.465 387.748 248.858 387.161 249.457 387.083L264.976 385.062C265.541 384.988 266.054 385.402 266.102 385.97L266.474 390.372Z" fill="#5379F6"/>
<path d="M176.314 121.645H176.281V121.591C176.281 121.591 176.303 121.623 176.314 121.645Z" fill="white"/>
<path fill-rule="evenodd" clip-rule="evenodd" d="M251.794 157.324C251.647 159.006 251.484 160.783 251.303 162.661C250.576 170.253 249.422 180.793 248 192C239.178 192 230.09 191.826 222.622 191.684C217.413 191.584 212.993 191.5 210 191.5C210.455 180.33 210.799 168.464 208.121 150.719C204.429 157.318 199.776 164.678 196.657 169.493L196.646 169.482C194.497 172.799 189.648 172.997 187.312 169.801C185.88 167.851 184.756 165.702 184.26 164.071C181.395 154.683 179.62 148.853 179.378 139.046C181.372 136.974 184.623 136.192 187.345 137.161L192.04 153.063C192.04 153.063 200.317 132.489 204.582 128.957C204.968 128.21 205.684 127.643 206.574 127.486C209.594 126.946 214.608 126.175 219.71 125.932C226.057 125.624 231.258 125.425 236.845 125.932C244.195 126.604 252.548 128.313 252.548 128.313C252.548 128.313 252.615 128.508 252.696 129.066C255.826 130.182 261.056 142.007 264.885 150.663C265.92 153.001 266.852 155.108 267.612 156.71C269.045 158.837 271.767 162.209 274.819 163.256C279.783 164.971 283.541 164.424 288.522 163.698C288.948 163.636 289.383 163.573 289.828 163.509C290.54 163.933 290.726 164.518 290.941 165.194C291.039 165.501 291.142 165.827 291.304 166.165C292.373 168.336 292.55 171.036 291.448 173.185C285.189 176.557 277.574 177.295 270.786 175.19C264.328 173.185 258.587 168.501 255.259 162.617C254.367 161.304 253.142 159.454 251.794 157.324Z" fill="#5379F6"/>
<path d="M272.957 146.021C271.227 147.994 270.676 149.14 268.274 150.209C265.871 151.278 260.626 150.352 258.962 148.313C259.502 149.9 262.654 152.754 264.307 152.975C260.648 155.112 255.502 154.209 252.78 150.947C253.045 152.875 254.863 154.605 256.703 155.256C235.589 155.807 244.482 145.867 231.259 131.729C216.614 116.07 219.798 103.144 219.798 103.144C219.787 100.907 219.291 97.1931 216.922 94.1737C214.806 91.4629 215.423 87.8044 216.096 85.7547C217.076 82.7464 220.063 81.6885 222.928 81.5122C223.435 78.5479 229.496 79.0879 230.278 79.5837C230.939 80.0135 231.115 79.9694 231.777 79.5507C233.264 78.592 237.011 77.6002 241.022 80.84C243.468 82.8235 246.091 86.3718 246.179 93.9313C246.267 101.788 242.521 111.122 255.513 123.056C263.172 130.098 259.513 145.206 272.946 146.032L272.957 146.021Z" fill="black"/>
<path d="M177.372 109.667H178C177.361 109.667 176.876 110.185 176.909 110.824L177.912 130.01C177.945 130.649 178.485 131.167 179.124 131.167H178.496C177.857 131.167 177.317 130.649 177.284 130.01L176.281 110.824C176.248 110.185 176.733 109.667 177.372 109.667Z" fill="#5379F6"/>
<path opacity="0.1" d="M177.372 109.667H178C177.361 109.667 176.876 110.185 176.909 110.824L177.912 130.01C177.945 130.649 178.485 131.167 179.124 131.167H178.496C177.857 131.167 177.317 130.649 177.284 130.01L176.281 110.824C176.248 110.185 176.733 109.667 177.372 109.667Z" fill="white"/>
<path d="M178.683 131.167H186.419C187.058 131.167 187.543 130.649 187.51 130.01L186.507 110.824C186.474 110.185 185.934 109.667 185.295 109.667H177.559C176.92 109.667 176.435 110.185 176.468 110.824L177.471 130.01C177.504 130.649 178.044 131.167 178.683 131.167Z" fill="#5379F6"/>
<path opacity="0.4" d="M178.683 131.167H186.419C187.058 131.167 187.543 130.649 187.51 130.01L186.507 110.824C186.474 110.185 185.934 109.667 185.295 109.667H177.559C176.92 109.667 176.435 110.185 176.468 110.824L177.471 130.01C177.504 130.649 178.044 131.167 178.683 131.167Z" fill="white"/>
<path d="M187.036 129.613C187.047 129.811 186.981 129.999 186.849 130.142C186.717 130.274 186.529 130.351 186.331 130.351H178.827C178.397 130.351 178.033 129.999 178.011 129.569L177.03 110.957C177.019 110.758 177.086 110.571 177.218 110.439C177.35 110.295 177.537 110.218 177.736 110.218H185.24C185.67 110.218 186.034 110.571 186.056 111.001L186.122 112.334L187.036 129.613Z" fill="black"/>
<g opacity="0.1">
<path d="M186.121 112.334L183.631 130.351H180.645L183.466 110.218H185.24C185.67 110.218 186.033 110.571 186.055 111.001L186.121 112.334Z" fill="white"/>
<path d="M179.565 130.351H178.893L181.714 110.218H182.386L179.565 130.351Z" fill="white"/>
</g>
<path d="M215.236 193.086H214.222C214.024 193.086 213.869 192.987 213.88 192.855L214.354 188.491C214.365 188.359 214.542 188.26 214.751 188.26H215.765C215.963 188.26 216.117 188.359 216.106 188.491L215.633 192.855C215.622 192.987 215.445 193.086 215.236 193.086Z" fill="#5379F6"/>
<path d="M210.048 191.449C209.708 191.48 209.406 191.683 209.252 191.988C203.825 202.75 199.206 215.924 198.904 227.96C198.896 228.275 199.047 228.579 199.299 228.768C217.54 242.479 234.554 226.627 255.283 228.701C255.916 228.764 256.469 228.252 256.409 227.618C255.475 217.884 251.927 200.863 248.267 192.123C248.108 191.743 247.727 191.512 247.315 191.527C233.667 192.028 222.974 190.292 210.048 191.449Z" fill="#5379F6"/>
<path d="M208.612 192.756C208.189 192.756 209.648 188.99 209.691 188.879C209.692 188.876 209.694 188.877 209.698 188.877C209.701 188.877 209.704 188.875 209.705 188.872C209.785 188.698 210.036 188.59 210.309 188.59H213.227C213.822 188.59 214.286 189.107 214.221 189.699L213.984 191.864C213.929 192.371 213.5 192.756 212.99 192.756H208.612Z" fill="white"/>
<path d="M248.569 192.381C248.547 192.59 248.272 192.756 247.93 192.756H241.38C240.786 192.756 240.322 192.24 240.386 191.649L240.618 189.483C240.673 188.975 241.101 188.59 241.612 188.59H248.272C248.647 188.59 248.933 188.788 248.911 189.02L248.569 192.381Z" fill="white"/>
<path d="M215.766 191.645L216.007 189.479C216.064 188.973 216.492 188.59 217.001 188.59H237.881C238.478 188.59 238.941 189.109 238.875 189.701L238.633 191.867C238.576 192.373 238.148 192.756 237.639 192.756H216.76C216.164 192.756 215.7 192.237 215.766 191.645Z" fill="white"/>
</svg>
